<?xml version="1.0" encoding="UTF-8" standalone="no"?>
<!-- Created with Inkscape (http://www.inkscape.org/) -->

<svg
   xmlns:dc="http://purl.org/dc/elements/1.1/"
   xmlns:cc="http://creativecommons.org/ns#"
   xmlns:rdf="http://www.w3.org/1999/02/22-rdf-syntax-ns#"
   xmlns:svg="http://www.w3.org/2000/svg"
   xmlns="http://www.w3.org/2000/svg"
   xmlns:xlink="http://www.w3.org/1999/xlink"
   xmlns:inkscape="http://www.inkscape.org/namespaces/inkscape"
   version="1.1"
   width="114pt"
   height="136pt"
   viewBox="0 0 114 136"
   id="svg2">
  <metadata
     id="metadata57">
    <rdf:RDF>
      <cc:Work
         rdf:about="">
        <dc:format>image/svg+xml</dc:format>
        <dc:type
           rdf:resource="http://purl.org/dc/dcmitype/StillImage" />
      </cc:Work>
    </rdf:RDF>
  </metadata>
  <defs
     id="defs55" />
  <g
     id="graph0"
     style="font-size:14px;font-family:Times-Roman">
    <title
       id="title5">uml</title>
    <polygon
       points="-1,-1 115,-1 115,137 -1,137 -1,137 "
       id="polygon7"
       style="fill:#ffffff;stroke:#ffffff" />
    <g
       id="node1">
      <title
         id="title10">26492903</title>
      <a
         xlink:href="platform%3A%2Fresource%2Fsk%2FNewModel.uml%23_h4Cd6tdoEeKVjp7WMrDZiQ"
         id="a12"
         xlink:title="binary_type">
        <polygon
           points="21,104 21,130 93,130 93,104 93,104 "
           id="polygon14"
           style="fill:#e0ffff;stroke:#a30036;stroke-dasharray:5, 2" />
        <text
           x="57"
           y="121"
           id="text16"
           style="font-size:11px;text-anchor:middle;font-family:Arial">binary_type</text>
      </a>
    </g>
    <g
       id="node2">
      <title
         id="title19">33541655</title>
      <polygon
         points="5,5 109,5 109,43 5,43 5,43 "
         id="polygon21"
         style="fill:#ffffcc;stroke:#ffffcc" />
      <a
         xlink:href="platform%3A%2Fresource%2Fsk%2FNewModel.uml%23_h4Cd89doEeKVjp7WMrDZiQ"
         id="a23"
         xlink:title="binaries_type">
        <text
           x="65"
           y="21"
           id="text30"
           style="font-size:13px;text-anchor:middle;font-family:Arial">binaries_type</text>
        <polygon
           points="5,5 109,5 109,28 5,28 5,28 "
           id="polygon32"
           style="fill:none;stroke:#a30036" />
      </a>
      <text
         x="57"
         y="39"
         id="text34"
         style="font-size:11px;text-anchor:middle;font-family:Arial" />
      <polygon
         points="5,28 109,28 109,43 5,43 5,43 "
         id="polygon36"
         style="fill:none;stroke:#a30036" />
    </g>
    <g
       id="edge2">
      <title
         id="title39">33541655-&gt;26492903</title>
      <a
         xlink:href="platform%3A%2Fresource%2Fsk%2FNewModel.uml%23_h4Cd9NdoEeKVjp7WMrDZiQ"
         id="a41"
         xlink:title="binary\n1..*">
        <path
           d="m 57,55 c 0,13 0,27 0,38"
           inkscape:connector-curvature="0"
           id="path43"
           style="fill:none;stroke:#a30036" />
        <polygon
           points="61,49 57,43 53,49 57,55 57,55 "
           id="polygon45"
           style="fill:#a30036;stroke:#a30036" />
        <polygon
           points="62,93 57,100 57,93 57,100 53,93 57,103 57,103 57,103 "
           id="polygon47"
           style="fill:#a30036;stroke:#a30036" />
        <text
           x="71"
           y="70"
           id="text49"
           style="font-size:10px;text-anchor:middle;font-family:Arial">binary</text>
        <text
           x="71"
           y="82"
           id="text51"
           style="font-size:10px;text-anchor:middle;font-family:Arial">1..*</text>
      </a>
    </g>
  </g>
</svg>
