<?xml version="1.0" encoding="UTF-8" standalone="no"?>
<!-- Created with Inkscape (http://www.inkscape.org/) -->

<svg
   xmlns:dc="http://purl.org/dc/elements/1.1/"
   xmlns:cc="http://creativecommons.org/ns#"
   xmlns:rdf="http://www.w3.org/1999/02/22-rdf-syntax-ns#"
   xmlns:svg="http://www.w3.org/2000/svg"
   xmlns="http://www.w3.org/2000/svg"
   xmlns:xlink="http://www.w3.org/1999/xlink"
   xmlns:inkscape="http://www.inkscape.org/namespaces/inkscape"
   version="1.1"
   width="192pt"
   height="136pt"
   viewBox="0 0 192 136"
   id="svg2">
  <metadata
     id="metadata81">
    <rdf:RDF>
      <cc:Work
         rdf:about="">
        <dc:format>image/svg+xml</dc:format>
        <dc:type
           rdf:resource="http://purl.org/dc/dcmitype/StillImage" />
      </cc:Work>
    </rdf:RDF>
  </metadata>
  <defs
     id="defs79" />
  <g
     id="graph0"
     style="font-size:14px;font-family:Times-Roman">
    <title
       id="title5">uml</title>
    <polygon
       points="-1,-1 193,-1 193,137 -1,137 -1,137 "
       id="polygon7"
       style="fill:#ffffff;stroke:#ffffff" />
    <g
       id="node1">
      <title
         id="title10">23067222</title>
      <a
         xlink:href="platform%3A%2Fresource%2Fsk%2FNewModel.uml%23_h34tB9doEeKVjp7WMrDZiQ"
         id="a12"
         xlink:title="processor_type">
        <polygon
           points="5,104 5,130 95,130 95,104 95,104 "
           id="polygon14"
           style="fill:#e0ffff;stroke:#a30036;stroke-dasharray:5, 2" />
        <text
           x="50"
           y="121"
           id="text16"
           style="font-size:11px;text-anchor:middle;font-family:Arial">processor_type</text>
      </a>
    </g>
    <g
       id="node2">
      <title
         id="title19">134954</title>
      <a
         xlink:href="platform%3A%2Fresource%2Fsk%2FNewModel.uml%23_h3vjcNdoEeKVjp7WMrDZiQ"
         id="a21"
         xlink:title="device_type">
        <polygon
           points="113,104 113,130 187,130 187,104 187,104 "
           id="polygon23"
           style="fill:#e0ffff;stroke:#a30036;stroke-dasharray:5, 2" />
        <text
           x="150"
           y="121"
           id="text25"
           style="font-size:11px;text-anchor:middle;font-family:Arial">device_type</text>
      </a>
    </g>
    <g
       id="node3">
      <title
         id="title28">8287372</title>
      <polygon
         points="44,5 156,5 156,43 44,43 44,43 "
         id="polygon30"
         style="fill:#ffffcc;stroke:#ffffcc" />
      <a
         xlink:href="platform%3A%2Fresource%2Fsk%2FNewModel.uml%23_h34tFNdoEeKVjp7WMrDZiQ"
         id="a32"
         xlink:title="hardware_type">
        <text
           x="108"
           y="21"
           id="text39"
           style="font-size:13px;text-anchor:middle;font-family:Arial">hardware_type</text>
        <polygon
           points="44,5 156,5 156,28 44,28 44,28 "
           id="polygon41"
           style="fill:none;stroke:#a30036" />
      </a>
      <text
         x="100"
         y="39"
         id="text43"
         style="font-size:11px;text-anchor:middle;font-family:Arial" />
      <polygon
         points="44,28 156,28 156,43 44,43 44,43 "
         id="polygon45"
         style="fill:none;stroke:#a30036" />
    </g>
    <g
       id="edge2">
      <title
         id="title48">8287372-&gt;23067222</title>
      <a
         xlink:href="platform%3A%2Fresource%2Fsk%2FNewModel.uml%23_h34tFddoEeKVjp7WMrDZiQ"
         id="a50"
         xlink:title="processor\n1..1">
        <path
           d="M 84,54 C 77,67 69,82 62,94"
           inkscape:connector-curvature="0"
           id="path52"
           style="fill:none;stroke:#a30036" />
        <polygon
           points="91,50 90,43 84,46 84,54 84,54 "
           id="polygon54"
           style="fill:#a30036;stroke:#a30036" />
        <polygon
           points="66,96 58,100 62,94 58,100 58,92 57,103 57,103 57,103 "
           id="polygon56"
           style="fill:#a30036;stroke:#a30036" />
        <text
           x="103"
           y="70"
           id="text58"
           style="font-size:10px;text-anchor:middle;font-family:Arial">processor</text>
        <text
           x="103"
           y="82"
           id="text60"
           style="font-size:10px;text-anchor:middle;font-family:Arial">1..1</text>
      </a>
    </g>
    <g
       id="edge4">
      <title
         id="title63">8287372-&gt;134954</title>
      <a
         xlink:href="platform%3A%2Fresource%2Fsk%2FNewModel.uml%23_h34tGtdoEeKVjp7WMrDZiQ"
         id="a65"
         xlink:title="device\n1..*">
        <path
           d="m 122,53 c 2,2 4,5 6,8 6,10 11,22 15,32"
           inkscape:connector-curvature="0"
           id="path67"
           style="fill:none;stroke:#a30036" />
        <polygon
           points="122,46 115,43 115,50 122,53 122,53 "
           id="polygon69"
           style="fill:#a30036;stroke:#a30036" />
        <polygon
           points="147,92 145,100 143,93 145,100 139,95 146,103 146,103 146,103 "
           id="polygon71"
           style="fill:#a30036;stroke:#a30036" />
        <text
           x="152"
           y="70"
           id="text73"
           style="font-size:10px;text-anchor:middle;font-family:Arial">device</text>
        <text
           x="152"
           y="82"
           id="text75"
           style="font-size:10px;text-anchor:middle;font-family:Arial">1..*</text>
      </a>
    </g>
  </g>
</svg>
