<?xml version="1.0" encoding="UTF-8" standalone="no"?>
<!-- Created with Inkscape (http://www.inkscape.org/) -->

<svg
   xmlns:dc="http://purl.org/dc/elements/1.1/"
   xmlns:cc="http://creativecommons.org/ns#"
   xmlns:rdf="http://www.w3.org/1999/02/22-rdf-syntax-ns#"
   xmlns:svg="http://www.w3.org/2000/svg"
   xmlns="http://www.w3.org/2000/svg"
   xmlns:xlink="http://www.w3.org/1999/xlink"
   xmlns:inkscape="http://www.inkscape.org/namespaces/inkscape"
   version="1.1"
   width="499pt"
   height="148pt"
   viewBox="0 0 499 148"
   id="svg2">
  <metadata
     id="metadata159">
    <rdf:RDF>
      <cc:Work
         rdf:about="">
        <dc:format>image/svg+xml</dc:format>
        <dc:type
           rdf:resource="http://purl.org/dc/dcmitype/StillImage" />
      </cc:Work>
    </rdf:RDF>
  </metadata>
  <defs
     id="defs157" />
  <g
     id="graph0"
     style="font-size:14px;font-family:Times-Roman">
    <title
       id="title5">uml</title>
    <polygon
       points="-1,-1 500,-1 500,149 -1,149 -1,149 "
       id="polygon7"
       style="fill:#ffffff;stroke:#ffffff" />
    <g
       id="node1">
      <title
         id="title10">8287372</title>
      <a
         xlink:href="platform%3A%2Fresource%2Fsk%2FNewModel.uml%23_h34tFNdoEeKVjp7WMrDZiQ"
         id="a12"
         xlink:title="hardware_type">
        <polygon
           points="5,116 5,142 93,142 93,116 93,116 "
           id="polygon14"
           style="fill:#e0ffff;stroke:#a30036;stroke-dasharray:5, 2" />
        <text
           x="49"
           y="133"
           id="text16"
           style="font-size:11px;text-anchor:middle;font-family:Arial">hardware_type</text>
      </a>
    </g>
    <g
       id="node2">
      <title
         id="title19">15433373</title>
      <a
         xlink:href="platform%3A%2Fresource%2Fsk%2FNewModel.uml%23_h34tgddoEeKVjp7WMrDZiQ"
         id="a21"
         xlink:title="kernel_type">
        <polygon
           points="111,116 111,142 183,142 183,116 183,116 "
           id="polygon23"
           style="fill:#e0ffff;stroke:#a30036;stroke-dasharray:5, 2" />
        <text
           x="147"
           y="133"
           id="text25"
           style="font-size:11px;text-anchor:middle;font-family:Arial">kernel_type</text>
      </a>
    </g>
    <g
       id="node3">
      <title
         id="title28">33541655</title>
      <a
         xlink:href="platform%3A%2Fresource%2Fsk%2FNewModel.uml%23_h4Cd89doEeKVjp7WMrDZiQ"
         id="a30"
         xlink:title="binaries_type">
        <polygon
           points="201,116 201,142 281,142 281,116 281,116 "
           id="polygon32"
           style="fill:#e0ffff;stroke:#a30036;stroke-dasharray:5, 2" />
        <text
           x="241"
           y="133"
           id="text34"
           style="font-size:11px;text-anchor:middle;font-family:Arial">binaries_type</text>
      </a>
    </g>
    <g
       id="node4">
      <title
         id="title37">7765515</title>
      <a
         xlink:href="platform%3A%2Fresource%2Fsk%2FNewModel.uml%23_h4CeK9doEeKVjp7WMrDZiQ"
         id="a39"
         xlink:title="subjects_type">
        <polygon
           points="299,116 299,142 381,142 381,116 381,116 "
           id="polygon41"
           style="fill:#e0ffff;stroke:#a30036;stroke-dasharray:5, 2" />
        <text
           x="340"
           y="133"
           id="text43"
           style="font-size:11px;text-anchor:middle;font-family:Arial">subjects_type</text>
      </a>
    </g>
    <g
       id="node5">
      <title
         id="title46">8527732</title>
      <a
         xlink:href="platform%3A%2Fresource%2Fsk%2FNewModel.uml%23_h4CeENdoEeKVjp7WMrDZiQ"
         id="a48"
         xlink:title="scheduling_type">
        <polygon
           points="399,116 399,142 493,142 493,116 493,116 "
           id="polygon50"
           style="fill:#e0ffff;stroke:#a30036;stroke-dasharray:5, 2" />
        <text
           x="446"
           y="133"
           id="text52"
           style="font-size:11px;text-anchor:middle;font-family:Arial">scheduling_type</text>
      </a>
    </g>
    <g
       id="node6">
      <title
         id="title55">22556821</title>
      <polygon
         points="123,5 359,5 359,55 123,55 123,55 "
         id="polygon57"
         style="fill:#ffffcc;stroke:#ffffcc" />
      <a
         xlink:href="platform%3A%2Fresource%2Fsk%2FNewModel.uml%23_h4CeGtdoEeKVjp7WMrDZiQ"
         id="a59"
         xlink:title="system_type">
        <text
           x="250"
           y="21"
           id="text66"
           style="font-size:13px;text-anchor:middle;font-family:Arial">system_type</text>
        <polygon
           points="123,5 359,5 359,28 123,28 123,28 "
           id="polygon68"
           style="fill:none;stroke:#a30036" />
      </a>
      <a
         xlink:href="platform%3A%2Fresource%2Fsk%2FNewModel.uml%23_h4CelddoEeKVjp7WMrDZiQ"
         id="a70"
         xlink:title="vmxon_address">
        <text
           x="231"
           y="39"
           id="text72"
           style="font-size:11px;text-anchor:middle;font-family:Arial">«attribute» vmxon_address : address_type</text>
      </a>
      <a
         xlink:href="platform%3A%2Fresource%2Fsk%2FNewModel.uml%23_h4CemddoEeKVjp7WMrDZiQ"
         id="a74"
         xlink:title="vmcs_start_address">
        <text
           x="241"
           y="51"
           id="text76"
           style="font-size:11px;text-anchor:middle;font-family:Arial">«attribute» vmcs_start_address : address_type</text>
      </a>
      <polygon
         points="123,28 359,28 359,55 123,55 123,55 "
         id="polygon78"
         style="fill:none;stroke:#a30036" />
    </g>
    <g
       id="edge2">
      <title
         id="title81">22556821-&gt;8287372</title>
      <a
         xlink:href="platform%3A%2Fresource%2Fsk%2FNewModel.uml%23_h4CeG9doEeKVjp7WMrDZiQ"
         id="a83"
         xlink:title="hardware\n1..1">
        <path
           d="m 164,60 c -10,4 -20,9 -29,13 -20,11 -42,25 -58,36"
           inkscape:connector-curvature="0"
           id="path85"
           style="fill:none;stroke:#a30036" />
        <polygon
           points="171,61 175,55 168,54 164,60 164,60 "
           id="polygon87"
           style="fill:#a30036;stroke:#a30036" />
        <polygon
           points="79,113 70,113 76,109 70,113 74,106 68,115 68,115 68,115 "
           id="polygon89"
           style="fill:#a30036;stroke:#a30036" />
        <text
           x="162"
           y="82"
           id="text91"
           style="font-size:10px;text-anchor:middle;font-family:Arial">hardware</text>
        <text
           x="162"
           y="94"
           id="text93"
           style="font-size:10px;text-anchor:middle;font-family:Arial">1..1</text>
      </a>
    </g>
    <g
       id="edge4">
      <title
         id="title96">22556821-&gt;15433373</title>
      <a
         xlink:href="platform%3A%2Fresource%2Fsk%2FNewModel.uml%23_h4CeINdoEeKVjp7WMrDZiQ"
         id="a98"
         xlink:title="kernel\n1..1">
        <path
           d="m 209,64 c -14,15 -30,31 -42,44"
           inkscape:connector-curvature="0"
           id="path100"
           style="fill:none;stroke:#a30036" />
        <polygon
           points="216,62 217,55 210,57 209,64 209,64 "
           id="polygon102"
           style="fill:#a30036;stroke:#a30036" />
        <polygon
           points="170,111 162,113 167,108 162,113 164,105 160,115 160,115 160,115 "
           id="polygon104"
           style="fill:#a30036;stroke:#a30036" />
        <text
           x="214"
           y="82"
           id="text106"
           style="font-size:10px;text-anchor:middle;font-family:Arial">kernel</text>
        <text
           x="214"
           y="94"
           id="text108"
           style="font-size:10px;text-anchor:middle;font-family:Arial">1..1</text>
      </a>
    </g>
    <g
       id="edge6">
      <title
         id="title111">22556821-&gt;33541655</title>
      <a
         xlink:href="platform%3A%2Fresource%2Fsk%2FNewModel.uml%23_h4CeJddoEeKVjp7WMrDZiQ"
         id="a113"
         xlink:title="binaries\n1..1">
        <path
           d="m 241,67 c 0,13 0,27 0,38"
           inkscape:connector-curvature="0"
           id="path115"
           style="fill:none;stroke:#a30036" />
        <polygon
           points="245,61 241,55 237,61 241,67 241,67 "
           id="polygon117"
           style="fill:#a30036;stroke:#a30036" />
        <polygon
           points="246,105 241,112 241,105 241,112 237,105 241,115 241,115 241,115 "
           id="polygon119"
           style="fill:#a30036;stroke:#a30036" />
        <text
           x="259"
           y="82"
           id="text121"
           style="font-size:10px;text-anchor:middle;font-family:Arial">binaries</text>
        <text
           x="259"
           y="94"
           id="text123"
           style="font-size:10px;text-anchor:middle;font-family:Arial">1..1</text>
      </a>
    </g>
    <g
       id="edge8">
      <title
         id="title126">22556821-&gt;7765515</title>
      <a
         xlink:href="platform%3A%2Fresource%2Fsk%2FNewModel.uml%23_h4CeKtdoEeKVjp7WMrDZiQ"
         id="a128"
         xlink:title="subjects\n1..1">
        <path
           d="m 275,64 c 15,15 31,31 44,44"
           inkscape:connector-curvature="0"
           id="path130"
           style="fill:none;stroke:#a30036" />
        <polygon
           points="273,56 266,55 267,62 274,63 274,63 "
           id="polygon132"
           style="fill:#a30036;stroke:#a30036" />
        <polygon
           points="322,105 324,113 319,108 324,113 316,111 326,115 326,115 326,115 "
           id="polygon134"
           style="fill:#a30036;stroke:#a30036" />
        <text
           x="322"
           y="82"
           id="text136"
           style="font-size:10px;text-anchor:middle;font-family:Arial">subjects</text>
        <text
           x="322"
           y="94"
           id="text138"
           style="font-size:10px;text-anchor:middle;font-family:Arial">1..1</text>
      </a>
    </g>
    <g
       id="edge10">
      <title
         id="title141">22556821-&gt;8527732</title>
      <a
         xlink:href="platform%3A%2Fresource%2Fsk%2FNewModel.uml%23_h4CekNdoEeKVjp7WMrDZiQ"
         id="a143"
         xlink:title="scheduling\n1..1">
        <path
           d="m 315,60 c 10,4 21,9 30,13 23,12 49,26 69,37"
           inkscape:connector-curvature="0"
           id="path145"
           style="fill:none;stroke:#a30036" />
        <polygon
           points="311,54 304,55 308,61 315,60 315,60 "
           id="polygon147"
           style="fill:#a30036;stroke:#a30036" />
        <polygon
           points="416,106 420,114 414,110 420,114 412,114 423,115 423,115 423,115 "
           id="polygon149"
           style="fill:#a30036;stroke:#a30036" />
        <text
           x="409"
           y="82"
           id="text151"
           style="font-size:10px;text-anchor:middle;font-family:Arial">scheduling</text>
        <text
           x="409"
           y="94"
           id="text153"
           style="font-size:10px;text-anchor:middle;font-family:Arial">1..1</text>
      </a>
    </g>
  </g>
</svg>
