<?xml version="1.0" encoding="UTF-8" standalone="no"?>
<!-- Created with Inkscape (http://www.inkscape.org/) -->

<svg
   xmlns:dc="http://purl.org/dc/elements/1.1/"
   xmlns:cc="http://creativecommons.org/ns#"
   xmlns:rdf="http://www.w3.org/1999/02/22-rdf-syntax-ns#"
   xmlns:svg="http://www.w3.org/2000/svg"
   xmlns="http://www.w3.org/2000/svg"
   xmlns:xlink="http://www.w3.org/1999/xlink"
   xmlns:inkscape="http://www.inkscape.org/namespaces/inkscape"
   version="1.1"
   width="116pt"
   height="136pt"
   viewBox="0 0 116 136"
   id="svg2">
  <metadata
     id="metadata57">
    <rdf:RDF>
      <cc:Work
         rdf:about="">
        <dc:format>image/svg+xml</dc:format>
        <dc:type
           rdf:resource="http://purl.org/dc/dcmitype/StillImage" />
      </cc:Work>
    </rdf:RDF>
  </metadata>
  <defs
     id="defs55" />
  <g
     id="graph0"
     style="font-size:14px;font-family:Times-Roman">
    <title
       id="title5">uml</title>
    <polygon
       points="-1,-1 117,-1 117,137 -1,137 -1,137 "
       id="polygon7"
       style="fill:#ffffff;stroke:#ffffff" />
    <g
       id="node1">
      <title
         id="title10">22448772</title>
      <a
         xlink:href="platform%3A%2Fresource%2Fsk%2FNewModel.uml%23_h4CeLddoEeKVjp7WMrDZiQ"
         id="a12"
         xlink:title="subject_type">
        <polygon
           points="20,104 20,130 96,130 96,104 96,104 "
           id="polygon14"
           style="fill:#e0ffff;stroke:#a30036;stroke-dasharray:5, 2" />
        <text
           x="58"
           y="121"
           id="text16"
           style="font-size:11px;text-anchor:middle;font-family:Arial">subject_type</text>
      </a>
    </g>
    <g
       id="node2">
      <title
         id="title19">7765515</title>
      <polygon
         points="5,5 111,5 111,43 5,43 5,43 "
         id="polygon21"
         style="fill:#ffffcc;stroke:#ffffcc" />
      <a
         xlink:href="platform%3A%2Fresource%2Fsk%2FNewModel.uml%23_h4CeK9doEeKVjp7WMrDZiQ"
         id="a23"
         xlink:title="subjects_type">
        <text
           x="66"
           y="21"
           id="text30"
           style="font-size:13px;text-anchor:middle;font-family:Arial">subjects_type</text>
        <polygon
           points="5,5 111,5 111,28 5,28 5,28 "
           id="polygon32"
           style="fill:none;stroke:#a30036" />
      </a>
      <text
         x="58"
         y="39"
         id="text34"
         style="font-size:11px;text-anchor:middle;font-family:Arial" />
      <polygon
         points="5,28 111,28 111,43 5,43 5,43 "
         id="polygon36"
         style="fill:none;stroke:#a30036" />
    </g>
    <g
       id="edge2">
      <title
         id="title39">7765515-&gt;22448772</title>
      <a
         xlink:href="platform%3A%2Fresource%2Fsk%2FNewModel.uml%23_h4CeLNdoEeKVjp7WMrDZiQ"
         id="a41"
         xlink:title="subject\n1..*">
        <path
           d="m 58,55 c 0,13 0,27 0,38"
           inkscape:connector-curvature="0"
           id="path43"
           style="fill:none;stroke:#a30036" />
        <polygon
           points="62,49 58,43 54,49 58,55 58,55 "
           id="polygon45"
           style="fill:#a30036;stroke:#a30036" />
        <polygon
           points="63,93 58,100 58,93 58,100 54,93 58,103 58,103 58,103 "
           id="polygon47"
           style="fill:#a30036;stroke:#a30036" />
        <text
           x="74"
           y="70"
           id="text49"
           style="font-size:10px;text-anchor:middle;font-family:Arial">subject</text>
        <text
           x="74"
           y="82"
           id="text51"
           style="font-size:10px;text-anchor:middle;font-family:Arial">1..*</text>
      </a>
    </g>
  </g>
</svg>
