<?xml version="1.0" encoding="UTF-8" standalone="no"?>
<!-- Created with Inkscape (http://www.inkscape.org/) -->

<svg
   xmlns:dc="http://purl.org/dc/elements/1.1/"
   xmlns:cc="http://creativecommons.org/ns#"
   xmlns:rdf="http://www.w3.org/1999/02/22-rdf-syntax-ns#"
   xmlns:svg="http://www.w3.org/2000/svg"
   xmlns="http://www.w3.org/2000/svg"
   xmlns:xlink="http://www.w3.org/1999/xlink"
   xmlns:inkscape="http://www.inkscape.org/namespaces/inkscape"
   version="1.1"
   width="128pt"
   height="148pt"
   viewBox="0 0 128 148"
   id="svg2">
  <metadata
     id="metadata59">
    <rdf:RDF>
      <cc:Work
         rdf:about="">
        <dc:format>image/svg+xml</dc:format>
        <dc:type
           rdf:resource="http://purl.org/dc/dcmitype/StillImage" />
      </cc:Work>
    </rdf:RDF>
  </metadata>
  <defs
     id="defs57" />
  <g
     id="graph0"
     style="font-size:14px;font-family:Times-Roman">
    <title
       id="title5">uml</title>
    <polygon
       points="-1,-1 129,-1 129,149 -1,149 -1,149 "
       id="polygon7"
       style="fill:#ffffff;stroke:#ffffff" />
    <g
       id="node1">
      <title
         id="title10">11971069</title>
      <a
         xlink:href="platform%3A%2Fresource%2Fsk%2FNewModel.uml%23_h34tJ9doEeKVjp7WMrDZiQ"
         id="a12"
         xlink:title="entry_type">
        <polygon
           points="31,116 31,142 97,142 97,116 97,116 "
           id="polygon14"
           style="fill:#e0ffff;stroke:#a30036;stroke-dasharray:5, 2" />
        <text
           x="64"
           y="133"
           id="text16"
           style="font-size:11px;text-anchor:middle;font-family:Arial">entry_type</text>
      </a>
    </g>
    <g
       id="node2">
      <title
         id="title19">25408035</title>
      <polygon
         points="5,5 123,5 123,43 5,43 5,43 "
         id="polygon21"
         style="fill:#ffffcc;stroke:#ffffcc" />
      <a
         xlink:href="platform%3A%2Fresource%2Fsk%2FNewModel.uml%23_h34tPtdoEeKVjp7WMrDZiQ"
         id="a23"
         xlink:title="trap_table_type">
        <text
           x="73"
           y="21"
           id="text30"
           style="font-size:13px;text-anchor:middle;font-family:Arial">trap_table_type</text>
        <polygon
           points="5,5 123,5 123,28 5,28 5,28 "
           id="polygon32"
           style="fill:none;stroke:#a30036" />
      </a>
      <text
         x="64"
         y="39"
         id="text34"
         style="font-size:11px;text-anchor:middle;font-family:Arial" />
      <polygon
         points="5,28 123,28 123,43 5,43 5,43 "
         id="polygon36"
         style="fill:none;stroke:#a30036" />
    </g>
    <g
       id="edge2">
      <title
         id="title39">25408035-&gt;11971069</title>
      <a
         xlink:href="platform%3A%2Fresource%2Fsk%2FNewModel.uml%23_h34tP9doEeKVjp7WMrDZiQ"
         id="a41"
         xlink:title="entry\n1..52\n {unique}">
        <path
           d="m 64,55 c 0,16 0,35 0,50"
           inkscape:connector-curvature="0"
           id="path43"
           style="fill:none;stroke:#a30036" />
        <polygon
           points="68,49 64,43 60,49 64,55 64,55 "
           id="polygon45"
           style="fill:#a30036;stroke:#a30036" />
        <polygon
           points="69,105 64,112 64,105 64,112 60,105 64,115 64,115 64,115 "
           id="polygon47"
           style="fill:#a30036;stroke:#a30036" />
        <text
           x="84"
           y="70"
           id="text49"
           style="font-size:10px;text-anchor:middle;font-family:Arial">entry</text>
        <text
           x="84"
           y="82"
           id="text51"
           style="font-size:10px;text-anchor:middle;font-family:Arial">1..52</text>
        <text
           x="84"
           y="94"
           id="text53"
           style="font-size:10px;text-anchor:middle;font-family:Arial">{unique}</text>
      </a>
    </g>
  </g>
</svg>
