<?xml version="1.0" encoding="UTF-8"?>
<svg color-interpolation="auto" color-rendering="auto" fill="black" font-family="'Dialog'" font-size="12px" image-rendering="auto" shape-rendering="auto" stroke="black" stroke-linecap="square" stroke-miterlimit="10" text-rendering="auto" version="1.1" viewBox="0 0 392 486" xmlns="http://www.w3.org/2000/svg" xmlns:cc="http://creativecommons.org/ns#" xmlns:dc="http://purl.org/dc/elements/1.1/" xmlns:rdf="http://www.w3.org/1999/02/22-rdf-syntax-ns#">
 <metadata>
  <rdf:RDF>
   <cc:Work rdf:about="">
    <dc:format>image/svg+xml</dc:format>
    <dc:type rdf:resource="http://purl.org/dc/dcmitype/StillImage"/>
    <dc:title/>
   </cc:Work>
  </rdf:RDF>
 </metadata>
 <!--Generated by ySVG 2.5-->
 <defs>
  <clipPath id="clipPath2">
   <path d="m91-4h392v486h-392v-486z"/>
  </clipPath>
 </defs>
 <g shape-rendering="geometricPrecision" text-rendering="geometricPrecision">
  <g transform="translate(-91 4)" fill="#136e9e" stroke="#136e9e">
   <rect x="106.5" y="11" width="140" height="48" clip-path="url(#clipPath2)" stroke="none"/>
  </g>
  <g transform="translate(-91 4)" fill="#fff" font-family="sans-serif" stroke-linecap="butt" stroke-miterlimit="1.45">
   <text x="110.4092" y="39.1543" clip-path="url(#clipPath2)" stroke="none" xml:space="preserve">check SSLcert validity</text>
   <rect x="106.5" y="11" width="140" height="48" clip-path="url(#clipPath2)" fill="none" stroke="#000"/>
   <rect x="276.5" y="59" width="140" height="48" clip-path="url(#clipPath2)" stroke="none" stroke-linecap="square" stroke-miterlimit="10"/>
   <text x="314.2236" y="87.1543" clip-path="url(#clipPath2)" fill="black" stroke="none" xml:space="preserve">renew cert</text>
   <rect x="276.5" y="59" width="140" height="48" clip-path="url(#clipPath2)" fill="none" stroke="#3384b5"/>
  </g>
  <g transform="translate(-91 4)" fill="#136e9e" stroke="#136e9e">
   <rect x="106.5" y="107" width="140" height="48" clip-path="url(#clipPath2)" stroke="none"/>
  </g>
  <g transform="translate(-91 4)" fill="#fff" font-family="sans-serif" stroke-linecap="butt" stroke-miterlimit="1.45">
   <text x="115.832" y="135.1543" clip-path="url(#clipPath2)" stroke="none" xml:space="preserve">initiate Docker build</text>
   <rect x="106.5" y="107" width="140" height="48" clip-path="url(#clipPath2)" fill="none" stroke="#000"/>
   <rect x="106.5" y="185" width="140" height="48" clip-path="url(#clipPath2)" stroke="none" stroke-linecap="square" stroke-miterlimit="10"/>
   <text x="131.7725" y="213.1543" clip-path="url(#clipPath2)" fill="black" stroke="none" xml:space="preserve">build unikernel</text>
   <rect x="106.5" y="185" width="140" height="48" clip-path="url(#clipPath2)" fill="none" stroke="#3384b5"/>
   <rect x="106.5" y="263" width="140" height="48" clip-path="url(#clipPath2)" stroke="none" stroke-linecap="square" stroke-miterlimit="10"/>
   <text x="122.7695" y="291.1543" clip-path="url(#clipPath2)" fill="black" stroke="none" xml:space="preserve">build Muen image</text>
   <rect x="106.5" y="263" width="140" height="48" clip-path="url(#clipPath2)" fill="none" stroke="#3384b5"/>
  </g>
  <g transform="translate(-91 4)" fill="#136e9e" stroke="#136e9e">
   <rect x="327.5" y="263" width="140" height="48" clip-path="url(#clipPath2)" stroke="none"/>
  </g>
  <g transform="translate(-91 4)" fill="#fff" font-family="sans-serif" stroke-linecap="butt" stroke-miterlimit="1.45">
   <text x="340.9014" y="291.1543" clip-path="url(#clipPath2)" stroke="none" xml:space="preserve">sign system image</text>
   <rect x="327.5" y="263" width="140" height="48" clip-path="url(#clipPath2)" fill="none" stroke="#000"/>
  </g>
  <g transform="translate(-91 4)" fill="#136e9e" stroke="#136e9e">
   <rect x="327.5" y="341" width="140" height="48" clip-path="url(#clipPath2)" stroke="none"/>
  </g>
  <g transform="translate(-91 4)" fill="#fff" font-family="sans-serif" stroke-linecap="butt" stroke-miterlimit="1.45">
   <text x="332.2354" y="369.1543" clip-path="url(#clipPath2)" stroke="none" xml:space="preserve">copy to deploy server</text>
   <rect x="327.5" y="341" width="140" height="48" clip-path="url(#clipPath2)" fill="none" stroke="#000"/>
  </g>
  <g transform="translate(-91 4)" fill="#136e9e" stroke="#136e9e">
   <rect x="327.5" y="419" width="140" height="48" clip-path="url(#clipPath2)" stroke="none"/>
  </g>
  <g transform="translate(-91 4)" fill="#fff" font-family="sans-serif" stroke-linecap="butt" stroke-miterlimit="1.45">
   <text x="336.4043" y="447.1543" clip-path="url(#clipPath2)" stroke="none" xml:space="preserve">trigger system reset</text>
   <rect x="327.5" y="419" width="140" height="48" clip-path="url(#clipPath2)" fill="none" stroke="#000"/>
   <path d="m246.5 35h100v16" clip-path="url(#clipPath2)" fill="none" stroke="#000"/>
   <path d="m346.5 59 5-12-5 3-5-3z" clip-path="url(#clipPath2)" fill="#000" stroke="none"/>
   <text x="267.1406" y="28.1699" clip-path="url(#clipPath2)" fill="gray" stroke="none" xml:space="preserve">expires soon</text>
   <path d="m346.5 107v24h-92" clip-path="url(#clipPath2)" fill="none" stroke="#000"/>
   <path d="m246.5 131 12 5-3-5 3-5z" clip-path="url(#clipPath2)" fill="#000" stroke="none"/>
   <path d="m176.5 59v40" clip-path="url(#clipPath2)" fill="none" stroke="#000"/>
   <path d="m176.5 107 5-12-5 3-5-3z" clip-path="url(#clipPath2)" fill="#000" stroke="none"/>
   <path d="m176.5 155v22" clip-path="url(#clipPath2)" fill="none" stroke="#000"/>
   <path d="m176.5 185 5-12-5 3-5-3z" clip-path="url(#clipPath2)" fill="#000" stroke="none"/>
   <text x="123.4043" y="174.1543" clip-path="url(#clipPath2)" fill="gray" stroke="none" xml:space="preserve">cert/key</text>
   <path d="m176.5 233v22" clip-path="url(#clipPath2)" fill="none" stroke="#000"/>
   <path d="m176.5 263 5-12-5 3-5-3z" clip-path="url(#clipPath2)" fill="#000" stroke="none"/>
   <text x="116.3672" y="252.1543" clip-path="url(#clipPath2)" fill="gray" stroke="none" xml:space="preserve">unikernel</text>
   <path d="m246.5 287h73" clip-path="url(#clipPath2)" fill="none" stroke="#000"/>
   <path d="m327.5 287-12-5 3 5-3 5z" clip-path="url(#clipPath2)" fill="#000" stroke="none"/>
   <text x="245.2129" y="321.1543" clip-path="url(#clipPath2)" fill="gray" stroke="none" xml:space="preserve">system image</text>
   <path d="m397.5 311v22" clip-path="url(#clipPath2)" fill="none" stroke="#000"/>
   <path d="m397.5 341 5-12-5 3-5-3z" clip-path="url(#clipPath2)" fill="#000" stroke="none"/>
   <path d="m397.5 389v22" clip-path="url(#clipPath2)" fill="none" stroke="#000"/>
   <path d="m397.5 419 5-12-5 3-5-3z" clip-path="url(#clipPath2)" fill="#000" stroke="none"/>
  </g>
 </g>
</svg>
