<?xml version="1.0" encoding="UTF-8"?><svg xmlns="http://www.w3.org/2000/svg" xmlns:xlink="http://www.w3.org/1999/xlink" fill-opacity="1" color-rendering="auto" color-interpolation="auto" text-rendering="auto" stroke="black" stroke-linecap="square" width="392" stroke-miterlimit="10" shape-rendering="auto" stroke-opacity="1" fill="black" stroke-dasharray="none" font-weight="normal" stroke-width="1" height="524" font-family="'Dialog'" font-style="normal" stroke-linejoin="miter" font-size="12px" stroke-dashoffset="0" image-rendering="auto">
  <!--Generated by ySVG 2.5-->
  <defs id="genericDefs"/>
  <g>
    <defs id="defs1">
      <clipPath clipPathUnits="userSpaceOnUse" id="clipPath1">
        <path d="M0 0 L392 0 L392 524 L0 524 L0 0 Z"/>
      </clipPath>
      <clipPath clipPathUnits="userSpaceOnUse" id="clipPath2">
        <path d="M91 -4 L483 -4 L483 520 L91 520 L91 -4 Z"/>
      </clipPath>
    </defs>
    <g fill="rgb(19,110,158)" text-rendering="geometricPrecision" shape-rendering="geometricPrecision" transform="matrix(1,0,0,1,-91,4)" stroke="rgb(19,110,158)">
      <rect x="106.5" width="140" height="48" y="11" clip-path="url(#clipPath2)" stroke="none"/>
    </g>
    <g stroke-linecap="butt" transform="matrix(1,0,0,1,-91,4)" fill="white" text-rendering="geometricPrecision" font-family="sans-serif" shape-rendering="geometricPrecision" stroke="white" stroke-miterlimit="1.45">
      <text x="110.4092" xml:space="preserve" y="39.1543" clip-path="url(#clipPath2)" stroke="none">check SSLcert validity</text>
      <rect x="106.5" y="11" clip-path="url(#clipPath2)" fill="none" width="140" height="48" stroke="black"/>
      <rect stroke-linecap="square" x="276.5" y="59" clip-path="url(#clipPath2)" width="140" height="48" stroke="none" stroke-miterlimit="10"/>
      <text fill="black" x="314.2236" xml:space="preserve" y="87.1543" clip-path="url(#clipPath2)" stroke="none">renew cert</text>
      <rect x="276.5" y="59" clip-path="url(#clipPath2)" fill="none" width="140" height="48" stroke="rgb(51,132,181)"/>
    </g>
    <g fill="rgb(19,110,158)" text-rendering="geometricPrecision" shape-rendering="geometricPrecision" transform="matrix(1,0,0,1,-91,4)" stroke="rgb(19,110,158)">
      <rect x="106.5" width="140" height="48" y="107" clip-path="url(#clipPath2)" stroke="none"/>
    </g>
    <g stroke-linecap="butt" transform="matrix(1,0,0,1,-91,4)" fill="white" text-rendering="geometricPrecision" font-family="sans-serif" shape-rendering="geometricPrecision" stroke="white" stroke-miterlimit="1.45">
      <text x="115.832" xml:space="preserve" y="135.1543" clip-path="url(#clipPath2)" stroke="none">initiate Docker build</text>
      <rect x="106.5" y="107" clip-path="url(#clipPath2)" fill="none" width="140" height="48" stroke="black"/>
      <rect stroke-linecap="square" x="106.5" y="177" clip-path="url(#clipPath2)" width="140" height="48" stroke="none" stroke-miterlimit="10"/>
      <text fill="black" x="111.7158" xml:space="preserve" y="205.1543" clip-path="url(#clipPath2)" stroke="none">build website content</text>
      <rect x="106.5" y="177" clip-path="url(#clipPath2)" fill="none" width="140" height="48" stroke="rgb(51,132,181)"/>
      <rect stroke-linecap="square" x="106.5" y="247" clip-path="url(#clipPath2)" width="140" height="48" stroke="none" stroke-miterlimit="10"/>
      <text fill="black" x="131.7725" xml:space="preserve" y="275.1543" clip-path="url(#clipPath2)" stroke="none">build unikernel</text>
      <rect x="106.5" y="247" clip-path="url(#clipPath2)" fill="none" width="140" height="48" stroke="rgb(51,132,181)"/>
      <rect stroke-linecap="square" x="106.5" y="317" clip-path="url(#clipPath2)" width="140" height="48" stroke="none" stroke-miterlimit="10"/>
      <text fill="black" x="122.7695" xml:space="preserve" y="345.1543" clip-path="url(#clipPath2)" stroke="none">build Muen image</text>
      <rect x="106.5" y="317" clip-path="url(#clipPath2)" fill="none" width="140" height="48" stroke="rgb(51,132,181)"/>
    </g>
    <g fill="rgb(19,110,158)" text-rendering="geometricPrecision" shape-rendering="geometricPrecision" transform="matrix(1,0,0,1,-91,4)" stroke="rgb(19,110,158)">
      <rect x="327.5" width="140" height="48" y="317" clip-path="url(#clipPath2)" stroke="none"/>
    </g>
    <g stroke-linecap="butt" transform="matrix(1,0,0,1,-91,4)" fill="white" text-rendering="geometricPrecision" font-family="sans-serif" shape-rendering="geometricPrecision" stroke="white" stroke-miterlimit="1.45">
      <text x="340.9014" xml:space="preserve" y="345.1543" clip-path="url(#clipPath2)" stroke="none">sign system image</text>
      <rect x="327.5" y="317" clip-path="url(#clipPath2)" fill="none" width="140" height="48" stroke="black"/>
    </g>
    <g fill="rgb(19,110,158)" text-rendering="geometricPrecision" shape-rendering="geometricPrecision" transform="matrix(1,0,0,1,-91,4)" stroke="rgb(19,110,158)">
      <rect x="327.5" width="140" height="48" y="387" clip-path="url(#clipPath2)" stroke="none"/>
    </g>
    <g stroke-linecap="butt" transform="matrix(1,0,0,1,-91,4)" fill="white" text-rendering="geometricPrecision" font-family="sans-serif" shape-rendering="geometricPrecision" stroke="white" stroke-miterlimit="1.45">
      <text x="332.2354" xml:space="preserve" y="415.1543" clip-path="url(#clipPath2)" stroke="none">copy to deploy server</text>
      <rect x="327.5" y="387" clip-path="url(#clipPath2)" fill="none" width="140" height="48" stroke="black"/>
    </g>
    <g fill="rgb(19,110,158)" text-rendering="geometricPrecision" shape-rendering="geometricPrecision" transform="matrix(1,0,0,1,-91,4)" stroke="rgb(19,110,158)">
      <rect x="327.5" width="140" height="48" y="457" clip-path="url(#clipPath2)" stroke="none"/>
    </g>
    <g stroke-linecap="butt" transform="matrix(1,0,0,1,-91,4)" fill="white" text-rendering="geometricPrecision" font-family="sans-serif" shape-rendering="geometricPrecision" stroke="white" stroke-miterlimit="1.45">
      <text x="336.4043" xml:space="preserve" y="485.1543" clip-path="url(#clipPath2)" stroke="none">trigger system reset</text>
      <rect x="327.5" y="457" clip-path="url(#clipPath2)" fill="none" width="140" height="48" stroke="black"/>
      <path fill="none" d="M246.5 35 L346.5 35 L346.5 51" clip-path="url(#clipPath2)" stroke="black"/>
      <path fill="black" d="M346.5 59 L351.5 47 L346.5 50 L341.5 47 Z" clip-path="url(#clipPath2)" stroke="none"/>
      <text fill="gray" x="267.1406" xml:space="preserve" y="29.1699" clip-path="url(#clipPath2)" stroke="none">expires soon</text>
      <path fill="none" d="M346.5 107 L346.5 131 L254.5 131" clip-path="url(#clipPath2)" stroke="black"/>
      <path fill="black" d="M246.5 131 L258.5 136 L255.5 131 L258.5 126 Z" clip-path="url(#clipPath2)" stroke="none"/>
      <path fill="none" d="M176.5 59 L176.5 99" clip-path="url(#clipPath2)" stroke="black"/>
      <path fill="black" d="M176.5 107 L181.5 95 L176.5 98 L171.5 95 Z" clip-path="url(#clipPath2)" stroke="none"/>
      <path fill="none" d="M176.5 155 L176.5 169" clip-path="url(#clipPath2)" stroke="black"/>
      <path fill="black" d="M176.5 177 L181.5 165 L176.5 168 L171.5 165 Z" clip-path="url(#clipPath2)" stroke="none"/>
      <path fill="none" d="M176.5 225 L176.5 239" clip-path="url(#clipPath2)" stroke="black"/>
      <path fill="black" d="M176.5 247 L181.5 235 L176.5 238 L171.5 235 Z" clip-path="url(#clipPath2)" stroke="none"/>
      <path fill="none" d="M176.5 225 L176.5 239" clip-path="url(#clipPath2)" stroke="black"/>
      <path fill="black" d="M176.5 247 L181.5 235 L176.5 238 L171.5 235 Z" clip-path="url(#clipPath2)" stroke="none"/>
      <path fill="none" d="M176.5 225 L176.5 239" clip-path="url(#clipPath2)" stroke="black"/>
      <path fill="black" d="M176.5 247 L181.5 235 L176.5 238 L171.5 235 Z" clip-path="url(#clipPath2)" stroke="none"/>
      <text fill="gray" x="124.8965" xml:space="preserve" y="240.6543" clip-path="url(#clipPath2)" stroke="none">artifact</text>
      <path fill="none" d="M176.5 295 L176.5 309" clip-path="url(#clipPath2)" stroke="black"/>
      <path fill="black" d="M176.5 317 L181.5 305 L176.5 308 L171.5 305 Z" clip-path="url(#clipPath2)" stroke="none"/>
      <text fill="gray" x="124.8965" xml:space="preserve" y="310.6543" clip-path="url(#clipPath2)" stroke="none">artifact</text>
      <path fill="none" d="M246.5 341 L319.5 341" clip-path="url(#clipPath2)" stroke="black"/>
      <path fill="black" d="M327.5 341 L315.5 336 L318.5 341 L315.5 346 Z" clip-path="url(#clipPath2)" stroke="none"/>
      <text fill="gray" x="245.2129" xml:space="preserve" y="375.1543" clip-path="url(#clipPath2)" stroke="none">system image</text>
      <path fill="none" d="M397.5 365 L397.5 379" clip-path="url(#clipPath2)" stroke="black"/>
      <path fill="black" d="M397.5 387 L402.5 375 L397.5 378 L392.5 375 Z" clip-path="url(#clipPath2)" stroke="none"/>
      <path fill="none" d="M397.5 435 L397.5 449" clip-path="url(#clipPath2)" stroke="black"/>
      <path fill="black" d="M397.5 457 L402.5 445 L397.5 448 L392.5 445 Z" clip-path="url(#clipPath2)" stroke="none"/>
    </g>
  </g>
</svg>
