<?xml version="1.0" encoding="UTF-8"?><svg xmlns="http://www.w3.org/2000/svg" xmlns:xlink="http://www.w3.org/1999/xlink" fill-opacity="1" color-rendering="auto" color-interpolation="auto" text-rendering="auto" stroke="black" stroke-linecap="square" width="428" stroke-miterlimit="10" shape-rendering="auto" stroke-opacity="1" fill="black" stroke-dasharray="none" font-weight="normal" stroke-width="1" height="397" font-family="'Dialog'" font-style="normal" stroke-linejoin="miter" font-size="12px" stroke-dashoffset="0" image-rendering="auto">
  <!--Generated by ySVG 2.5-->
  <defs id="genericDefs"/>
  <g>
    <defs id="defs1">
      <clipPath clipPathUnits="userSpaceOnUse" id="clipPath1">
        <path d="M0 0 L428 0 L428 397 L0 397 L0 0 Z"/>
      </clipPath>
      <clipPath clipPathUnits="userSpaceOnUse" id="clipPath2">
        <path d="M117 21 L545 21 L545 418 L117 418 L117 21 Z"/>
      </clipPath>
    </defs>
    <g fill="rgb(19,110,158)" text-rendering="geometricPrecision" shape-rendering="geometricPrecision" transform="matrix(1,0,0,1,-117,-21)" stroke="rgb(19,110,158)">
      <rect x="132" width="140" height="48" y="36" clip-path="url(#clipPath2)" stroke="none"/>
    </g>
    <g stroke-linecap="butt" transform="matrix(1,0,0,1,-117,-21)" fill="white" text-rendering="geometricPrecision" font-family="sans-serif" shape-rendering="geometricPrecision" stroke="white" stroke-miterlimit="1.45">
      <text x="157.6211" xml:space="preserve" y="64.1543" clip-path="url(#clipPath2)" stroke="none">hardware start</text>
      <rect x="132" y="36" clip-path="url(#clipPath2)" fill="none" width="140" height="48" stroke="black"/>
    </g>
    <g fill="rgb(19,110,158)" text-rendering="geometricPrecision" shape-rendering="geometricPrecision" transform="matrix(1,0,0,1,-117,-21)" stroke="rgb(19,110,158)">
      <rect x="132" width="140" height="48" y="114" clip-path="url(#clipPath2)" stroke="none"/>
    </g>
    <g stroke-linecap="butt" transform="matrix(1,0,0,1,-117,-21)" fill="white" text-rendering="geometricPrecision" font-family="sans-serif" shape-rendering="geometricPrecision" stroke="white" stroke-miterlimit="1.45">
      <text x="172.9316" xml:space="preserve" y="142.1543" clip-path="url(#clipPath2)" stroke="none">iPXE start</text>
      <rect x="132" y="114" clip-path="url(#clipPath2)" fill="none" width="140" height="48" stroke="black"/>
      <rect stroke-linecap="square" x="132" y="180" clip-path="url(#clipPath2)" width="140" height="48" stroke="none" stroke-miterlimit="10"/>
      <text fill="black" x="146.7314" xml:space="preserve" y="208.1543" clip-path="url(#clipPath2)" stroke="none">enable trust mode</text>
      <rect x="132" y="180" clip-path="url(#clipPath2)" fill="none" width="140" height="48" stroke="rgb(51,132,181)"/>
      <rect stroke-linecap="square" x="132" y="235" clip-path="url(#clipPath2)" width="140" height="48" stroke="none" stroke-miterlimit="10"/>
      <text fill="black" x="166.1465" xml:space="preserve" y="263.1543" clip-path="url(#clipPath2)" stroke="none">fetch image</text>
      <rect x="132" y="235" clip-path="url(#clipPath2)" fill="none" width="140" height="48" stroke="rgb(51,132,181)"/>
      <rect stroke-linecap="square" x="132" y="290" clip-path="url(#clipPath2)" width="140" height="48" stroke="none" stroke-miterlimit="10"/>
      <text fill="black" x="154.6592" xml:space="preserve" y="318.1543" clip-path="url(#clipPath2)" stroke="none">verify signature</text>
      <rect x="132" y="290" clip-path="url(#clipPath2)" fill="none" width="140" height="48" stroke="rgb(51,132,181)"/>
    </g>
    <g fill="rgb(19,110,158)" text-rendering="geometricPrecision" shape-rendering="geometricPrecision" transform="matrix(1,0,0,1,-117,-21)" stroke="rgb(19,110,158)">
      <rect x="132" width="140" height="48" y="355" clip-path="url(#clipPath2)" stroke="none"/>
    </g>
    <g stroke-linecap="butt" transform="matrix(1,0,0,1,-117,-21)" fill="white" text-rendering="geometricPrecision" font-family="sans-serif" shape-rendering="geometricPrecision" stroke="white" stroke-miterlimit="1.45">
      <text x="146.0459" xml:space="preserve" y="383.1543" clip-path="url(#clipPath2)" stroke="none">Muen system start</text>
      <rect x="132" y="355" clip-path="url(#clipPath2)" fill="none" width="140" height="48" stroke="black"/>
      <rect stroke-linecap="square" x="390" y="290" clip-path="url(#clipPath2)" width="140" height="48" stroke="none" stroke-miterlimit="10"/>
      <text fill="black" x="439.3545" xml:space="preserve" y="318.1543" clip-path="url(#clipPath2)" stroke="none">bailout</text>
      <rect x="390" y="290" clip-path="url(#clipPath2)" fill="none" width="140" height="48" stroke="rgb(51,132,181)"/>
      <path fill="none" d="M202 84 L202 106" clip-path="url(#clipPath2)" stroke="black"/>
      <path fill="black" d="M202 114 L207 102 L202 105 L197 102 Z" clip-path="url(#clipPath2)" stroke="none"/>
      <path fill="none" d="M202 162 L202 172" clip-path="url(#clipPath2)" stroke="black"/>
      <path fill="black" d="M202 180 L207 168 L202 171 L197 168 Z" clip-path="url(#clipPath2)" stroke="none"/>
      <path fill="none" d="M202 338 L202 347" clip-path="url(#clipPath2)" stroke="black"/>
      <path fill="black" d="M202 355 L207 343 L202 346 L197 343 Z" clip-path="url(#clipPath2)" stroke="none"/>
      <path fill="none" d="M272 314 L382 314" clip-path="url(#clipPath2)" stroke="black"/>
      <path fill="black" d="M390 314 L378 309 L381 314 L378 319 Z" clip-path="url(#clipPath2)" stroke="none"/>
      <text fill="red" x="280.8584" xml:space="preserve" y="333.1543" clip-path="url(#clipPath2)" stroke="none">signature invalid</text>
    </g>
  </g>
</svg>
