<?xml version="1.0" encoding="UTF-8" standalone="no"?>
<!-- Created with Inkscape (http://www.inkscape.org/) -->

<svg
   xmlns:dc="http://purl.org/dc/elements/1.1/"
   xmlns:cc="http://creativecommons.org/ns#"
   xmlns:rdf="http://www.w3.org/1999/02/22-rdf-syntax-ns#"
   xmlns:svg="http://www.w3.org/2000/svg"
   xmlns="http://www.w3.org/2000/svg"
   xmlns:xlink="http://www.w3.org/1999/xlink"
   xmlns:inkscape="http://www.inkscape.org/namespaces/inkscape"
   version="1.1"
   width="840pt"
   height="208pt"
   viewBox="0 0 840 208"
   id="svg2">
  <metadata
     id="metadata227">
    <rdf:RDF>
      <cc:Work
         rdf:about="">
        <dc:format>image/svg+xml</dc:format>
        <dc:type
           rdf:resource="http://purl.org/dc/dcmitype/StillImage" />
      </cc:Work>
    </rdf:RDF>
  </metadata>
  <defs
     id="defs225" />
  <g
     id="graph0"
     style="font-size:14px;font-family:Times-Roman">
    <title
       id="title5">uml</title>
    <polygon
       points="-1,-1 841,-1 841,209 -1,209 -1,209 "
       id="polygon7"
       style="fill:#ffffff;stroke:#ffffff" />
    <g
       id="node1">
      <title
         id="title10">6305932</title>
      <a
         xlink:href="platform%3A%2Fresource%2Fsk%2FNewModel.uml%23_h4CeL9doEeKVjp7WMrDZiQ"
         id="a12"
         xlink:title="initial_state_type">
        <polygon
           points="5,176 5,202 103,202 103,176 103,176 "
           id="polygon14"
           style="fill:#e0ffff;stroke:#a30036;stroke-dasharray:5, 2" />
        <text
           x="54"
           y="193"
           id="text16"
           style="font-size:11px;text-anchor:middle;font-family:Arial">initial_state_type</text>
      </a>
    </g>
    <g
       id="node2">
      <title
         id="title19">24976396</title>
      <a
         xlink:href="platform%3A%2Fresource%2Fsk%2FNewModel.uml%23_h3vjUddoEeKVjp7WMrDZiQ"
         id="a21"
         xlink:title="memory_layout_type">
        <polygon
           points="121,176 121,202 239,202 239,176 239,176 "
           id="polygon23"
           style="fill:#e0ffff;stroke:#a30036;stroke-dasharray:5, 2" />
        <text
           x="180"
           y="193"
           id="text25"
           style="font-size:11px;text-anchor:middle;font-family:Arial">memory_layout_type</text>
      </a>
    </g>
    <g
       id="node3">
      <title
         id="title28">30760775</title>
      <a
         xlink:href="platform%3A%2Fresource%2Fsk%2FNewModel.uml%23_h4CeQtdoEeKVjp7WMrDZiQ"
         id="a30"
         xlink:title="binary_reference_type">
        <polygon
           points="257,176 257,202 383,202 383,176 383,176 "
           id="polygon32"
           style="fill:#e0ffff;stroke:#a30036;stroke-dasharray:5, 2" />
        <text
           x="320"
           y="193"
           id="text34"
           style="font-size:11px;text-anchor:middle;font-family:Arial">binary_reference_type</text>
      </a>
    </g>
    <g
       id="node4">
      <title
         id="title37">14510232</title>
      <a
         xlink:href="platform%3A%2Fresource%2Fsk%2FNewModel.uml%23_h4CeUNdoEeKVjp7WMrDZiQ"
         id="a39"
         xlink:title="device_reference_type">
        <polygon
           points="401,176 401,202 529,202 529,176 529,176 "
           id="polygon41"
           style="fill:#e0ffff;stroke:#a30036;stroke-dasharray:5, 2" />
        <text
           x="465"
           y="193"
           id="text43"
           style="font-size:11px;text-anchor:middle;font-family:Arial">device_reference_type</text>
      </a>
    </g>
    <g
       id="node5">
      <title
         id="title46">25408035</title>
      <a
         xlink:href="platform%3A%2Fresource%2Fsk%2FNewModel.uml%23_h34tPtdoEeKVjp7WMrDZiQ"
         id="a48"
         xlink:title="trap_table_type">
        <polygon
           points="547,176 547,202 639,202 639,176 639,176 "
           id="polygon50"
           style="fill:#e0ffff;stroke:#a30036;stroke-dasharray:5, 2" />
        <text
           x="593"
           y="193"
           id="text52"
           style="font-size:11px;text-anchor:middle;font-family:Arial">trap_table_type</text>
      </a>
    </g>
    <g
       id="node6">
      <title
         id="title55">13170506</title>
      <a
         xlink:href="platform%3A%2Fresource%2Fsk%2FNewModel.uml%23_h34tcNdoEeKVjp7WMrDZiQ"
         id="a57"
         xlink:title="event_table_type">
        <polygon
           points="657,176 657,202 757,202 757,176 757,176 "
           id="polygon59"
           style="fill:#e0ffff;stroke:#a30036;stroke-dasharray:5, 2" />
        <text
           x="707"
           y="193"
           id="text61"
           style="font-size:11px;text-anchor:middle;font-family:Arial">event_table_type</text>
      </a>
    </g>
    <g
       id="node7">
      <title
         id="title64">3910146</title>
      <a
         xlink:href="platform%3A%2Fresource%2Fsk%2FNewModel.uml%23_h3vjJ9doEeKVjp7WMrDZiQ"
         id="a66"
         xlink:title="msr_type">
        <polygon
           points="775,176 775,202 835,202 835,176 835,176 "
           id="polygon68"
           style="fill:#e0ffff;stroke:#a30036;stroke-dasharray:5, 2" />
        <text
           x="805"
           y="193"
           id="text70"
           style="font-size:11px;text-anchor:middle;font-family:Arial">msr_type</text>
      </a>
    </g>
    <g
       id="node8">
      <title
         id="title73">22448772</title>
      <polygon
         points="344,5 586,5 586,115 344,115 344,115 "
         id="polygon75"
         style="fill:#ffffcc;stroke:#ffffcc" />
      <a
         xlink:href="platform%3A%2Fresource%2Fsk%2FNewModel.uml%23_h4CeLddoEeKVjp7WMrDZiQ"
         id="a77"
         xlink:title="subject_type">
        <text
           x="474"
           y="21"
           id="text84"
           style="font-size:13px;text-anchor:middle;font-family:Arial">subject_type</text>
        <polygon
           points="344,5 586,5 586,28 344,28 344,28 "
           id="polygon86"
           style="fill:none;stroke:#a30036" />
      </a>
      <a
         xlink:href="platform%3A%2Fresource%2Fsk%2FNewModel.uml%23_h4CeaNdoEeKVjp7WMrDZiQ"
         id="a88"
         xlink:title="id">
        <text
           x="432"
           y="39"
           id="text90"
           style="font-size:11px;text-anchor:middle;font-family:Arial">«attribute» id : nonNegativeInteger</text>
      </a>
      <a
         xlink:href="platform%3A%2Fresource%2Fsk%2FNewModel.uml%23_h4CebNdoEeKVjp7WMrDZiQ"
         id="a92"
         xlink:title="name">
        <text
           x="441"
           y="51"
           id="text94"
           style="font-size:11px;text-anchor:middle;font-family:Arial">«attribute» name : subject_name_type</text>
      </a>
      <a
         xlink:href="platform%3A%2Fresource%2Fsk%2FNewModel.uml%23_h4CecNdoEeKVjp7WMrDZiQ"
         id="a96"
         xlink:title="profile">
        <text
           x="444"
           y="63"
           id="text98"
           style="font-size:11px;text-anchor:middle;font-family:Arial">«attribute» profile : subject_profile_type</text>
      </a>
      <a
         xlink:href="platform%3A%2Fresource%2Fsk%2FNewModel.uml%23_h4CeeNdoEeKVjp7WMrDZiQ"
         id="a100"
         xlink:title="cpu">
        <text
           x="437"
           y="75"
           id="text102"
           style="font-size:11px;text-anchor:middle;font-family:Arial">«attribute» cpu : nonNegativeInteger</text>
      </a>
      <a
         xlink:href="platform%3A%2Fresource%2Fsk%2FNewModel.uml%23_h4CefNdoEeKVjp7WMrDZiQ"
         id="a104"
         xlink:title="pml4_address">
        <text
           x="448"
           y="87"
           id="text106"
           style="font-size:11px;text-anchor:middle;font-family:Arial">«attribute» pml4_address : address_type</text>
      </a>
      <a
         xlink:href="platform%3A%2Fresource%2Fsk%2FNewModel.uml%23_h4CegNdoEeKVjp7WMrDZiQ"
         id="a108"
         xlink:title="io_bitmap_address">
        <text
           x="460"
           y="99"
           id="text110"
           style="font-size:11px;text-anchor:middle;font-family:Arial">«attribute» io_bitmap_address : address_type</text>
      </a>
      <a
         xlink:href="platform%3A%2Fresource%2Fsk%2FNewModel.uml%23_h4CehNdoEeKVjp7WMrDZiQ"
         id="a112"
         xlink:title="msr_bitmap_address">
        <text
           x="465"
           y="111"
           id="text114"
           style="font-size:11px;text-anchor:middle;font-family:Arial">«attribute» msr_bitmap_address : address_type</text>
      </a>
      <polygon
         points="344,28 586,28 586,115 344,115 344,115 "
         id="polygon116"
         style="fill:none;stroke:#a30036" />
    </g>
    <g
       id="edge2">
      <title
         id="title119">22448772-&gt;6305932</title>
      <a
         xlink:href="platform%3A%2Fresource%2Fsk%2FNewModel.uml%23_h4CeLtdoEeKVjp7WMrDZiQ"
         id="a121"
         xlink:title="initial_state\n1..1">
        <path
           d="m 332,91 c -46,12 -98,26 -144,42 -33,12 -69,26 -96,38"
           inkscape:connector-curvature="0"
           id="path123"
           style="fill:none;stroke:#a30036" />
        <polygon
           points="339,93 344,88 337,86 332,91 332,91 "
           id="polygon125"
           style="fill:#a30036;stroke:#a30036" />
        <polygon
           points="94,175 86,174 92,171 86,174 90,167 83,175 83,175 83,175 "
           id="polygon127"
           style="fill:#a30036;stroke:#a30036" />
        <text
           x="223"
           y="142"
           id="text129"
           style="font-size:10px;text-anchor:middle;font-family:Arial">initial_state</text>
        <text
           x="223"
           y="154"
           id="text131"
           style="font-size:10px;text-anchor:middle;font-family:Arial">1..1</text>
      </a>
    </g>
    <g
       id="edge4">
      <title
         id="title134">22448772-&gt;24976396</title>
      <a
         xlink:href="platform%3A%2Fresource%2Fsk%2FNewModel.uml%23_h4CePNdoEeKVjp7WMrDZiQ"
         id="a136"
         xlink:title="memory_layout\n1..1">
        <path
           d="m 333,113 c -16,6 -32,13 -47,20 -24,12 -52,27 -72,37"
           inkscape:connector-curvature="0"
           id="path138"
           style="fill:none;stroke:#a30036" />
        <polygon
           points="340,114 344,108 337,107 333,113 333,113 "
           id="polygon140"
           style="fill:#a30036;stroke:#a30036" />
        <polygon
           points="216,174 208,174 214,170 208,174 212,166 205,175 205,175 205,175 "
           id="polygon142"
           style="fill:#a30036;stroke:#a30036" />
        <text
           x="327"
           y="142"
           id="text144"
           style="font-size:10px;text-anchor:middle;font-family:Arial">memory_layout</text>
        <text
           x="327"
           y="154"
           id="text146"
           style="font-size:10px;text-anchor:middle;font-family:Arial">1..1</text>
      </a>
    </g>
    <g
       id="edge6">
      <title
         id="title149">22448772-&gt;30760775</title>
      <a
         xlink:href="platform%3A%2Fresource%2Fsk%2FNewModel.uml%23_h4CeQddoEeKVjp7WMrDZiQ"
         id="a151"
         xlink:title="binary\n1..1">
        <path
           d="m 394,123 c -18,17 -37,33 -51,45"
           inkscape:connector-curvature="0"
           id="path153"
           style="fill:none;stroke:#a30036" />
        <polygon
           points="401,122 403,115 396,116 394,123 394,123 "
           id="polygon155"
           style="fill:#a30036;stroke:#a30036" />
        <polygon
           points="345,172 337,173 343,168 337,173 340,165 335,175 335,175 335,175 "
           id="polygon157"
           style="fill:#a30036;stroke:#a30036" />
        <text
           x="398"
           y="142"
           id="text159"
           style="font-size:10px;text-anchor:middle;font-family:Arial">binary</text>
        <text
           x="398"
           y="154"
           id="text161"
           style="font-size:10px;text-anchor:middle;font-family:Arial">1..1</text>
      </a>
    </g>
    <g
       id="edge8">
      <title
         id="title164">22448772-&gt;14510232</title>
      <a
         xlink:href="platform%3A%2Fresource%2Fsk%2FNewModel.uml%23_h4CeT9doEeKVjp7WMrDZiQ"
         id="a166"
         xlink:title="device\n0..*">
        <path
           d="m 465,127 c 0,13 0,27 0,38"
           inkscape:connector-curvature="0"
           id="path168"
           style="fill:none;stroke:#a30036" />
        <polygon
           points="469,121 465,115 461,121 465,127 465,127 "
           id="polygon170"
           style="fill:#a30036;stroke:#a30036" />
        <polygon
           points="470,165 465,172 465,165 465,172 461,165 465,175 465,175 465,175 "
           id="polygon172"
           style="fill:#a30036;stroke:#a30036" />
        <text
           x="480"
           y="142"
           id="text174"
           style="font-size:10px;text-anchor:middle;font-family:Arial">device</text>
        <text
           x="480"
           y="154"
           id="text176"
           style="font-size:10px;text-anchor:middle;font-family:Arial">0..*</text>
      </a>
    </g>
    <g
       id="edge10">
      <title
         id="title179">22448772-&gt;25408035</title>
      <a
         xlink:href="platform%3A%2Fresource%2Fsk%2FNewModel.uml%23_h4CeWddoEeKVjp7WMrDZiQ"
         id="a181"
         xlink:title="trap_table\n0..1">
        <path
           d="m 529,124 c 16,16 31,32 43,44"
           inkscape:connector-curvature="0"
           id="path183"
           style="fill:none;stroke:#a30036" />
        <polygon
           points="527,116 520,115 521,122 528,123 528,123 "
           id="polygon185"
           style="fill:#a30036;stroke:#a30036" />
        <polygon
           points="575,165 577,173 572,168 577,173 569,171 579,175 579,175 579,175 "
           id="polygon187"
           style="fill:#a30036;stroke:#a30036" />
        <text
           x="581"
           y="142"
           id="text189"
           style="font-size:10px;text-anchor:middle;font-family:Arial">trap_table</text>
        <text
           x="581"
           y="154"
           id="text191"
           style="font-size:10px;text-anchor:middle;font-family:Arial">0..1</text>
      </a>
    </g>
    <g
       id="edge12">
      <title
         id="title194">22448772-&gt;13170506</title>
      <a
         xlink:href="platform%3A%2Fresource%2Fsk%2FNewModel.uml%23_h4CeXtdoEeKVjp7WMrDZiQ"
         id="a196"
         xlink:title="event_table\n0..1">
        <path
           d="m 584,120 c 8,5 16,9 24,13 22,12 47,26 66,37"
           inkscape:connector-curvature="0"
           id="path198"
           style="fill:none;stroke:#a30036" />
        <polygon
           points="580,114 573,115 577,121 584,120 584,120 "
           id="polygon200"
           style="fill:#a30036;stroke:#a30036" />
        <polygon
           points="676,166 680,174 674,170 680,174 672,174 683,175 683,175 683,175 "
           id="polygon202"
           style="fill:#a30036;stroke:#a30036" />
        <text
           x="674"
           y="142"
           id="text204"
           style="font-size:10px;text-anchor:middle;font-family:Arial">event_table</text>
        <text
           x="674"
           y="154"
           id="text206"
           style="font-size:10px;text-anchor:middle;font-family:Arial">0..1</text>
      </a>
    </g>
    <g
       id="edge14">
      <title
         id="title209">22448772-&gt;3910146</title>
      <a
         xlink:href="platform%3A%2Fresource%2Fsk%2FNewModel.uml%23_h4CeY9doEeKVjp7WMrDZiQ"
         id="a211"
         xlink:title="msr\n0..*">
        <path
           d="m 598,95 c 35,11 73,24 107,38 24,10 51,25 70,37"
           inkscape:connector-curvature="0"
           id="path213"
           style="fill:none;stroke:#a30036" />
        <polygon
           points="593,90 586,92 591,97 598,95 598,95 "
           id="polygon215"
           style="fill:#a30036;stroke:#a30036" />
        <polygon
           points="777,166 781,174 775,170 781,174 773,174 784,175 784,175 784,175 "
           id="polygon217"
           style="fill:#a30036;stroke:#a30036" />
        <text
           x="756"
           y="142"
           id="text219"
           style="font-size:10px;text-anchor:middle;font-family:Arial">msr</text>
        <text
           x="756"
           y="154"
           id="text221"
           style="font-size:10px;text-anchor:middle;font-family:Arial">0..*</text>
      </a>
    </g>
  </g>
</svg>
