<?xml version="1.0" encoding="UTF-8" standalone="no"?><!DOCTYPE svg PUBLIC "-//W3C//DTD SVG 1.0//EN" "http://www.w3.org/TR/2001/REC-SVG-20010904/DTD/svg10.dtd" [ <!ATTLIST svg xmlns:xlink CDATA #FIXED "http://www.w3.org/1999/xlink">]><!-- Generated by dot version 2.7.20051103.0540 (Thu Nov  3 05:48:38 UTC 2005)     For user: Bill Gates --><!-- Title: uml Pages: 1 --><svg width="228pt" height="60pt" viewBox = "0 0 228 60" xmlns="http://www.w3.org/2000/svg" xmlns:xlink="http://www.w3.org/1999/xlink"><g id="graph0" class="graph" style="font-family:Times-Roman;font-size:14.00;"><title>uml</title><polygon style="fill:white;stroke:white;" points="-1,61 -1,-1 229,-1 229,61 -1,61"/><!-- 7275888 --><g id="node1" class="node"><title>7275888</title><polygon style="fill:#ffffcc;stroke:#ffffcc;" points="5,55 5,5 223,5 223,55 5,55"/><a xlink:href="platform%3A%2Fresource%2Fsk%2FNewModel.uml%23_h4Cd&#45;9doEeKVjp7WMrDZiQ" xlink:title="minor_frame_type"><clipPath id="mypathfile:/C:/Users/reet/Desktop/hyperModelCIMI/eclipse/configuration/org.eclipse.osgi/bundles/515/1/.cp/icons/full/obj16/Class.gif7275888"><polygon points="22,8 6,8 6,25 22,25 22,8 "/></clipPath><image xlink:href="file:/C:/Users/reet/Desktop/hyperModelCIMI/eclipse/configuration/org.eclipse.osgi/bundles/515/1/.cp/icons/full/obj16/Class.gif" width="16px" height="17px" preserveAspectRatio="xMidYMid meet" x="6" y="8" clip-path="url(#mypathfile:/C:/Users/reet/Desktop/hyperModelCIMI/eclipse/configuration/org.eclipse.osgi/bundles/515/1/.cp/icons/full/obj16/Class.gif7275888)"/><text text-anchor="middle" x="123" y="21" style="font-family:Arial;font-size:13.00;">minor_frame_type</text><polygon style="fill:none;stroke:#a30036;" points="5,28 5,5 223,5 223,28 5,28"/></a><a xlink:href="platform%3A%2Fresource%2Fsk%2FNewModel.uml%23_h4Cd_NdoEeKVjp7WMrDZiQ" xlink:title="subject_id"><text text-anchor="middle" x="114" y="39" style="font-family:Arial;font-size:11.00;">«attribute» subject_id : nonNegativeInteger</text></a><a xlink:href="platform%3A%2Fresource%2Fsk%2FNewModel.uml%23_h4CeANdoEeKVjp7WMrDZiQ" xlink:title="ticks"><text text-anchor="middle" x="87" y="51" style="font-family:Arial;font-size:11.00;">«attribute» ticks : positiveInteger</text></a><polygon style="fill:none;stroke:#a30036;" points="5,55 5,28 223,28 223,55 5,55"/></g></g></svg>