<?xml version="1.0" encoding="UTF-8" standalone="no"?>
<!-- Created with Inkscape (http://www.inkscape.org/) -->

<svg
   xmlns:dc="http://purl.org/dc/elements/1.1/"
   xmlns:cc="http://creativecommons.org/ns#"
   xmlns:rdf="http://www.w3.org/1999/02/22-rdf-syntax-ns#"
   xmlns:svg="http://www.w3.org/2000/svg"
   xmlns="http://www.w3.org/2000/svg"
   xmlns:xlink="http://www.w3.org/1999/xlink"
   xmlns:inkscape="http://www.inkscape.org/namespaces/inkscape"
   version="1.1"
   width="266pt"
   height="150pt"
   viewBox="0 0 266 150"
   id="svg2">
  <metadata
     id="metadata83">
    <rdf:RDF>
      <cc:Work
         rdf:about="">
        <dc:format>image/svg+xml</dc:format>
        <dc:type
           rdf:resource="http://purl.org/dc/dcmitype/StillImage" />
      </cc:Work>
    </rdf:RDF>
  </metadata>
  <defs
     id="defs81" />
  <g
     id="graph0"
     style="font-size:14px;font-family:Times-Roman">
    <title
       id="title5">uml</title>
    <polygon
       points="-1,-1 267,-1 267,151 -1,151 -1,151 "
       id="polygon7"
       style="fill:#ffffff;stroke:#ffffff" />
    <g
       id="node1">
      <title
         id="title10">19040352</title>
      <a
         xlink:href="platform%3A%2Fresource%2Fsk%2FNewModel.uml%23_h34tUNdoEeKVjp7WMrDZiQ"
         id="a12"
         xlink:title="event_handover_type">
        <polygon
           points="5,118 5,144 127,144 127,118 127,118 "
           id="polygon14"
           style="fill:#e0ffff;stroke:#a30036;stroke-dasharray:5, 2" />
        <text
           x="66"
           y="135"
           id="text16"
           style="font-size:11px;text-anchor:middle;font-family:Arial">event_handover_type</text>
      </a>
    </g>
    <g
       id="node2">
      <title
         id="title19">14123997</title>
      <a
         xlink:href="platform%3A%2Fresource%2Fsk%2FNewModel.uml%23_h34tXtdoEeKVjp7WMrDZiQ"
         id="a21"
         xlink:title="event_interrupt_type">
        <polygon
           points="145,118 145,144 261,144 261,118 261,118 "
           id="polygon23"
           style="fill:#e0ffff;stroke:#a30036;stroke-dasharray:5, 2" />
        <text
           x="203"
           y="135"
           id="text25"
           style="font-size:11px;text-anchor:middle;font-family:Arial">event_interrupt_type</text>
      </a>
    </g>
    <g
       id="node3">
      <title
         id="title28">13170506</title>
      <polygon
         points="71,5 197,5 197,57 71,57 71,57 "
         id="polygon30"
         style="fill:#ffffcc;stroke:#ffffcc" />
      <a
         xlink:href="platform%3A%2Fresource%2Fsk%2FNewModel.uml%23_h34tcNdoEeKVjp7WMrDZiQ"
         id="a32"
         xlink:title="event_table_type">
        <text
           x="134"
           y="17"
           id="text34"
           style="font-size:11px;text-anchor:middle;font-family:Arial">«complexType, choice»</text>
        <text
           x="143"
           y="35"
           id="text41"
           style="font-size:13px;text-anchor:middle;font-family:Arial">event_table_type</text>
        <polygon
           points="71,5 197,5 197,42 71,42 71,42 "
           id="polygon43"
           style="fill:none;stroke:#a30036" />
      </a>
      <text
         x="134"
         y="53"
         id="text45"
         style="font-size:11px;text-anchor:middle;font-family:Arial" />
      <polygon
         points="71,42 197,42 197,57 71,57 71,57 "
         id="polygon47"
         style="fill:none;stroke:#a30036" />
    </g>
    <g
       id="edge2">
      <title
         id="title50">13170506-&gt;19040352</title>
      <a
         xlink:href="platform%3A%2Fresource%2Fsk%2FNewModel.uml%23_h34tctdoEeKVjp7WMrDZiQ"
         id="a52"
         xlink:title="handover\n1..1">
        <path
           d="M 109,67 C 100,81 89,97 81,109"
           inkscape:connector-curvature="0"
           id="path54"
           style="fill:none;stroke:#a30036" />
        <polygon
           points="116,64 116,57 109,60 109,67 109,67 "
           id="polygon56"
           style="fill:#a30036;stroke:#a30036" />
        <polygon
           points="85,112 77,115 81,109 77,115 77,106 75,117 75,117 75,117 "
           id="polygon58"
           style="fill:#a30036;stroke:#a30036" />
        <text
           x="127"
           y="84"
           id="text60"
           style="font-size:10px;text-anchor:middle;font-family:Arial">handover</text>
        <text
           x="127"
           y="96"
           id="text62"
           style="font-size:10px;text-anchor:middle;font-family:Arial">1..1</text>
      </a>
    </g>
    <g
       id="edge4">
      <title
         id="title65">13170506-&gt;14123997</title>
      <a
         xlink:href="platform%3A%2Fresource%2Fsk%2FNewModel.uml%23_h34td9doEeKVjp7WMrDZiQ"
         id="a67"
         xlink:title="interrupt\n1..1">
        <path
           d="m 159,67 c 10,14 21,30 29,42"
           inkscape:connector-curvature="0"
           id="path69"
           style="fill:none;stroke:#a30036" />
        <polygon
           points="159,60 152,57 152,64 159,67 159,67 "
           id="polygon71"
           style="fill:#a30036;stroke:#a30036" />
        <polygon
           points="192,106 192,115 188,109 192,115 184,112 194,117 194,117 194,117 "
           id="polygon73"
           style="fill:#a30036;stroke:#a30036" />
        <text
           x="196"
           y="84"
           id="text75"
           style="font-size:10px;text-anchor:middle;font-family:Arial">interrupt</text>
        <text
           x="196"
           y="96"
           id="text77"
           style="font-size:10px;text-anchor:middle;font-family:Arial">1..1</text>
      </a>
    </g>
  </g>
</svg>
