<?xml version="1.0" encoding="UTF-8" standalone="no"?><!DOCTYPE svg PUBLIC "-//W3C//DTD SVG 1.0//EN" "http://www.w3.org/TR/2001/REC-SVG-20010904/DTD/svg10.dtd" [ <!ATTLIST svg xmlns:xlink CDATA #FIXED "http://www.w3.org/1999/xlink">]><!-- Generated by dot version 2.7.20051103.0540 (Thu Nov  3 05:48:38 UTC 2005)     For user: Bill Gates --><!-- Title: uml Pages: 1 --><svg width="172pt" height="124pt" viewBox = "0 0 172 124" xmlns="http://www.w3.org/2000/svg" xmlns:xlink="http://www.w3.org/1999/xlink"><g id="graph0" class="graph" style="font-family:Times-Roman;font-size:14.00;"><title>uml</title><polygon style="fill:white;stroke:white;" points="-1,125 -1,-1 173,-1 173,125 -1,125"/><!-- 9372006 --><g id="node1" class="node"><title>9372006</title><a xlink:href="pathmap%3A%2F%2FXMLmodeling_LIBRARIES%2FXSDDataTypes.library.uml%23_3RzJWUtXEdqhPYJq3sEkGA" xlink:title="string"><polygon style="fill:#e0ffff;stroke:#a30036;stroke-dasharray:5,2;" points="107,6 65,6 65,32 107,32 107,6"/><text text-anchor="middle" x="86" y="23" style="font-family:Arial;font-size:11.00;">string</text></a></g><!-- 30408575 --><g id="node2" class="node"><title>30408575</title><polygon style="fill:#ffffcc;stroke:#ffffcc;" points="5,119 5,69 167,69 167,119 5,119"/><a xlink:href="platform%3A%2Fresource%2Fsk%2FNewModel.uml%23_h34tMNdoEeKVjp7WMrDZiQ" xlink:title="subject_name_type"><clipPath id="mypathfile:/C:/Users/reet/Desktop/hyperModelCIMI/eclipse/configuration/org.eclipse.osgi/bundles/515/1/.cp/icons/full/obj16/DataType.gif30408575"><polygon points="22,72 6,72 6,89 22,89 22,72 "/></clipPath><image xlink:href="file:/C:/Users/reet/Desktop/hyperModelCIMI/eclipse/configuration/org.eclipse.osgi/bundles/515/1/.cp/icons/full/obj16/DataType.gif" width="16px" height="17px" preserveAspectRatio="xMidYMid meet" x="6" y="72" clip-path="url(#mypathfile:/C:/Users/reet/Desktop/hyperModelCIMI/eclipse/configuration/org.eclipse.osgi/bundles/515/1/.cp/icons/full/obj16/DataType.gif30408575)"/><text text-anchor="middle" x="95" y="85" style="font-family:Arial;font-size:13.00;">subject_name_type</text><polygon style="fill:none;stroke:#a30036;" points="5,92 5,69 167,69 167,92 5,92"/></a><a xlink:href="platform%3A%2Fresource%2Fsk%2FNewModel.uml%23_h34tMddoEeKVjp7WMrDZiQ" xlink:title="minLength"><text text-anchor="middle" x="81" y="103" style="font-family:Arial;font-size:11.00;">«facet» minLength : string = 1</text></a><a xlink:href="platform%3A%2Fresource%2Fsk%2FNewModel.uml%23_h34tNNdoEeKVjp7WMrDZiQ" xlink:title="maxLength"><text text-anchor="middle" x="86" y="115" style="font-family:Arial;font-size:11.00;">«facet» maxLength : string = 16</text></a><polygon style="fill:none;stroke:#a30036;" points="5,119 5,92 167,92 167,119 5,119"/></g><!-- 9372006&#45;&gt;30408575 --><g id="edge2" class="edge"><title>9372006&#45;&gt;30408575</title><path style="fill:none;stroke:#000080;" d="M86,48C86,55 86,62 86,69"/><polygon style="fill:none;stroke:#000080;" points="81,48 86,33 91,48 81,48"/></g></g></svg>