<?xml version="1.0" encoding="UTF-8" standalone="no"?><!DOCTYPE svg PUBLIC "-//W3C//DTD SVG 1.0//EN" "http://www.w3.org/TR/2001/REC-SVG-20010904/DTD/svg10.dtd" [ <!ATTLIST svg xmlns:xlink CDATA #FIXED "http://www.w3.org/1999/xlink">]><!-- Generated by dot version 2.7.20051103.0540 (Thu Nov  3 05:48:38 UTC 2005)     For user: Bill Gates --><!-- Title: uml Pages: 1 --><svg width="220pt" height="60pt" viewBox = "0 0 220 60" xmlns="http://www.w3.org/2000/svg" xmlns:xlink="http://www.w3.org/1999/xlink"><g id="graph0" class="graph" style="font-family:Times-Roman;font-size:14.00;"><title>uml</title><polygon style="fill:white;stroke:white;" points="-1,61 -1,-1 221,-1 221,61 -1,61"/><!-- 6305932 --><g id="node1" class="node"><title>6305932</title><polygon style="fill:#ffffcc;stroke:#ffffcc;" points="5,55 5,5 215,5 215,55 5,55"/><a xlink:href="platform%3A%2Fresource%2Fsk%2FNewModel.uml%23_h4CeL9doEeKVjp7WMrDZiQ" xlink:title="initial_state_type"><clipPath id="mypathfile:/C:/Users/reet/Desktop/hyperModelCIMI/eclipse/configuration/org.eclipse.osgi/bundles/515/1/.cp/icons/full/obj16/Class.gif6305932"><polygon points="22,8 6,8 6,25 22,25 22,8 "/></clipPath><image xlink:href="file:/C:/Users/reet/Desktop/hyperModelCIMI/eclipse/configuration/org.eclipse.osgi/bundles/515/1/.cp/icons/full/obj16/Class.gif" width="16px" height="17px" preserveAspectRatio="xMidYMid meet" x="6" y="8" clip-path="url(#mypathfile:/C:/Users/reet/Desktop/hyperModelCIMI/eclipse/configuration/org.eclipse.osgi/bundles/515/1/.cp/icons/full/obj16/Class.gif6305932)"/><text text-anchor="middle" x="118" y="21" style="font-family:Arial;font-size:13.00;">initial_state_type</text><polygon style="fill:none;stroke:#a30036;" points="5,28 5,5 215,5 215,28 5,28"/></a><a xlink:href="platform%3A%2Fresource%2Fsk%2FNewModel.uml%23_h4CeMNdoEeKVjp7WMrDZiQ" xlink:title="stack_address"><text text-anchor="middle" x="110" y="39" style="font-family:Arial;font-size:11.00;">«attribute» stack_address : address_type</text></a><a xlink:href="platform%3A%2Fresource%2Fsk%2FNewModel.uml%23_h4CeNNdoEeKVjp7WMrDZiQ" xlink:title="entry_point"><text text-anchor="middle" x="101" y="51" style="font-family:Arial;font-size:11.00;">«attribute» entry_point : address_type</text></a><polygon style="fill:none;stroke:#a30036;" points="5,55 5,28 215,28 215,55 5,55"/></g></g></svg>