<?xml version="1.0" encoding="UTF-8" standalone="no"?><!DOCTYPE svg PUBLIC "-//W3C//DTD SVG 1.0//EN" "http://www.w3.org/TR/2001/REC-SVG-20010904/DTD/svg10.dtd" [ <!ATTLIST svg xmlns:xlink CDATA #FIXED "http://www.w3.org/1999/xlink">]><!-- Generated by dot version 2.7.20051103.0540 (Thu Nov  3 05:48:38 UTC 2005)     For user: Bill Gates --><!-- Title: uml Pages: 1 --><svg width="114pt" height="136pt" viewBox = "0 0 114 136" xmlns="http://www.w3.org/2000/svg" xmlns:xlink="http://www.w3.org/1999/xlink"><g id="graph0" class="graph" style="font-family:Times-Roman;font-size:14.00;"><title>uml</title><polygon style="fill:white;stroke:white;" points="-1,137 -1,-1 115,-1 115,137 -1,137"/><!-- 26492903 --><g id="node1" class="node"><title>26492903</title><a xlink:href="platform%3A%2Fresource%2Fsk%2FNewModel.uml%23_h4Cd6tdoEeKVjp7WMrDZiQ" xlink:title="binary_type"><polygon style="fill:#e0ffff;stroke:#a30036;stroke-dasharray:5,2;" points="93,104 21,104 21,130 93,130 93,104"/><text text-anchor="middle" x="57" y="121" style="font-family:Arial;font-size:11.00;">binary_type</text></a></g><!-- 33541655 --><g id="node2" class="node"><title>33541655</title><polygon style="fill:#ffffcc;stroke:#ffffcc;" points="5,43 5,5 109,5 109,43 5,43"/><a xlink:href="platform%3A%2Fresource%2Fsk%2FNewModel.uml%23_h4Cd89doEeKVjp7WMrDZiQ" xlink:title="binaries_type"><clipPath id="mypathfile:/C:/Users/reet/Desktop/hyperModelCIMI/eclipse/configuration/org.eclipse.osgi/bundles/515/1/.cp/icons/full/obj16/Class.gif33541655"><polygon points="22,8 6,8 6,25 22,25 22,8 "/></clipPath><image xlink:href="file:/C:/Users/reet/Desktop/hyperModelCIMI/eclipse/configuration/org.eclipse.osgi/bundles/515/1/.cp/icons/full/obj16/Class.gif" width="16px" height="17px" preserveAspectRatio="xMidYMid meet" x="6" y="8" clip-path="url(#mypathfile:/C:/Users/reet/Desktop/hyperModelCIMI/eclipse/configuration/org.eclipse.osgi/bundles/515/1/.cp/icons/full/obj16/Class.gif33541655)"/><text text-anchor="middle" x="65" y="21" style="font-family:Arial;font-size:13.00;">binaries_type</text><polygon style="fill:none;stroke:#a30036;" points="5,28 5,5 109,5 109,28 5,28"/></a><text text-anchor="middle" x="57" y="39" style="font-family:Arial;font-size:11.00;"> </text><polygon style="fill:none;stroke:#a30036;" points="5,43 5,28 109,28 109,43 5,43"/></g><!-- 33541655&#45;&gt;26492903 --><g id="edge2" class="edge"><title>33541655&#45;&gt;26492903</title><a xlink:href="platform%3A%2Fresource%2Fsk%2FNewModel.uml%23_h4Cd9NdoEeKVjp7WMrDZiQ" xlink:title="binary\n1..*"><path style="fill:none;stroke:#a30036;" d="M57,55C57,68 57,82 57,93"/><polygon style="fill:#a30036;stroke:#a30036;" points="57,55 61,49 57,43 53,49 57,55"/><polygon style="fill:#a30036;stroke:#a30036;" points="57,103 62,93 57,100 57,93 57,100 53,93 57,103 57,103"/><text text-anchor="middle" x="71" y="70" style="font-family:Arial;font-size:10.00;">binary</text><text text-anchor="middle" x="71" y="82" style="font-family:Arial;font-size:10.00;">1..*</text></a></g></g></svg>