<?xml version="1.0" encoding="UTF-8" standalone="no"?><!DOCTYPE svg PUBLIC "-//W3C//DTD SVG 1.0//EN" "http://www.w3.org/TR/2001/REC-SVG-20010904/DTD/svg10.dtd" [ <!ATTLIST svg xmlns:xlink CDATA #FIXED "http://www.w3.org/1999/xlink">]><!-- Generated by dot version 2.7.20051103.0540 (Thu Nov  3 05:48:38 UTC 2005)     For user: Bill Gates --><!-- Title: uml Pages: 1 --><svg width="234pt" height="72pt" viewBox = "0 0 234 72" xmlns="http://www.w3.org/2000/svg" xmlns:xlink="http://www.w3.org/1999/xlink"><g id="graph0" class="graph" style="font-family:Times-Roman;font-size:14.00;"><title>uml</title><polygon style="fill:white;stroke:white;" points="-1,73 -1,-1 235,-1 235,73 -1,73"/><!-- 11971069 --><g id="node1" class="node"><title>11971069</title><polygon style="fill:#ffffcc;stroke:#ffffcc;" points="5,67 5,5 229,5 229,67 5,67"/><a xlink:href="platform%3A%2Fresource%2Fsk%2FNewModel.uml%23_h34tJ9doEeKVjp7WMrDZiQ" xlink:title="entry_type"><clipPath id="mypathfile:/C:/Users/reet/Desktop/hyperModelCIMI/eclipse/configuration/org.eclipse.osgi/bundles/515/1/.cp/icons/full/obj16/Class.gif11971069"><polygon points="22,8 6,8 6,25 22,25 22,8 "/></clipPath><image xlink:href="file:/C:/Users/reet/Desktop/hyperModelCIMI/eclipse/configuration/org.eclipse.osgi/bundles/515/1/.cp/icons/full/obj16/Class.gif" width="16px" height="17px" preserveAspectRatio="xMidYMid meet" x="6" y="8" clip-path="url(#mypathfile:/C:/Users/reet/Desktop/hyperModelCIMI/eclipse/configuration/org.eclipse.osgi/bundles/515/1/.cp/icons/full/obj16/Class.gif11971069)"/><text text-anchor="middle" x="126" y="21" style="font-family:Arial;font-size:13.00;">entry_type</text><polygon style="fill:none;stroke:#a30036;" points="5,28 5,5 229,5 229,28 5,28"/></a><a xlink:href="platform%3A%2Fresource%2Fsk%2FNewModel.uml%23_h34tKNdoEeKVjp7WMrDZiQ" xlink:title="kind"><text text-anchor="middle" x="87" y="39" style="font-family:Arial;font-size:11.00;">«attribute» kind : trap_kind_type</text></a><a xlink:href="platform%3A%2Fresource%2Fsk%2FNewModel.uml%23_h34tLNdoEeKVjp7WMrDZiQ" xlink:title="dst_subject"><text text-anchor="middle" x="117" y="51" style="font-family:Arial;font-size:11.00;">«attribute» dst_subject : subject_name_type</text></a><a xlink:href="platform%3A%2Fresource%2Fsk%2FNewModel.uml%23_h34tOtdoEeKVjp7WMrDZiQ" xlink:title="dst_vector"><text text-anchor="middle" x="109" y="63" style="font-family:Arial;font-size:11.00;">«attribute» dst_vector : vector_type [0..1]</text></a><polygon style="fill:none;stroke:#a30036;" points="5,67 5,28 229,28 229,67 5,67"/></g></g></svg>