<?xml version="1.0" encoding="UTF-8" standalone="no"?><!DOCTYPE svg PUBLIC "-//W3C//DTD SVG 1.0//EN" "http://www.w3.org/TR/2001/REC-SVG-20010904/DTD/svg10.dtd" [ <!ATTLIST svg xmlns:xlink CDATA #FIXED "http://www.w3.org/1999/xlink">]><!-- Generated by dot version 2.7.20051103.0540 (Thu Nov  3 05:48:38 UTC 2005)     For user: Bill Gates --><!-- Title: uml Pages: 1 --><svg width="358pt" height="274pt" viewBox = "0 0 358 274" xmlns="http://www.w3.org/2000/svg" xmlns:xlink="http://www.w3.org/1999/xlink"><g id="graph0" class="graph" style="font-family:Times-Roman;font-size:14.00;"><title>uml</title><polygon style="fill:white;stroke:white;" points="-1,275 -1,-1 359,-1 359,275 -1,275"/><!-- 24976396 --><g id="node1" class="node"><title>24976396</title><a xlink:href="platform%3A%2Fresource%2Fsk%2FNewModel.uml%23_h3vjUddoEeKVjp7WMrDZiQ" xlink:title="memory_layout_type"><polygon style="fill:#e0ffff;stroke:#a30036;stroke-dasharray:5,2;" points="181,242 63,242 63,268 181,268 181,242"/><text text-anchor="middle" x="122" y="259" style="font-family:Arial;font-size:11.00;">memory_layout_type</text></a></g><!-- 27198372 --><g id="node2" class="node"><title>27198372</title><a xlink:href="platform%3A%2Fresource%2Fsk%2FNewModel.uml%23_h3vjEddoEeKVjp7WMrDZiQ" xlink:title="io_port_type"><polygon style="fill:#e0ffff;stroke:#a30036;stroke-dasharray:5,2;" points="311,242 235,242 235,268 311,268 311,242"/><text text-anchor="middle" x="273" y="259" style="font-family:Arial;font-size:11.00;">io_port_type</text></a></g><!-- 134954 --><g id="node3" class="node"><title>134954</title><polygon style="fill:#ffffcc;stroke:#ffffcc;" points="83,69 83,5 275,5 275,69 83,69"/><a xlink:href="platform%3A%2Fresource%2Fsk%2FNewModel.uml%23_h3vjcNdoEeKVjp7WMrDZiQ" xlink:title="device_type"><text text-anchor="middle" x="179" y="17" style="font-family:Arial;font-size:11.00;">«choice» </text><clipPath id="mypathfile:/C:/Users/reet/Desktop/hyperModelCIMI/eclipse/configuration/org.eclipse.osgi/bundles/515/1/.cp/icons/full/obj16/Class.gif134954"><polygon points="100,22 84,22 84,39 100,39 100,22 "/></clipPath><image xlink:href="file:/C:/Users/reet/Desktop/hyperModelCIMI/eclipse/configuration/org.eclipse.osgi/bundles/515/1/.cp/icons/full/obj16/Class.gif" width="16px" height="17px" preserveAspectRatio="xMidYMid meet" x="84" y="22" clip-path="url(#mypathfile:/C:/Users/reet/Desktop/hyperModelCIMI/eclipse/configuration/org.eclipse.osgi/bundles/515/1/.cp/icons/full/obj16/Class.gif134954)"/><text text-anchor="middle" x="187" y="35" style="font-family:Arial;font-size:13.00;">device_type</text><polygon style="fill:none;stroke:#a30036;" points="83,42 83,5 275,5 275,42 83,42"/></a><a xlink:href="platform%3A%2Fresource%2Fsk%2FNewModel.uml%23_h34s&#45;tdoEeKVjp7WMrDZiQ" xlink:title="name"><text text-anchor="middle" x="179" y="53" style="font-family:Arial;font-size:11.00;">«attribute» name : device_name_type</text></a><a xlink:href="platform%3A%2Fresource%2Fsk%2FNewModel.uml%23_h34s_tdoEeKVjp7WMrDZiQ" xlink:title="irq"><text text-anchor="middle" x="158" y="65" style="font-family:Arial;font-size:11.00;">«attribute» irq : irq_type [0..1]</text></a><polygon style="fill:none;stroke:#a30036;" points="83,69 83,42 275,42 275,69 83,69"/></g><!-- 21354435 --><g id="node4" class="node"><title>21354435</title><polygon style="fill:#ffffcc;stroke:#ffffcc;" points="5,181 5,129 109,129 109,181 5,181"/><a xlink:href="platform%3A%2Fresource%2Fsk%2FNewModel.uml%23_h3vjcddoEeKVjp7WMrDZiQ" xlink:title="_Sequence1"><text text-anchor="middle" x="57" y="141" style="font-family:Arial;font-size:11.00;">«group, sequence» </text><clipPath id="mypathfile:/C:/Users/reet/Desktop/hyperModelCIMI/eclipse/configuration/org.eclipse.osgi/bundles/515/1/.cp/icons/full/obj16/Class.gif21354435"><polygon points="22,146 6,146 6,163 22,163 22,146 "/></clipPath><image xlink:href="file:/C:/Users/reet/Desktop/hyperModelCIMI/eclipse/configuration/org.eclipse.osgi/bundles/515/1/.cp/icons/full/obj16/Class.gif" width="16px" height="17px" preserveAspectRatio="xMidYMid meet" x="6" y="146" clip-path="url(#mypathfile:/C:/Users/reet/Desktop/hyperModelCIMI/eclipse/configuration/org.eclipse.osgi/bundles/515/1/.cp/icons/full/obj16/Class.gif21354435)"/><text text-anchor="middle" x="65" y="159" style="font-family:Arial;font-size:13.00;">_Sequence1</text><polygon style="fill:none;stroke:#a30036;" points="5,166 5,129 109,129 109,166 5,166"/></a><text text-anchor="middle" x="57" y="177" style="font-family:Arial;font-size:11.00;"> </text><polygon style="fill:none;stroke:#a30036;" points="5,181 5,166 109,166 109,181 5,181"/></g><!-- 134954&#45;&gt;21354435 --><g id="edge2" class="edge"><title>134954&#45;&gt;21354435</title><a xlink:href="platform%3A%2Fresource%2Fsk%2FNewModel.uml%23_h3vjeddoEeKVjp7WMrDZiQ" xlink:title="_sequence1\n1..1"><path style="fill:none;stroke:#a30036;" d="M130,77C126,80 122,84 119,87 108,98 97,110 87,121"/><polygon style="fill:#a30036;stroke:#a30036;" points="130,77 137,76 139,69 132,70 130,77"/><polygon style="fill:#a30036;stroke:#a30036;" points="80,129 90,124 82,127 87,121 82,127 83,119 80,129 80,129"/><text text-anchor="middle" x="147" y="96" style="font-family:Arial;font-size:10.00;">_sequence1</text><text text-anchor="middle" x="147" y="108" style="font-family:Arial;font-size:10.00;">1..1</text></a></g><!-- 7470998 --><g id="node5" class="node"><title>7470998</title><polygon style="fill:#ffffcc;stroke:#ffffcc;" points="249,181 249,129 353,129 353,181 249,181"/><a xlink:href="platform%3A%2Fresource%2Fsk%2FNewModel.uml%23_h3vjftdoEeKVjp7WMrDZiQ" xlink:title="_Sequence2"><text text-anchor="middle" x="301" y="141" style="font-family:Arial;font-size:11.00;">«group, sequence» </text><clipPath id="mypathfile:/C:/Users/reet/Desktop/hyperModelCIMI/eclipse/configuration/org.eclipse.osgi/bundles/515/1/.cp/icons/full/obj16/Class.gif7470998"><polygon points="266,146 250,146 250,163 266,163 266,146 "/></clipPath><image xlink:href="file:/C:/Users/reet/Desktop/hyperModelCIMI/eclipse/configuration/org.eclipse.osgi/bundles/515/1/.cp/icons/full/obj16/Class.gif" width="16px" height="17px" preserveAspectRatio="xMidYMid meet" x="250" y="146" clip-path="url(#mypathfile:/C:/Users/reet/Desktop/hyperModelCIMI/eclipse/configuration/org.eclipse.osgi/bundles/515/1/.cp/icons/full/obj16/Class.gif7470998)"/><text text-anchor="middle" x="309" y="159" style="font-family:Arial;font-size:13.00;">_Sequence2</text><polygon style="fill:none;stroke:#a30036;" points="249,166 249,129 353,129 353,166 249,166"/></a><text text-anchor="middle" x="301" y="177" style="font-family:Arial;font-size:11.00;"> </text><polygon style="fill:none;stroke:#a30036;" points="249,181 249,166 353,166 353,181 249,181"/></g><!-- 134954&#45;&gt;7470998 --><g id="edge4" class="edge"><title>134954&#45;&gt;7470998</title><a xlink:href="platform%3A%2Fresource%2Fsk%2FNewModel.uml%23_h34s4tdoEeKVjp7WMrDZiQ" xlink:title="_sequence2\n1..1"><path style="fill:none;stroke:#a30036;" d="M227,77C231,80 235,84 239,87 250,98 261,110 271,121"/><polygon style="fill:#a30036;stroke:#a30036;" points="227,77 225,70 218,69 220,76 227,77"/><polygon style="fill:#a30036;stroke:#a30036;" points="278,129 275,119 276,127 271,121 276,127 268,124 278,129 278,129"/><text text-anchor="middle" x="286" y="96" style="font-family:Arial;font-size:10.00;">_sequence2</text><text text-anchor="middle" x="286" y="108" style="font-family:Arial;font-size:10.00;">1..1</text></a></g><!-- 16193154 --><g id="node6" class="node"><title>16193154</title><polygon style="fill:#ffffcc;stroke:#ffffcc;" points="127,181 127,129 231,129 231,181 127,181"/><a xlink:href="platform%3A%2Fresource%2Fsk%2FNewModel.uml%23_h34s59doEeKVjp7WMrDZiQ" xlink:title="_Sequence3"><text text-anchor="middle" x="179" y="141" style="font-family:Arial;font-size:11.00;">«group, sequence» </text><clipPath id="mypathfile:/C:/Users/reet/Desktop/hyperModelCIMI/eclipse/configuration/org.eclipse.osgi/bundles/515/1/.cp/icons/full/obj16/Class.gif16193154"><polygon points="144,146 128,146 128,163 144,163 144,146 "/></clipPath><image xlink:href="file:/C:/Users/reet/Desktop/hyperModelCIMI/eclipse/configuration/org.eclipse.osgi/bundles/515/1/.cp/icons/full/obj16/Class.gif" width="16px" height="17px" preserveAspectRatio="xMidYMid meet" x="128" y="146" clip-path="url(#mypathfile:/C:/Users/reet/Desktop/hyperModelCIMI/eclipse/configuration/org.eclipse.osgi/bundles/515/1/.cp/icons/full/obj16/Class.gif16193154)"/><text text-anchor="middle" x="187" y="159" style="font-family:Arial;font-size:13.00;">_Sequence3</text><polygon style="fill:none;stroke:#a30036;" points="127,166 127,129 231,129 231,166 127,166"/></a><text text-anchor="middle" x="179" y="177" style="font-family:Arial;font-size:11.00;"> </text><polygon style="fill:none;stroke:#a30036;" points="127,181 127,166 231,166 231,181 127,181"/></g><!-- 134954&#45;&gt;16193154 --><g id="edge6" class="edge"><title>134954&#45;&gt;16193154</title><a xlink:href="platform%3A%2Fresource%2Fsk%2FNewModel.uml%23_h34s9NdoEeKVjp7WMrDZiQ" xlink:title="_sequence3\n1..1"><path style="fill:none;stroke:#a30036;" d="M179,81C179,93 179,107 179,119"/><polygon style="fill:#a30036;stroke:#a30036;" points="179,81 183,75 179,69 175,75 179,81"/><polygon style="fill:#a30036;stroke:#a30036;" points="179,129 184,119 179,126 179,119 179,126 175,119 179,129 179,129"/><text text-anchor="middle" x="207" y="96" style="font-family:Arial;font-size:10.00;">_sequence3</text><text text-anchor="middle" x="207" y="108" style="font-family:Arial;font-size:10.00;">1..1</text></a></g><!-- 21354435&#45;&gt;24976396 --><g id="edge8" class="edge"><title>21354435&#45;&gt;24976396</title><a xlink:href="platform%3A%2Fresource%2Fsk%2FNewModel.uml%23_h3vjdNdoEeKVjp7WMrDZiQ" xlink:title="memory_layout\n1..1"><path style="fill:none;stroke:#a30036;" d="M57,193C58,204 61,214 67,223 70,228 74,232 79,235"/><polygon style="fill:#a30036;stroke:#a30036;" points="57,193 60,187 56,181 53,187 57,193"/><polygon style="fill:#a30036;stroke:#a30036;" points="87,241 82,231 85,239 79,235 85,239 76,239 87,241 87,241"/><text text-anchor="middle" x="102" y="208" style="font-family:Arial;font-size:10.00;">memory_layout</text><text text-anchor="middle" x="102" y="220" style="font-family:Arial;font-size:10.00;">1..1</text></a></g><!-- 7470998&#45;&gt;27198372 --><g id="edge10" class="edge"><title>7470998&#45;&gt;27198372</title><a xlink:href="platform%3A%2Fresource%2Fsk%2FNewModel.uml%23_h3vjgddoEeKVjp7WMrDZiQ" xlink:title="io_port\n1..*"><path style="fill:none;stroke:#a30036;" d="M291,193C286,206 282,220 280,231"/><polygon style="fill:#a30036;stroke:#a30036;" points="291,193 296,188 294,181 289,186 291,193"/><polygon style="fill:#a30036;stroke:#a30036;" points="277,241 284,233 278,238 280,231 278,238 276,230 277,241 277,241"/><text text-anchor="middle" x="303" y="208" style="font-family:Arial;font-size:10.00;">io_port</text><text text-anchor="middle" x="303" y="220" style="font-family:Arial;font-size:10.00;">1..*</text></a></g><!-- 16193154&#45;&gt;24976396 --><g id="edge12" class="edge"><title>16193154&#45;&gt;24976396</title><a xlink:href="platform%3A%2Fresource%2Fsk%2FNewModel.uml%23_h34s6tdoEeKVjp7WMrDZiQ" xlink:title="memory_layout\n1..1"><path style="fill:none;stroke:#a30036;" d="M158,192C150,205 142,220 135,232"/><polygon style="fill:#a30036;stroke:#a30036;" points="158,192 165,188 164,181 158,184 158,192"/><polygon style="fill:#a30036;stroke:#a30036;" points="130,241 139,234 131,238 135,232 131,238 131,230 130,241 130,241"/><text text-anchor="middle" x="188" y="208" style="font-family:Arial;font-size:10.00;">memory_layout</text><text text-anchor="middle" x="188" y="220" style="font-family:Arial;font-size:10.00;">1..1</text></a></g><!-- 16193154&#45;&gt;27198372 --><g id="edge14" class="edge"><title>16193154&#45;&gt;27198372</title><a xlink:href="platform%3A%2Fresource%2Fsk%2FNewModel.uml%23_h34s79doEeKVjp7WMrDZiQ" xlink:title="io_port\n1..*"><path style="fill:none;stroke:#a30036;" d="M215,190C218,193 221,196 224,199 234,210 245,223 254,233"/><polygon style="fill:#a30036;stroke:#a30036;" points="214,189 213,182 206,181 207,188 214,189"/><polygon style="fill:#a30036;stroke:#a30036;" points="261,241 258,231 259,239 254,233 259,239 251,236 261,241 261,241"/><text text-anchor="middle" x="257" y="208" style="font-family:Arial;font-size:10.00;">io_port</text><text text-anchor="middle" x="257" y="220" style="font-family:Arial;font-size:10.00;">1..*</text></a></g></g></svg>