<?xml version="1.0" encoding="UTF-8" standalone="no"?><!DOCTYPE svg PUBLIC "-//W3C//DTD SVG 1.0//EN" "http://www.w3.org/TR/2001/REC-SVG-20010904/DTD/svg10.dtd" [ <!ATTLIST svg xmlns:xlink CDATA #FIXED "http://www.w3.org/1999/xlink">]><!-- Generated by dot version 2.7.20051103.0540 (Thu Nov  3 05:48:38 UTC 2005)     For user: Bill Gates --><!-- Title: uml Pages: 1 --><svg width="266pt" height="150pt" viewBox = "0 0 266 150" xmlns="http://www.w3.org/2000/svg" xmlns:xlink="http://www.w3.org/1999/xlink"><g id="graph0" class="graph" style="font-family:Times-Roman;font-size:14.00;"><title>uml</title><polygon style="fill:white;stroke:white;" points="-1,151 -1,-1 267,-1 267,151 -1,151"/><!-- 19040352 --><g id="node1" class="node"><title>19040352</title><a xlink:href="platform%3A%2Fresource%2Fsk%2FNewModel.uml%23_h34tUNdoEeKVjp7WMrDZiQ" xlink:title="event_handover_type"><polygon style="fill:#e0ffff;stroke:#a30036;stroke-dasharray:5,2;" points="127,118 5,118 5,144 127,144 127,118"/><text text-anchor="middle" x="66" y="135" style="font-family:Arial;font-size:11.00;">event_handover_type</text></a></g><!-- 14123997 --><g id="node2" class="node"><title>14123997</title><a xlink:href="platform%3A%2Fresource%2Fsk%2FNewModel.uml%23_h34tXtdoEeKVjp7WMrDZiQ" xlink:title="event_interrupt_type"><polygon style="fill:#e0ffff;stroke:#a30036;stroke-dasharray:5,2;" points="261,118 145,118 145,144 261,144 261,118"/><text text-anchor="middle" x="203" y="135" style="font-family:Arial;font-size:11.00;">event_interrupt_type</text></a></g><!-- 13170506 --><g id="node3" class="node"><title>13170506</title><polygon style="fill:#ffffcc;stroke:#ffffcc;" points="71,57 71,5 197,5 197,57 71,57"/><a xlink:href="platform%3A%2Fresource%2Fsk%2FNewModel.uml%23_h34tcNdoEeKVjp7WMrDZiQ" xlink:title="event_table_type"><text text-anchor="middle" x="134" y="17" style="font-family:Arial;font-size:11.00;">«complexType, choice» </text><clipPath id="mypathfile:/C:/Users/reet/Desktop/hyperModelCIMI/eclipse/configuration/org.eclipse.osgi/bundles/515/1/.cp/icons/full/obj16/Class.gif13170506"><polygon points="88,22 72,22 72,39 88,39 88,22 "/></clipPath><image xlink:href="file:/C:/Users/reet/Desktop/hyperModelCIMI/eclipse/configuration/org.eclipse.osgi/bundles/515/1/.cp/icons/full/obj16/Class.gif" width="16px" height="17px" preserveAspectRatio="xMidYMid meet" x="72" y="22" clip-path="url(#mypathfile:/C:/Users/reet/Desktop/hyperModelCIMI/eclipse/configuration/org.eclipse.osgi/bundles/515/1/.cp/icons/full/obj16/Class.gif13170506)"/><text text-anchor="middle" x="143" y="35" style="font-family:Arial;font-size:13.00;">event_table_type</text><polygon style="fill:none;stroke:#a30036;" points="71,42 71,5 197,5 197,42 71,42"/></a><text text-anchor="middle" x="134" y="53" style="font-family:Arial;font-size:11.00;"> </text><polygon style="fill:none;stroke:#a30036;" points="71,57 71,42 197,42 197,57 71,57"/></g><!-- 13170506&#45;&gt;19040352 --><g id="edge2" class="edge"><title>13170506&#45;&gt;19040352</title><a xlink:href="platform%3A%2Fresource%2Fsk%2FNewModel.uml%23_h34tctdoEeKVjp7WMrDZiQ" xlink:title="handover\n1..1"><path style="fill:none;stroke:#a30036;" d="M109,67C100,81 89,97 81,109"/><polygon style="fill:#a30036;stroke:#a30036;" points="109,67 116,64 116,57 109,60 109,67"/><polygon style="fill:#a30036;stroke:#a30036;" points="75,117 85,112 77,115 81,109 77,115 77,106 75,117 75,117"/><text text-anchor="middle" x="127" y="84" style="font-family:Arial;font-size:10.00;">handover</text><text text-anchor="middle" x="127" y="96" style="font-family:Arial;font-size:10.00;">1..1</text></a></g><!-- 13170506&#45;&gt;14123997 --><g id="edge4" class="edge"><title>13170506&#45;&gt;14123997</title><a xlink:href="platform%3A%2Fresource%2Fsk%2FNewModel.uml%23_h34td9doEeKVjp7WMrDZiQ" xlink:title="interrupt\n1..1"><path style="fill:none;stroke:#a30036;" d="M159,67C169,81 180,97 188,109"/><polygon style="fill:#a30036;stroke:#a30036;" points="159,67 159,60 152,57 152,64 159,67"/><polygon style="fill:#a30036;stroke:#a30036;" points="194,117 192,106 192,115 188,109 192,115 184,112 194,117 194,117"/><text text-anchor="middle" x="196" y="84" style="font-family:Arial;font-size:10.00;">interrupt</text><text text-anchor="middle" x="196" y="96" style="font-family:Arial;font-size:10.00;">1..1</text></a></g></g></svg>