<?xml version="1.0" encoding="UTF-8" standalone="no"?><!DOCTYPE svg PUBLIC "-//W3C//DTD SVG 1.0//EN" "http://www.w3.org/TR/2001/REC-SVG-20010904/DTD/svg10.dtd" [ <!ATTLIST svg xmlns:xlink CDATA #FIXED "http://www.w3.org/1999/xlink">]><!-- Generated by dot version 2.7.20051103.0540 (Thu Nov  3 05:48:38 UTC 2005)     For user: Bill Gates --><!-- Title: uml Pages: 1 --><svg width="242pt" height="160pt" viewBox = "0 0 242 160" xmlns="http://www.w3.org/2000/svg" xmlns:xlink="http://www.w3.org/1999/xlink"><g id="graph0" class="graph" style="font-family:Times-Roman;font-size:14.00;"><title>uml</title><polygon style="fill:white;stroke:white;" points="-1,161 -1,-1 243,-1 243,161 -1,161"/><!-- 24976396 --><g id="node1" class="node"><title>24976396</title><a xlink:href="platform%3A%2Fresource%2Fsk%2FNewModel.uml%23_h3vjUddoEeKVjp7WMrDZiQ" xlink:title="memory_layout_type"><polygon style="fill:#e0ffff;stroke:#a30036;stroke-dasharray:5,2;" points="180,128 62,128 62,154 180,154 180,128"/><text text-anchor="middle" x="121" y="145" style="font-family:Arial;font-size:11.00;">memory_layout_type</text></a></g><!-- 15433373 --><g id="node2" class="node"><title>15433373</title><polygon style="fill:#ffffcc;stroke:#ffffcc;" points="5,67 5,5 237,5 237,67 5,67"/><a xlink:href="platform%3A%2Fresource%2Fsk%2FNewModel.uml%23_h34tgddoEeKVjp7WMrDZiQ" xlink:title="kernel_type"><clipPath id="mypathfile:/C:/Users/reet/Desktop/hyperModelCIMI/eclipse/configuration/org.eclipse.osgi/bundles/515/1/.cp/icons/full/obj16/Class.gif15433373"><polygon points="22,8 6,8 6,25 22,25 22,8 "/></clipPath><image xlink:href="file:/C:/Users/reet/Desktop/hyperModelCIMI/eclipse/configuration/org.eclipse.osgi/bundles/515/1/.cp/icons/full/obj16/Class.gif" width="16px" height="17px" preserveAspectRatio="xMidYMid meet" x="6" y="8" clip-path="url(#mypathfile:/C:/Users/reet/Desktop/hyperModelCIMI/eclipse/configuration/org.eclipse.osgi/bundles/515/1/.cp/icons/full/obj16/Class.gif15433373)"/><text text-anchor="middle" x="129" y="21" style="font-family:Arial;font-size:13.00;">kernel_type</text><polygon style="fill:none;stroke:#a30036;" points="5,28 5,5 237,5 237,28 5,28"/></a><a xlink:href="platform%3A%2Fresource%2Fsk%2FNewModel.uml%23_h34th9doEeKVjp7WMrDZiQ" xlink:title="stack_address"><text text-anchor="middle" x="110" y="39" style="font-family:Arial;font-size:11.00;">«attribute» stack_address : address_type</text></a><a xlink:href="platform%3A%2Fresource%2Fsk%2FNewModel.uml%23_h34tjNdoEeKVjp7WMrDZiQ" xlink:title="pml4_address"><text text-anchor="middle" x="109" y="51" style="font-family:Arial;font-size:11.00;">«attribute» pml4_address : address_type</text></a><a xlink:href="platform%3A%2Fresource%2Fsk%2FNewModel.uml%23_h4Cd49doEeKVjp7WMrDZiQ" xlink:title="cpu_page_address"><text text-anchor="middle" x="121" y="63" style="font-family:Arial;font-size:11.00;">«attribute» cpu_page_address : address_type</text></a><polygon style="fill:none;stroke:#a30036;" points="5,67 5,28 237,28 237,67 5,67"/></g><!-- 15433373&#45;&gt;24976396 --><g id="edge2" class="edge"><title>15433373&#45;&gt;24976396</title><a xlink:href="platform%3A%2Fresource%2Fsk%2FNewModel.uml%23_h34tgtdoEeKVjp7WMrDZiQ" xlink:title="memory_layout\n1..1"><path style="fill:none;stroke:#a30036;" d="M121,79C121,92 121,106 121,117"/><polygon style="fill:#a30036;stroke:#a30036;" points="121,79 125,73 121,67 117,73 121,79"/><polygon style="fill:#a30036;stroke:#a30036;" points="121,127 126,117 121,124 121,117 121,124 117,117 121,127 121,127"/><text text-anchor="middle" x="156" y="94" style="font-family:Arial;font-size:10.00;">memory_layout</text><text text-anchor="middle" x="156" y="106" style="font-family:Arial;font-size:10.00;">1..1</text></a></g></g></svg>