<?xml version="1.0" encoding="UTF-8" standalone="no"?><!DOCTYPE svg PUBLIC "-//W3C//DTD SVG 1.0//EN" "http://www.w3.org/TR/2001/REC-SVG-20010904/DTD/svg10.dtd" [ <!ATTLIST svg xmlns:xlink CDATA #FIXED "http://www.w3.org/1999/xlink">]><!-- Generated by dot version 2.7.20051103.0540 (Thu Nov  3 05:48:38 UTC 2005)     For user: Bill Gates --><!-- Title: uml Pages: 1 --><svg width="152pt" height="112pt" viewBox = "0 0 152 112" xmlns="http://www.w3.org/2000/svg" xmlns:xlink="http://www.w3.org/1999/xlink"><g id="graph0" class="graph" style="font-family:Times-Roman;font-size:14.00;"><title>uml</title><polygon style="fill:white;stroke:white;" points="-1,113 -1,-1 153,-1 153,113 -1,113"/><!-- 9372006 --><g id="node1" class="node"><title>9372006</title><a xlink:href="pathmap%3A%2F%2FXMLmodeling_LIBRARIES%2FXSDDataTypes.library.uml%23_3RzJWUtXEdqhPYJq3sEkGA" xlink:title="string"><polygon style="fill:#e0ffff;stroke:#a30036;stroke-dasharray:5,2;" points="97,6 55,6 55,32 97,32 97,6"/><text text-anchor="middle" x="76" y="23" style="font-family:Arial;font-size:11.00;">string</text></a></g><!-- 8242361 --><g id="node2" class="node"><title>8242361</title><polygon style="fill:#ffffcc;stroke:#ffffcc;" points="5,107 5,69 147,69 147,107 5,107"/><a xlink:href="platform%3A%2Fresource%2Fsk%2FNewModel.uml%23_h4CectdoEeKVjp7WMrDZiQ" xlink:title="subject_profile_type"><clipPath id="mypathfile:/C:/Users/reet/Desktop/hyperModelCIMI/eclipse/configuration/org.eclipse.osgi/bundles/515/1/.cp/icons/full/obj16/Enumeration.gif8242361"><polygon points="22,72 6,72 6,89 22,89 22,72 "/></clipPath><image xlink:href="file:/C:/Users/reet/Desktop/hyperModelCIMI/eclipse/configuration/org.eclipse.osgi/bundles/515/1/.cp/icons/full/obj16/Enumeration.gif" width="16px" height="17px" preserveAspectRatio="xMidYMid meet" x="6" y="72" clip-path="url(#mypathfile:/C:/Users/reet/Desktop/hyperModelCIMI/eclipse/configuration/org.eclipse.osgi/bundles/515/1/.cp/icons/full/obj16/Enumeration.gif8242361)"/><text text-anchor="middle" x="84" y="85" style="font-family:Arial;font-size:13.00;">subject_profile_type</text><polygon style="fill:none;stroke:#a30036;" points="5,92 5,69 147,69 147,92 5,92"/></a><text text-anchor="middle" x="76" y="103" style="font-family:Arial;font-size:11.00;"> </text><polygon style="fill:none;stroke:#a30036;" points="5,107 5,92 147,92 147,107 5,107"/></g><!-- 9372006&#45;&gt;8242361 --><g id="edge2" class="edge"><title>9372006&#45;&gt;8242361</title><path style="fill:none;stroke:#000080;" d="M76,48C76,55 76,62 76,69"/><polygon style="fill:none;stroke:#000080;" points="71,48 76,33 81,48 71,48"/></g></g></svg>