<?xml version="1.0" encoding="UTF-8" standalone="no"?><!DOCTYPE svg PUBLIC "-//W3C//DTD SVG 1.0//EN" "http://www.w3.org/TR/2001/REC-SVG-20010904/DTD/svg10.dtd" [ <!ATTLIST svg xmlns:xlink CDATA #FIXED "http://www.w3.org/1999/xlink">]><!-- Generated by dot version 2.7.20051103.0540 (Thu Nov  3 05:48:38 UTC 2005)     For user: Bill Gates --><!-- Title: uml Pages: 1 --><svg width="186pt" height="112pt" viewBox = "0 0 186 112" xmlns="http://www.w3.org/2000/svg" xmlns:xlink="http://www.w3.org/1999/xlink"><g id="graph0" class="graph" style="font-family:Times-Roman;font-size:14.00;"><title>uml</title><polygon style="fill:white;stroke:white;" points="-1,113 -1,-1 187,-1 187,113 -1,113"/><!-- 8614535 --><g id="node1" class="node"><title>8614535</title><a xlink:href="pathmap%3A%2F%2FXMLmodeling_LIBRARIES%2FXSDDataTypes.library.uml%23_3RzJ60tXEdqhPYJq3sEkGA" xlink:title="nonNegativeInteger"><polygon style="fill:#e0ffff;stroke:#a30036;stroke-dasharray:5,2;" points="149,6 37,6 37,32 149,32 149,6"/><text text-anchor="middle" x="93" y="23" style="font-family:Arial;font-size:11.00;">nonNegativeInteger</text></a></g><!-- 21391802 --><g id="node2" class="node"><title>21391802</title><polygon style="fill:#ffffcc;stroke:#ffffcc;" points="5,107 5,69 181,69 181,107 5,107"/><a xlink:href="platform%3A%2Fresource%2Fsk%2FNewModel.uml%23_h34tS9doEeKVjp7WMrDZiQ" xlink:title="dst_vector_type"><clipPath id="mypathfile:/C:/Users/reet/Desktop/hyperModelCIMI/eclipse/configuration/org.eclipse.osgi/bundles/515/1/.cp/icons/full/obj16/DataType.gif21391802"><polygon points="22,72 6,72 6,89 22,89 22,72 "/></clipPath><image xlink:href="file:/C:/Users/reet/Desktop/hyperModelCIMI/eclipse/configuration/org.eclipse.osgi/bundles/515/1/.cp/icons/full/obj16/DataType.gif" width="16px" height="17px" preserveAspectRatio="xMidYMid meet" x="6" y="72" clip-path="url(#mypathfile:/C:/Users/reet/Desktop/hyperModelCIMI/eclipse/configuration/org.eclipse.osgi/bundles/515/1/.cp/icons/full/obj16/DataType.gif21391802)"/><text text-anchor="middle" x="101" y="85" style="font-family:Arial;font-size:13.00;">dst_vector_type</text><polygon style="fill:none;stroke:#a30036;" points="5,92 5,69 181,69 181,92 5,92"/></a><a xlink:href="platform%3A%2Fresource%2Fsk%2FNewModel.uml%23_h34tTNdoEeKVjp7WMrDZiQ" xlink:title="maxInclusive"><text text-anchor="middle" x="93" y="103" style="font-family:Arial;font-size:11.00;">«facet» maxInclusive : string = 256</text></a><polygon style="fill:none;stroke:#a30036;" points="5,107 5,92 181,92 181,107 5,107"/></g><!-- 8614535&#45;&gt;21391802 --><g id="edge2" class="edge"><title>8614535&#45;&gt;21391802</title><path style="fill:none;stroke:#000080;" d="M93,48C93,55 93,62 93,69"/><polygon style="fill:none;stroke:#000080;" points="88,48 93,33 98,48 88,48"/></g></g></svg>