<?xml version="1.0" encoding="UTF-8" standalone="no"?><!DOCTYPE svg PUBLIC "-//W3C//DTD SVG 1.0//EN" "http://www.w3.org/TR/2001/REC-SVG-20010904/DTD/svg10.dtd" [ <!ATTLIST svg xmlns:xlink CDATA #FIXED "http://www.w3.org/1999/xlink">]><!-- Generated by dot version 2.7.20051103.0540 (Thu Nov  3 05:48:38 UTC 2005)     For user: Bill Gates --><!-- Title: uml Pages: 1 --><svg width="116pt" height="136pt" viewBox = "0 0 116 136" xmlns="http://www.w3.org/2000/svg" xmlns:xlink="http://www.w3.org/1999/xlink"><g id="graph0" class="graph" style="font-family:Times-Roman;font-size:14.00;"><title>uml</title><polygon style="fill:white;stroke:white;" points="-1,137 -1,-1 117,-1 117,137 -1,137"/><!-- 27198372 --><g id="node1" class="node"><title>27198372</title><a xlink:href="platform%3A%2Fresource%2Fsk%2FNewModel.uml%23_h3vjEddoEeKVjp7WMrDZiQ" xlink:title="io_port_type"><polygon style="fill:#e0ffff;stroke:#a30036;stroke-dasharray:5,2;" points="96,104 20,104 20,130 96,130 96,104"/><text text-anchor="middle" x="58" y="121" style="font-family:Arial;font-size:11.00;">io_port_type</text></a></g><!-- 14432366 --><g id="node2" class="node"><title>14432366</title><polygon style="fill:#ffffcc;stroke:#ffffcc;" points="5,43 5,5 111,5 111,43 5,43"/><a xlink:href="platform%3A%2Fresource%2Fsk%2FNewModel.uml%23_h3vjV9doEeKVjp7WMrDZiQ" xlink:title="io_ports_type"><clipPath id="mypathfile:/C:/Users/reet/Desktop/hyperModelCIMI/eclipse/configuration/org.eclipse.osgi/bundles/515/1/.cp/icons/full/obj16/Class.gif14432366"><polygon points="22,8 6,8 6,25 22,25 22,8 "/></clipPath><image xlink:href="file:/C:/Users/reet/Desktop/hyperModelCIMI/eclipse/configuration/org.eclipse.osgi/bundles/515/1/.cp/icons/full/obj16/Class.gif" width="16px" height="17px" preserveAspectRatio="xMidYMid meet" x="6" y="8" clip-path="url(#mypathfile:/C:/Users/reet/Desktop/hyperModelCIMI/eclipse/configuration/org.eclipse.osgi/bundles/515/1/.cp/icons/full/obj16/Class.gif14432366)"/><text text-anchor="middle" x="67" y="21" style="font-family:Arial;font-size:13.00;">io_ports_type</text><polygon style="fill:none;stroke:#a30036;" points="5,28 5,5 111,5 111,28 5,28"/></a><text text-anchor="middle" x="58" y="39" style="font-family:Arial;font-size:11.00;"> </text><polygon style="fill:none;stroke:#a30036;" points="5,43 5,28 111,28 111,43 5,43"/></g><!-- 14432366&#45;&gt;27198372 --><g id="edge2" class="edge"><title>14432366&#45;&gt;27198372</title><a xlink:href="platform%3A%2Fresource%2Fsk%2FNewModel.uml%23_h3vjWddoEeKVjp7WMrDZiQ" xlink:title="port_range\n0..*"><path style="fill:none;stroke:#a30036;" d="M58,55C58,68 58,82 58,93"/><polygon style="fill:#a30036;stroke:#a30036;" points="58,55 62,49 58,43 54,49 58,55"/><polygon style="fill:#a30036;stroke:#a30036;" points="58,103 63,93 58,100 58,93 58,100 54,93 58,103 58,103"/><text text-anchor="middle" x="82" y="70" style="font-family:Arial;font-size:10.00;">port_range</text><text text-anchor="middle" x="82" y="82" style="font-family:Arial;font-size:10.00;">0..*</text></a></g></g></svg>