<?xml version="1.0" encoding="UTF-8" standalone="no"?><!DOCTYPE svg PUBLIC "-//W3C//DTD SVG 1.0//EN" "http://www.w3.org/TR/2001/REC-SVG-20010904/DTD/svg10.dtd" [ <!ATTLIST svg xmlns:xlink CDATA #FIXED "http://www.w3.org/1999/xlink">]><!-- Generated by dot version 2.7.20051103.0540 (Thu Nov  3 05:48:38 UTC 2005)     For user: Bill Gates --><!-- Title: uml Pages: 1 --><svg width="192pt" height="136pt" viewBox = "0 0 192 136" xmlns="http://www.w3.org/2000/svg" xmlns:xlink="http://www.w3.org/1999/xlink"><g id="graph0" class="graph" style="font-family:Times-Roman;font-size:14.00;"><title>uml</title><polygon style="fill:white;stroke:white;" points="-1,137 -1,-1 193,-1 193,137 -1,137"/><!-- 23067222 --><g id="node1" class="node"><title>23067222</title><a xlink:href="platform%3A%2Fresource%2Fsk%2FNewModel.uml%23_h34tB9doEeKVjp7WMrDZiQ" xlink:title="processor_type"><polygon style="fill:#e0ffff;stroke:#a30036;stroke-dasharray:5,2;" points="95,104 5,104 5,130 95,130 95,104"/><text text-anchor="middle" x="50" y="121" style="font-family:Arial;font-size:11.00;">processor_type</text></a></g><!-- 134954 --><g id="node2" class="node"><title>134954</title><a xlink:href="platform%3A%2Fresource%2Fsk%2FNewModel.uml%23_h3vjcNdoEeKVjp7WMrDZiQ" xlink:title="device_type"><polygon style="fill:#e0ffff;stroke:#a30036;stroke-dasharray:5,2;" points="187,104 113,104 113,130 187,130 187,104"/><text text-anchor="middle" x="150" y="121" style="font-family:Arial;font-size:11.00;">device_type</text></a></g><!-- 8287372 --><g id="node3" class="node"><title>8287372</title><polygon style="fill:#ffffcc;stroke:#ffffcc;" points="44,43 44,5 156,5 156,43 44,43"/><a xlink:href="platform%3A%2Fresource%2Fsk%2FNewModel.uml%23_h34tFNdoEeKVjp7WMrDZiQ" xlink:title="hardware_type"><clipPath id="mypathfile:/C:/Users/reet/Desktop/hyperModelCIMI/eclipse/configuration/org.eclipse.osgi/bundles/515/1/.cp/icons/full/obj16/Class.gif8287372"><polygon points="61,8 45,8 45,25 61,25 61,8 "/></clipPath><image xlink:href="file:/C:/Users/reet/Desktop/hyperModelCIMI/eclipse/configuration/org.eclipse.osgi/bundles/515/1/.cp/icons/full/obj16/Class.gif" width="16px" height="17px" preserveAspectRatio="xMidYMid meet" x="45" y="8" clip-path="url(#mypathfile:/C:/Users/reet/Desktop/hyperModelCIMI/eclipse/configuration/org.eclipse.osgi/bundles/515/1/.cp/icons/full/obj16/Class.gif8287372)"/><text text-anchor="middle" x="108" y="21" style="font-family:Arial;font-size:13.00;">hardware_type</text><polygon style="fill:none;stroke:#a30036;" points="44,28 44,5 156,5 156,28 44,28"/></a><text text-anchor="middle" x="100" y="39" style="font-family:Arial;font-size:11.00;"> </text><polygon style="fill:none;stroke:#a30036;" points="44,43 44,28 156,28 156,43 44,43"/></g><!-- 8287372&#45;&gt;23067222 --><g id="edge2" class="edge"><title>8287372&#45;&gt;23067222</title><a xlink:href="platform%3A%2Fresource%2Fsk%2FNewModel.uml%23_h34tFddoEeKVjp7WMrDZiQ" xlink:title="processor\n1..1"><path style="fill:none;stroke:#a30036;" d="M84,54C77,67 69,82 62,94"/><polygon style="fill:#a30036;stroke:#a30036;" points="84,54 91,50 90,43 84,46 84,54"/><polygon style="fill:#a30036;stroke:#a30036;" points="57,103 66,96 58,100 62,94 58,100 58,92 57,103 57,103"/><text text-anchor="middle" x="103" y="70" style="font-family:Arial;font-size:10.00;">processor</text><text text-anchor="middle" x="103" y="82" style="font-family:Arial;font-size:10.00;">1..1</text></a></g><!-- 8287372&#45;&gt;134954 --><g id="edge4" class="edge"><title>8287372&#45;&gt;134954</title><a xlink:href="platform%3A%2Fresource%2Fsk%2FNewModel.uml%23_h34tGtdoEeKVjp7WMrDZiQ" xlink:title="device\n1..*"><path style="fill:none;stroke:#a30036;" d="M122,53C124,55 126,58 128,61 134,71 139,83 143,93"/><polygon style="fill:#a30036;stroke:#a30036;" points="122,53 122,46 115,43 115,50 122,53"/><polygon style="fill:#a30036;stroke:#a30036;" points="146,103 147,92 145,100 143,93 145,100 139,95 146,103 146,103"/><text text-anchor="middle" x="152" y="70" style="font-family:Arial;font-size:10.00;">device</text><text text-anchor="middle" x="152" y="82" style="font-family:Arial;font-size:10.00;">1..*</text></a></g></g></svg>