<?xml version="1.0" encoding="UTF-8" standalone="no"?><!DOCTYPE svg PUBLIC "-//W3C//DTD SVG 1.0//EN" "http://www.w3.org/TR/2001/REC-SVG-20010904/DTD/svg10.dtd" [ <!ATTLIST svg xmlns:xlink CDATA #FIXED "http://www.w3.org/1999/xlink">]><!-- Generated by dot version 2.7.20051103.0540 (Thu Nov  3 05:48:38 UTC 2005)     For user: Bill Gates --><!-- Title: uml Pages: 1 --><svg width="840pt" height="208pt" viewBox = "0 0 840 208" xmlns="http://www.w3.org/2000/svg" xmlns:xlink="http://www.w3.org/1999/xlink"><g id="graph0" class="graph" style="font-family:Times-Roman;font-size:14.00;"><title>uml</title><polygon style="fill:white;stroke:white;" points="-1,209 -1,-1 841,-1 841,209 -1,209"/><!-- 6305932 --><g id="node1" class="node"><title>6305932</title><a xlink:href="platform%3A%2Fresource%2Fsk%2FNewModel.uml%23_h4CeL9doEeKVjp7WMrDZiQ" xlink:title="initial_state_type"><polygon style="fill:#e0ffff;stroke:#a30036;stroke-dasharray:5,2;" points="103,176 5,176 5,202 103,202 103,176"/><text text-anchor="middle" x="54" y="193" style="font-family:Arial;font-size:11.00;">initial_state_type</text></a></g><!-- 24976396 --><g id="node2" class="node"><title>24976396</title><a xlink:href="platform%3A%2Fresource%2Fsk%2FNewModel.uml%23_h3vjUddoEeKVjp7WMrDZiQ" xlink:title="memory_layout_type"><polygon style="fill:#e0ffff;stroke:#a30036;stroke-dasharray:5,2;" points="239,176 121,176 121,202 239,202 239,176"/><text text-anchor="middle" x="180" y="193" style="font-family:Arial;font-size:11.00;">memory_layout_type</text></a></g><!-- 30760775 --><g id="node3" class="node"><title>30760775</title><a xlink:href="platform%3A%2Fresource%2Fsk%2FNewModel.uml%23_h4CeQtdoEeKVjp7WMrDZiQ" xlink:title="binary_reference_type"><polygon style="fill:#e0ffff;stroke:#a30036;stroke-dasharray:5,2;" points="383,176 257,176 257,202 383,202 383,176"/><text text-anchor="middle" x="320" y="193" style="font-family:Arial;font-size:11.00;">binary_reference_type</text></a></g><!-- 14510232 --><g id="node4" class="node"><title>14510232</title><a xlink:href="platform%3A%2Fresource%2Fsk%2FNewModel.uml%23_h4CeUNdoEeKVjp7WMrDZiQ" xlink:title="device_reference_type"><polygon style="fill:#e0ffff;stroke:#a30036;stroke-dasharray:5,2;" points="529,176 401,176 401,202 529,202 529,176"/><text text-anchor="middle" x="465" y="193" style="font-family:Arial;font-size:11.00;">device_reference_type</text></a></g><!-- 25408035 --><g id="node5" class="node"><title>25408035</title><a xlink:href="platform%3A%2Fresource%2Fsk%2FNewModel.uml%23_h34tPtdoEeKVjp7WMrDZiQ" xlink:title="trap_table_type"><polygon style="fill:#e0ffff;stroke:#a30036;stroke-dasharray:5,2;" points="639,176 547,176 547,202 639,202 639,176"/><text text-anchor="middle" x="593" y="193" style="font-family:Arial;font-size:11.00;">trap_table_type</text></a></g><!-- 13170506 --><g id="node6" class="node"><title>13170506</title><a xlink:href="platform%3A%2Fresource%2Fsk%2FNewModel.uml%23_h34tcNdoEeKVjp7WMrDZiQ" xlink:title="event_table_type"><polygon style="fill:#e0ffff;stroke:#a30036;stroke-dasharray:5,2;" points="757,176 657,176 657,202 757,202 757,176"/><text text-anchor="middle" x="707" y="193" style="font-family:Arial;font-size:11.00;">event_table_type</text></a></g><!-- 3910146 --><g id="node7" class="node"><title>3910146</title><a xlink:href="platform%3A%2Fresource%2Fsk%2FNewModel.uml%23_h3vjJ9doEeKVjp7WMrDZiQ" xlink:title="msr_type"><polygon style="fill:#e0ffff;stroke:#a30036;stroke-dasharray:5,2;" points="835,176 775,176 775,202 835,202 835,176"/><text text-anchor="middle" x="805" y="193" style="font-family:Arial;font-size:11.00;">msr_type</text></a></g><!-- 22448772 --><g id="node8" class="node"><title>22448772</title><polygon style="fill:#ffffcc;stroke:#ffffcc;" points="344,115 344,5 586,5 586,115 344,115"/><a xlink:href="platform%3A%2Fresource%2Fsk%2FNewModel.uml%23_h4CeLddoEeKVjp7WMrDZiQ" xlink:title="subject_type"><clipPath id="mypathfile:/C:/Users/reet/Desktop/hyperModelCIMI/eclipse/configuration/org.eclipse.osgi/bundles/515/1/.cp/icons/full/obj16/Class.gif22448772"><polygon points="361,8 345,8 345,25 361,25 361,8 "/></clipPath><image xlink:href="file:/C:/Users/reet/Desktop/hyperModelCIMI/eclipse/configuration/org.eclipse.osgi/bundles/515/1/.cp/icons/full/obj16/Class.gif" width="16px" height="17px" preserveAspectRatio="xMidYMid meet" x="345" y="8" clip-path="url(#mypathfile:/C:/Users/reet/Desktop/hyperModelCIMI/eclipse/configuration/org.eclipse.osgi/bundles/515/1/.cp/icons/full/obj16/Class.gif22448772)"/><text text-anchor="middle" x="474" y="21" style="font-family:Arial;font-size:13.00;">subject_type</text><polygon style="fill:none;stroke:#a30036;" points="344,28 344,5 586,5 586,28 344,28"/></a><a xlink:href="platform%3A%2Fresource%2Fsk%2FNewModel.uml%23_h4CeaNdoEeKVjp7WMrDZiQ" xlink:title="id"><text text-anchor="middle" x="432" y="39" style="font-family:Arial;font-size:11.00;">«attribute» id : nonNegativeInteger</text></a><a xlink:href="platform%3A%2Fresource%2Fsk%2FNewModel.uml%23_h4CebNdoEeKVjp7WMrDZiQ" xlink:title="name"><text text-anchor="middle" x="441" y="51" style="font-family:Arial;font-size:11.00;">«attribute» name : subject_name_type</text></a><a xlink:href="platform%3A%2Fresource%2Fsk%2FNewModel.uml%23_h4CecNdoEeKVjp7WMrDZiQ" xlink:title="profile"><text text-anchor="middle" x="444" y="63" style="font-family:Arial;font-size:11.00;">«attribute» profile : subject_profile_type</text></a><a xlink:href="platform%3A%2Fresource%2Fsk%2FNewModel.uml%23_h4CeeNdoEeKVjp7WMrDZiQ" xlink:title="cpu"><text text-anchor="middle" x="437" y="75" style="font-family:Arial;font-size:11.00;">«attribute» cpu : nonNegativeInteger</text></a><a xlink:href="platform%3A%2Fresource%2Fsk%2FNewModel.uml%23_h4CefNdoEeKVjp7WMrDZiQ" xlink:title="pml4_address"><text text-anchor="middle" x="448" y="87" style="font-family:Arial;font-size:11.00;">«attribute» pml4_address : address_type</text></a><a xlink:href="platform%3A%2Fresource%2Fsk%2FNewModel.uml%23_h4CegNdoEeKVjp7WMrDZiQ" xlink:title="io_bitmap_address"><text text-anchor="middle" x="460" y="99" style="font-family:Arial;font-size:11.00;">«attribute» io_bitmap_address : address_type</text></a><a xlink:href="platform%3A%2Fresource%2Fsk%2FNewModel.uml%23_h4CehNdoEeKVjp7WMrDZiQ" xlink:title="msr_bitmap_address"><text text-anchor="middle" x="465" y="111" style="font-family:Arial;font-size:11.00;">«attribute» msr_bitmap_address : address_type</text></a><polygon style="fill:none;stroke:#a30036;" points="344,115 344,28 586,28 586,115 344,115"/></g><!-- 22448772&#45;&gt;6305932 --><g id="edge2" class="edge"><title>22448772&#45;&gt;6305932</title><a xlink:href="platform%3A%2Fresource%2Fsk%2FNewModel.uml%23_h4CeLtdoEeKVjp7WMrDZiQ" xlink:title="initial_state\n1..1"><path style="fill:none;stroke:#a30036;" d="M332,91C286,103 234,117 188,133 155,145 119,159 92,171"/><polygon style="fill:#a30036;stroke:#a30036;" points="332,91 339,93 344,88 337,86 332,91"/><polygon style="fill:#a30036;stroke:#a30036;" points="83,175 94,175 86,174 92,171 86,174 90,167 83,175 83,175"/><text text-anchor="middle" x="223" y="142" style="font-family:Arial;font-size:10.00;">initial_state</text><text text-anchor="middle" x="223" y="154" style="font-family:Arial;font-size:10.00;">1..1</text></a></g><!-- 22448772&#45;&gt;24976396 --><g id="edge4" class="edge"><title>22448772&#45;&gt;24976396</title><a xlink:href="platform%3A%2Fresource%2Fsk%2FNewModel.uml%23_h4CePNdoEeKVjp7WMrDZiQ" xlink:title="memory_layout\n1..1"><path style="fill:none;stroke:#a30036;" d="M333,113C317,119 301,126 286,133 262,145 234,160 214,170"/><polygon style="fill:#a30036;stroke:#a30036;" points="333,113 340,114 344,108 337,107 333,113"/><polygon style="fill:#a30036;stroke:#a30036;" points="205,175 216,174 208,174 214,170 208,174 212,166 205,175 205,175"/><text text-anchor="middle" x="327" y="142" style="font-family:Arial;font-size:10.00;">memory_layout</text><text text-anchor="middle" x="327" y="154" style="font-family:Arial;font-size:10.00;">1..1</text></a></g><!-- 22448772&#45;&gt;30760775 --><g id="edge6" class="edge"><title>22448772&#45;&gt;30760775</title><a xlink:href="platform%3A%2Fresource%2Fsk%2FNewModel.uml%23_h4CeQddoEeKVjp7WMrDZiQ" xlink:title="binary\n1..1"><path style="fill:none;stroke:#a30036;" d="M394,123C376,140 357,156 343,168"/><polygon style="fill:#a30036;stroke:#a30036;" points="394,123 401,122 403,115 396,116 394,123"/><polygon style="fill:#a30036;stroke:#a30036;" points="335,175 345,172 337,173 343,168 337,173 340,165 335,175 335,175"/><text text-anchor="middle" x="398" y="142" style="font-family:Arial;font-size:10.00;">binary</text><text text-anchor="middle" x="398" y="154" style="font-family:Arial;font-size:10.00;">1..1</text></a></g><!-- 22448772&#45;&gt;14510232 --><g id="edge8" class="edge"><title>22448772&#45;&gt;14510232</title><a xlink:href="platform%3A%2Fresource%2Fsk%2FNewModel.uml%23_h4CeT9doEeKVjp7WMrDZiQ" xlink:title="device\n0..*"><path style="fill:none;stroke:#a30036;" d="M465,127C465,140 465,154 465,165"/><polygon style="fill:#a30036;stroke:#a30036;" points="465,127 469,121 465,115 461,121 465,127"/><polygon style="fill:#a30036;stroke:#a30036;" points="465,175 470,165 465,172 465,165 465,172 461,165 465,175 465,175"/><text text-anchor="middle" x="480" y="142" style="font-family:Arial;font-size:10.00;">device</text><text text-anchor="middle" x="480" y="154" style="font-family:Arial;font-size:10.00;">0..*</text></a></g><!-- 22448772&#45;&gt;25408035 --><g id="edge10" class="edge"><title>22448772&#45;&gt;25408035</title><a xlink:href="platform%3A%2Fresource%2Fsk%2FNewModel.uml%23_h4CeWddoEeKVjp7WMrDZiQ" xlink:title="trap_table\n0..1"><path style="fill:none;stroke:#a30036;" d="M529,124C545,140 560,156 572,168"/><polygon style="fill:#a30036;stroke:#a30036;" points="528,123 527,116 520,115 521,122 528,123"/><polygon style="fill:#a30036;stroke:#a30036;" points="579,175 575,165 577,173 572,168 577,173 569,171 579,175 579,175"/><text text-anchor="middle" x="581" y="142" style="font-family:Arial;font-size:10.00;">trap_table</text><text text-anchor="middle" x="581" y="154" style="font-family:Arial;font-size:10.00;">0..1</text></a></g><!-- 22448772&#45;&gt;13170506 --><g id="edge12" class="edge"><title>22448772&#45;&gt;13170506</title><a xlink:href="platform%3A%2Fresource%2Fsk%2FNewModel.uml%23_h4CeXtdoEeKVjp7WMrDZiQ" xlink:title="event_table\n0..1"><path style="fill:none;stroke:#a30036;" d="M584,120C592,125 600,129 608,133 630,145 655,159 674,170"/><polygon style="fill:#a30036;stroke:#a30036;" points="584,120 580,114 573,115 577,121 584,120"/><polygon style="fill:#a30036;stroke:#a30036;" points="683,175 676,166 680,174 674,170 680,174 672,174 683,175 683,175"/><text text-anchor="middle" x="674" y="142" style="font-family:Arial;font-size:10.00;">event_table</text><text text-anchor="middle" x="674" y="154" style="font-family:Arial;font-size:10.00;">0..1</text></a></g><!-- 22448772&#45;&gt;3910146 --><g id="edge14" class="edge"><title>22448772&#45;&gt;3910146</title><a xlink:href="platform%3A%2Fresource%2Fsk%2FNewModel.uml%23_h4CeY9doEeKVjp7WMrDZiQ" xlink:title="msr\n0..*"><path style="fill:none;stroke:#a30036;" d="M598,95C633,106 671,119 705,133 729,143 756,158 775,170"/><polygon style="fill:#a30036;stroke:#a30036;" points="598,95 593,90 586,92 591,97 598,95"/><polygon style="fill:#a30036;stroke:#a30036;" points="784,175 777,166 781,174 775,170 781,174 773,174 784,175 784,175"/><text text-anchor="middle" x="756" y="142" style="font-family:Arial;font-size:10.00;">msr</text><text text-anchor="middle" x="756" y="154" style="font-family:Arial;font-size:10.00;">0..*</text></a></g></g></svg>