<?xml version="1.0" encoding="UTF-8" standalone="no"?>
<!-- Created with Inkscape (http://www.inkscape.org/) -->

<svg
   xmlns:dc="http://purl.org/dc/elements/1.1/"
   xmlns:cc="http://creativecommons.org/ns#"
   xmlns:rdf="http://www.w3.org/1999/02/22-rdf-syntax-ns#"
   xmlns:svg="http://www.w3.org/2000/svg"
   xmlns="http://www.w3.org/2000/svg"
   xmlns:xlink="http://www.w3.org/1999/xlink"
   xmlns:inkscape="http://www.inkscape.org/namespaces/inkscape"
   version="1.1"
   width="358pt"
   height="274pt"
   viewBox="0 0 358 274"
   id="svg2">
  <metadata
     id="metadata230">
    <rdf:RDF>
      <cc:Work
         rdf:about="">
        <dc:format>image/svg+xml</dc:format>
        <dc:type
           rdf:resource="http://purl.org/dc/dcmitype/StillImage" />
      </cc:Work>
    </rdf:RDF>
  </metadata>
  <defs
     id="defs228" />
  <g
     id="graph0"
     style="font-size:14px;font-family:Times-Roman">
    <title
       id="title5">uml</title>
    <polygon
       points="-1,-1 359,-1 359,275 -1,275 -1,275 "
       id="polygon7"
       style="fill:#ffffff;stroke:#ffffff" />
    <g
       id="node1">
      <title
         id="title10">24976396</title>
      <a
         xlink:href="platform%3A%2Fresource%2Fsk%2FNewModel.uml%23_h3vjUddoEeKVjp7WMrDZiQ"
         id="a12"
         xlink:title="memory_layout_type">
        <polygon
           points="63,242 63,268 181,268 181,242 181,242 "
           id="polygon14"
           style="fill:#e0ffff;stroke:#a30036;stroke-dasharray:5, 2" />
        <text
           x="122"
           y="259"
           id="text16"
           style="font-size:11px;text-anchor:middle;font-family:Arial">memory_layout_type</text>
      </a>
    </g>
    <g
       id="node2">
      <title
         id="title19">27198372</title>
      <a
         xlink:href="platform%3A%2Fresource%2Fsk%2FNewModel.uml%23_h3vjEddoEeKVjp7WMrDZiQ"
         id="a21"
         xlink:title="io_port_type">
        <polygon
           points="235,242 235,268 311,268 311,242 311,242 "
           id="polygon23"
           style="fill:#e0ffff;stroke:#a30036;stroke-dasharray:5, 2" />
        <text
           x="273"
           y="259"
           id="text25"
           style="font-size:11px;text-anchor:middle;font-family:Arial">io_port_type</text>
      </a>
    </g>
    <g
       id="node3">
      <title
         id="title28">134954</title>
      <polygon
         points="83,5 275,5 275,69 83,69 83,69 "
         id="polygon30"
         style="fill:#ffffcc;stroke:#ffffcc" />
      <a
         xlink:href="platform%3A%2Fresource%2Fsk%2FNewModel.uml%23_h3vjcNdoEeKVjp7WMrDZiQ"
         id="a32"
         xlink:title="device_type">
        <text
           x="179"
           y="17"
           id="text34"
           style="font-size:11px;text-anchor:middle;font-family:Arial">«choice»</text>
        <text
           x="187"
           y="35"
           id="text41"
           style="font-size:13px;text-anchor:middle;font-family:Arial">device_type</text>
        <polygon
           points="83,5 275,5 275,42 83,42 83,42 "
           id="polygon43"
           style="fill:none;stroke:#a30036" />
      </a>
      <a
         xlink:href="platform%3A%2Fresource%2Fsk%2FNewModel.uml%23_h34s-tdoEeKVjp7WMrDZiQ"
         id="a45"
         xlink:title="name">
        <text
           x="179"
           y="53"
           id="text47"
           style="font-size:11px;text-anchor:middle;font-family:Arial">«attribute» name : device_name_type</text>
      </a>
      <a
         xlink:href="platform%3A%2Fresource%2Fsk%2FNewModel.uml%23_h34s_tdoEeKVjp7WMrDZiQ"
         id="a49"
         xlink:title="irq">
        <text
           x="158"
           y="65"
           id="text51"
           style="font-size:11px;text-anchor:middle;font-family:Arial">«attribute» irq : irq_type [0..1]</text>
      </a>
      <polygon
         points="83,42 275,42 275,69 83,69 83,69 "
         id="polygon53"
         style="fill:none;stroke:#a30036" />
    </g>
    <g
       id="node4">
      <title
         id="title56">21354435</title>
      <polygon
         points="5,129 109,129 109,181 5,181 5,181 "
         id="polygon58"
         style="fill:#ffffcc;stroke:#ffffcc" />
      <a
         xlink:href="platform%3A%2Fresource%2Fsk%2FNewModel.uml%23_h3vjcddoEeKVjp7WMrDZiQ"
         id="a60"
         xlink:title="_Sequence1">
        <text
           x="57"
           y="141"
           id="text62"
           style="font-size:11px;text-anchor:middle;font-family:Arial">«group, sequence»</text>
        <text
           x="65"
           y="159"
           id="text69"
           style="font-size:13px;text-anchor:middle;font-family:Arial">_Sequence1</text>
        <polygon
           points="5,129 109,129 109,166 5,166 5,166 "
           id="polygon71"
           style="fill:none;stroke:#a30036" />
      </a>
      <text
         x="57"
         y="177"
         id="text73"
         style="font-size:11px;text-anchor:middle;font-family:Arial" />
      <polygon
         points="5,166 109,166 109,181 5,181 5,181 "
         id="polygon75"
         style="fill:none;stroke:#a30036" />
    </g>
    <g
       id="edge2">
      <title
         id="title78">134954-&gt;21354435</title>
      <a
         xlink:href="platform%3A%2Fresource%2Fsk%2FNewModel.uml%23_h3vjeddoEeKVjp7WMrDZiQ"
         id="a80"
         xlink:title="_sequence1\n1..1">
        <path
           d="m 130,77 c -4,3 -8,7 -11,10 -11,11 -22,23 -32,34"
           inkscape:connector-curvature="0"
           id="path82"
           style="fill:none;stroke:#a30036" />
        <polygon
           points="137,76 139,69 132,70 130,77 130,77 "
           id="polygon84"
           style="fill:#a30036;stroke:#a30036" />
        <polygon
           points="90,124 82,127 87,121 82,127 83,119 80,129 80,129 80,129 "
           id="polygon86"
           style="fill:#a30036;stroke:#a30036" />
        <text
           x="147"
           y="96"
           id="text88"
           style="font-size:10px;text-anchor:middle;font-family:Arial">_sequence1</text>
        <text
           x="147"
           y="108"
           id="text90"
           style="font-size:10px;text-anchor:middle;font-family:Arial">1..1</text>
      </a>
    </g>
    <g
       id="node5">
      <title
         id="title93">7470998</title>
      <polygon
         points="249,129 353,129 353,181 249,181 249,181 "
         id="polygon95"
         style="fill:#ffffcc;stroke:#ffffcc" />
      <a
         xlink:href="platform%3A%2Fresource%2Fsk%2FNewModel.uml%23_h3vjftdoEeKVjp7WMrDZiQ"
         id="a97"
         xlink:title="_Sequence2">
        <text
           x="301"
           y="141"
           id="text99"
           style="font-size:11px;text-anchor:middle;font-family:Arial">«group, sequence»</text>
        <text
           x="309"
           y="159"
           id="text106"
           style="font-size:13px;text-anchor:middle;font-family:Arial">_Sequence2</text>
        <polygon
           points="249,129 353,129 353,166 249,166 249,166 "
           id="polygon108"
           style="fill:none;stroke:#a30036" />
      </a>
      <text
         x="301"
         y="177"
         id="text110"
         style="font-size:11px;text-anchor:middle;font-family:Arial" />
      <polygon
         points="249,166 353,166 353,181 249,181 249,181 "
         id="polygon112"
         style="fill:none;stroke:#a30036" />
    </g>
    <g
       id="edge4">
      <title
         id="title115">134954-&gt;7470998</title>
      <a
         xlink:href="platform%3A%2Fresource%2Fsk%2FNewModel.uml%23_h34s4tdoEeKVjp7WMrDZiQ"
         id="a117"
         xlink:title="_sequence2\n1..1">
        <path
           d="m 227,77 c 4,3 8,7 12,10 11,11 22,23 32,34"
           inkscape:connector-curvature="0"
           id="path119"
           style="fill:none;stroke:#a30036" />
        <polygon
           points="225,70 218,69 220,76 227,77 227,77 "
           id="polygon121"
           style="fill:#a30036;stroke:#a30036" />
        <polygon
           points="275,119 276,127 271,121 276,127 268,124 278,129 278,129 278,129 "
           id="polygon123"
           style="fill:#a30036;stroke:#a30036" />
        <text
           x="286"
           y="96"
           id="text125"
           style="font-size:10px;text-anchor:middle;font-family:Arial">_sequence2</text>
        <text
           x="286"
           y="108"
           id="text127"
           style="font-size:10px;text-anchor:middle;font-family:Arial">1..1</text>
      </a>
    </g>
    <g
       id="node6">
      <title
         id="title130">16193154</title>
      <polygon
         points="127,129 231,129 231,181 127,181 127,181 "
         id="polygon132"
         style="fill:#ffffcc;stroke:#ffffcc" />
      <a
         xlink:href="platform%3A%2Fresource%2Fsk%2FNewModel.uml%23_h34s59doEeKVjp7WMrDZiQ"
         id="a134"
         xlink:title="_Sequence3">
        <text
           x="179"
           y="141"
           id="text136"
           style="font-size:11px;text-anchor:middle;font-family:Arial">«group, sequence»</text>
        <text
           x="187"
           y="159"
           id="text143"
           style="font-size:13px;text-anchor:middle;font-family:Arial">_Sequence3</text>
        <polygon
           points="127,129 231,129 231,166 127,166 127,166 "
           id="polygon145"
           style="fill:none;stroke:#a30036" />
      </a>
      <text
         x="179"
         y="177"
         id="text147"
         style="font-size:11px;text-anchor:middle;font-family:Arial" />
      <polygon
         points="127,166 231,166 231,181 127,181 127,181 "
         id="polygon149"
         style="fill:none;stroke:#a30036" />
    </g>
    <g
       id="edge6">
      <title
         id="title152">134954-&gt;16193154</title>
      <a
         xlink:href="platform%3A%2Fresource%2Fsk%2FNewModel.uml%23_h34s9NdoEeKVjp7WMrDZiQ"
         id="a154"
         xlink:title="_sequence3\n1..1">
        <path
           d="m 179,81 c 0,12 0,26 0,38"
           inkscape:connector-curvature="0"
           id="path156"
           style="fill:none;stroke:#a30036" />
        <polygon
           points="183,75 179,69 175,75 179,81 179,81 "
           id="polygon158"
           style="fill:#a30036;stroke:#a30036" />
        <polygon
           points="184,119 179,126 179,119 179,126 175,119 179,129 179,129 179,129 "
           id="polygon160"
           style="fill:#a30036;stroke:#a30036" />
        <text
           x="207"
           y="96"
           id="text162"
           style="font-size:10px;text-anchor:middle;font-family:Arial">_sequence3</text>
        <text
           x="207"
           y="108"
           id="text164"
           style="font-size:10px;text-anchor:middle;font-family:Arial">1..1</text>
      </a>
    </g>
    <g
       id="edge8">
      <title
         id="title167">21354435-&gt;24976396</title>
      <a
         xlink:href="platform%3A%2Fresource%2Fsk%2FNewModel.uml%23_h3vjdNdoEeKVjp7WMrDZiQ"
         id="a169"
         xlink:title="memory_layout\n1..1">
        <path
           d="m 57,193 c 1,11 4,21 10,30 3,5 7,9 12,12"
           inkscape:connector-curvature="0"
           id="path171"
           style="fill:none;stroke:#a30036" />
        <polygon
           points="60,187 56,181 53,187 57,193 57,193 "
           id="polygon173"
           style="fill:#a30036;stroke:#a30036" />
        <polygon
           points="82,231 85,239 79,235 85,239 76,239 87,241 87,241 87,241 "
           id="polygon175"
           style="fill:#a30036;stroke:#a30036" />
        <text
           x="102"
           y="208"
           id="text177"
           style="font-size:10px;text-anchor:middle;font-family:Arial">memory_layout</text>
        <text
           x="102"
           y="220"
           id="text179"
           style="font-size:10px;text-anchor:middle;font-family:Arial">1..1</text>
      </a>
    </g>
    <g
       id="edge10">
      <title
         id="title182">7470998-&gt;27198372</title>
      <a
         xlink:href="platform%3A%2Fresource%2Fsk%2FNewModel.uml%23_h3vjgddoEeKVjp7WMrDZiQ"
         id="a184"
         xlink:title="io_port\n1..*">
        <path
           d="m 291,193 c -5,13 -9,27 -11,38"
           inkscape:connector-curvature="0"
           id="path186"
           style="fill:none;stroke:#a30036" />
        <polygon
           points="296,188 294,181 289,186 291,193 291,193 "
           id="polygon188"
           style="fill:#a30036;stroke:#a30036" />
        <polygon
           points="284,233 278,238 280,231 278,238 276,230 277,241 277,241 277,241 "
           id="polygon190"
           style="fill:#a30036;stroke:#a30036" />
        <text
           x="303"
           y="208"
           id="text192"
           style="font-size:10px;text-anchor:middle;font-family:Arial">io_port</text>
        <text
           x="303"
           y="220"
           id="text194"
           style="font-size:10px;text-anchor:middle;font-family:Arial">1..*</text>
      </a>
    </g>
    <g
       id="edge12">
      <title
         id="title197">16193154-&gt;24976396</title>
      <a
         xlink:href="platform%3A%2Fresource%2Fsk%2FNewModel.uml%23_h34s6tdoEeKVjp7WMrDZiQ"
         id="a199"
         xlink:title="memory_layout\n1..1">
        <path
           d="m 158,192 c -8,13 -16,28 -23,40"
           inkscape:connector-curvature="0"
           id="path201"
           style="fill:none;stroke:#a30036" />
        <polygon
           points="165,188 164,181 158,184 158,192 158,192 "
           id="polygon203"
           style="fill:#a30036;stroke:#a30036" />
        <polygon
           points="139,234 131,238 135,232 131,238 131,230 130,241 130,241 130,241 "
           id="polygon205"
           style="fill:#a30036;stroke:#a30036" />
        <text
           x="188"
           y="208"
           id="text207"
           style="font-size:10px;text-anchor:middle;font-family:Arial">memory_layout</text>
        <text
           x="188"
           y="220"
           id="text209"
           style="font-size:10px;text-anchor:middle;font-family:Arial">1..1</text>
      </a>
    </g>
    <g
       id="edge14">
      <title
         id="title212">16193154-&gt;27198372</title>
      <a
         xlink:href="platform%3A%2Fresource%2Fsk%2FNewModel.uml%23_h34s79doEeKVjp7WMrDZiQ"
         id="a214"
         xlink:title="io_port\n1..*">
        <path
           d="m 215,190 c 3,3 6,6 9,9 10,11 21,24 30,34"
           inkscape:connector-curvature="0"
           id="path216"
           style="fill:none;stroke:#a30036" />
        <polygon
           points="213,182 206,181 207,188 214,189 214,189 "
           id="polygon218"
           style="fill:#a30036;stroke:#a30036" />
        <polygon
           points="258,231 259,239 254,233 259,239 251,236 261,241 261,241 261,241 "
           id="polygon220"
           style="fill:#a30036;stroke:#a30036" />
        <text
           x="257"
           y="208"
           id="text222"
           style="font-size:10px;text-anchor:middle;font-family:Arial">io_port</text>
        <text
           x="257"
           y="220"
           id="text224"
           style="font-size:10px;text-anchor:middle;font-family:Arial">1..*</text>
      </a>
    </g>
  </g>
</svg>
