<?xml version="1.0" encoding="UTF-8" standalone="no"?><!DOCTYPE svg PUBLIC "-//W3C//DTD SVG 1.0//EN" "http://www.w3.org/TR/2001/REC-SVG-20010904/DTD/svg10.dtd" [ <!ATTLIST svg xmlns:xlink CDATA #FIXED "http://www.w3.org/1999/xlink">]><!-- Generated by dot version 2.7.20051103.0540 (Thu Nov  3 05:48:38 UTC 2005)     For user: Bill Gates --><!-- Title: uml Pages: 1 --><svg width="194pt" height="136pt" viewBox = "0 0 194 136" xmlns="http://www.w3.org/2000/svg" xmlns:xlink="http://www.w3.org/1999/xlink"><g id="graph0" class="graph" style="font-family:Times-Roman;font-size:14.00;"><title>uml</title><polygon style="fill:white;stroke:white;" points="-1,137 -1,-1 195,-1 195,137 -1,137"/><!-- 12583487 --><g id="node1" class="node"><title>12583487</title><a xlink:href="platform%3A%2Fresource%2Fsk%2FNewModel.uml%23_h4CeCtdoEeKVjp7WMrDZiQ" xlink:title="major_frame_type"><polygon style="fill:#e0ffff;stroke:#a30036;stroke-dasharray:5,2;" points="149,104 45,104 45,130 149,130 149,104"/><text text-anchor="middle" x="97" y="121" style="font-family:Arial;font-size:11.00;">major_frame_type</text></a></g><!-- 8527732 --><g id="node2" class="node"><title>8527732</title><polygon style="fill:#ffffcc;stroke:#ffffcc;" points="5,43 5,5 189,5 189,43 5,43"/><a xlink:href="platform%3A%2Fresource%2Fsk%2FNewModel.uml%23_h4CeENdoEeKVjp7WMrDZiQ" xlink:title="scheduling_type"><clipPath id="mypathfile:/C:/Users/reet/Desktop/hyperModelCIMI/eclipse/configuration/org.eclipse.osgi/bundles/515/1/.cp/icons/full/obj16/Class.gif8527732"><polygon points="22,8 6,8 6,25 22,25 22,8 "/></clipPath><image xlink:href="file:/C:/Users/reet/Desktop/hyperModelCIMI/eclipse/configuration/org.eclipse.osgi/bundles/515/1/.cp/icons/full/obj16/Class.gif" width="16px" height="17px" preserveAspectRatio="xMidYMid meet" x="6" y="8" clip-path="url(#mypathfile:/C:/Users/reet/Desktop/hyperModelCIMI/eclipse/configuration/org.eclipse.osgi/bundles/515/1/.cp/icons/full/obj16/Class.gif8527732)"/><text text-anchor="middle" x="105" y="21" style="font-family:Arial;font-size:13.00;">scheduling_type</text><polygon style="fill:none;stroke:#a30036;" points="5,28 5,5 189,5 189,28 5,28"/></a><a xlink:href="platform%3A%2Fresource%2Fsk%2FNewModel.uml%23_h4CeFtdoEeKVjp7WMrDZiQ" xlink:title="tick_rate"><text text-anchor="middle" x="97" y="39" style="font-family:Arial;font-size:11.00;">«attribute» tick_rate : positiveInteger</text></a><polygon style="fill:none;stroke:#a30036;" points="5,43 5,28 189,28 189,43 5,43"/></g><!-- 8527732&#45;&gt;12583487 --><g id="edge2" class="edge"><title>8527732&#45;&gt;12583487</title><a xlink:href="platform%3A%2Fresource%2Fsk%2FNewModel.uml%23_h4CeEddoEeKVjp7WMrDZiQ" xlink:title="major_frame\n1..*"><path style="fill:none;stroke:#a30036;" d="M97,55C97,68 97,82 97,93"/><polygon style="fill:#a30036;stroke:#a30036;" points="97,55 101,49 97,43 93,49 97,55"/><polygon style="fill:#a30036;stroke:#a30036;" points="97,103 102,93 97,100 97,93 97,100 93,93 97,103 97,103"/><text text-anchor="middle" x="126" y="70" style="font-family:Arial;font-size:10.00;">major_frame</text><text text-anchor="middle" x="126" y="82" style="font-family:Arial;font-size:10.00;">1..*</text></a></g></g></svg>