<?xml version="1.0" encoding="UTF-8" standalone="no"?><!DOCTYPE svg PUBLIC "-//W3C//DTD SVG 1.0//EN" "http://www.w3.org/TR/2001/REC-SVG-20010904/DTD/svg10.dtd" [ <!ATTLIST svg xmlns:xlink CDATA #FIXED "http://www.w3.org/1999/xlink">]><!-- Generated by dot version 2.7.20051103.0540 (Thu Nov  3 05:48:38 UTC 2005)     For user: Bill Gates --><!-- Title: uml Pages: 1 --><svg width="198pt" height="198pt" viewBox = "0 0 198 198" xmlns="http://www.w3.org/2000/svg" xmlns:xlink="http://www.w3.org/1999/xlink"><g id="graph0" class="graph" style="font-family:Times-Roman;font-size:14.00;"><title>uml</title><polygon style="fill:white;stroke:white;" points="-1,199 -1,-1 199,-1 199,199 -1,199"/><!-- 9372006 --><g id="node1" class="node"><title>9372006</title><a xlink:href="pathmap%3A%2F%2FXMLmodeling_LIBRARIES%2FXSDDataTypes.library.uml%23_3RzJWUtXEdqhPYJq3sEkGA" xlink:title="string"><polygon style="fill:#e0ffff;stroke:#a30036;stroke-dasharray:5,2;" points="120,6 78,6 78,32 120,32 120,6"/><text text-anchor="middle" x="99" y="23" style="font-family:Arial;font-size:11.00;">string</text></a></g><!-- 9819916 --><g id="node3" class="node"><title>9819916</title><polygon style="fill:#ffffcc;stroke:#ffffcc;" points="5,107 5,69 193,69 193,107 5,107"/><a xlink:href="platform%3A%2Fresource%2Fsk%2FNewModel.uml%23_h3lx9NdoEeKVjp7WMrDZiQ" xlink:title="hex_string"><clipPath id="mypathfile:/C:/Users/reet/Desktop/hyperModelCIMI/eclipse/configuration/org.eclipse.osgi/bundles/515/1/.cp/icons/full/obj16/DataType.gif9819916"><polygon points="22,72 6,72 6,89 22,89 22,72 "/></clipPath><image xlink:href="file:/C:/Users/reet/Desktop/hyperModelCIMI/eclipse/configuration/org.eclipse.osgi/bundles/515/1/.cp/icons/full/obj16/DataType.gif" width="16px" height="17px" preserveAspectRatio="xMidYMid meet" x="6" y="72" clip-path="url(#mypathfile:/C:/Users/reet/Desktop/hyperModelCIMI/eclipse/configuration/org.eclipse.osgi/bundles/515/1/.cp/icons/full/obj16/DataType.gif9819916)"/><text text-anchor="middle" x="107" y="85" style="font-family:Arial;font-size:13.00;">hex_string</text><polygon style="fill:none;stroke:#a30036;" points="5,92 5,69 193,69 193,92 5,92"/></a><a xlink:href="platform%3A%2Fresource%2Fsk%2FNewModel.uml%23_h3vi8NdoEeKVjp7WMrDZiQ" xlink:title="pattern"><text text-anchor="middle" x="99" y="103" style="font-family:Arial;font-size:11.00;">«facet» pattern : string = [0&#45;9a&#45;fA&#45;F]+</text></a><polygon style="fill:none;stroke:#a30036;" points="5,107 5,92 193,92 193,107 5,107"/></g><!-- 9372006&#45;&gt;9819916 --><g id="edge4" class="edge"><title>9372006&#45;&gt;9819916</title><path style="fill:none;stroke:#000080;" d="M99,48C99,55 99,62 99,69"/><polygon style="fill:none;stroke:#000080;" points="94,48 99,33 104,48 94,48"/></g><!-- 16136671 --><g id="node2" class="node"><title>16136671</title><polygon style="fill:#ffffcc;stroke:#ffffcc;" points="21,193 21,143 177,143 177,193 21,193"/><a xlink:href="platform%3A%2Fresource%2Fsk%2FNewModel.uml%23_h3vjH9doEeKVjp7WMrDZiQ" xlink:title="msr_address_type"><clipPath id="mypathfile:/C:/Users/reet/Desktop/hyperModelCIMI/eclipse/configuration/org.eclipse.osgi/bundles/515/1/.cp/icons/full/obj16/DataType.gif16136671"><polygon points="38,146 22,146 22,163 38,163 38,146 "/></clipPath><image xlink:href="file:/C:/Users/reet/Desktop/hyperModelCIMI/eclipse/configuration/org.eclipse.osgi/bundles/515/1/.cp/icons/full/obj16/DataType.gif" width="16px" height="17px" preserveAspectRatio="xMidYMid meet" x="22" y="146" clip-path="url(#mypathfile:/C:/Users/reet/Desktop/hyperModelCIMI/eclipse/configuration/org.eclipse.osgi/bundles/515/1/.cp/icons/full/obj16/DataType.gif16136671)"/><text text-anchor="middle" x="108" y="159" style="font-family:Arial;font-size:13.00;">msr_address_type</text><polygon style="fill:none;stroke:#a30036;" points="21,166 21,143 177,143 177,166 21,166"/></a><a xlink:href="platform%3A%2Fresource%2Fsk%2FNewModel.uml%23_h3vjINdoEeKVjp7WMrDZiQ" xlink:title="minLength"><text text-anchor="middle" x="97" y="177" style="font-family:Arial;font-size:11.00;">«facet» minLength : string = 1</text></a><a xlink:href="platform%3A%2Fresource%2Fsk%2FNewModel.uml%23_h3vjI9doEeKVjp7WMrDZiQ" xlink:title="maxLength"><text text-anchor="middle" x="99" y="189" style="font-family:Arial;font-size:11.00;">«facet» maxLength : string = 8</text></a><polygon style="fill:none;stroke:#a30036;" points="21,193 21,166 177,166 177,193 21,193"/></g><!-- 9819916&#45;&gt;16136671 --><g id="edge2" class="edge"><title>9819916&#45;&gt;16136671</title><path style="fill:none;stroke:#000080;" d="M99,122C99,129 99,136 99,143"/><polygon style="fill:none;stroke:#000080;" points="94,122 99,107 104,122 94,122"/></g></g></svg>