<?xml version="1.0" encoding="UTF-8" standalone="no"?><!DOCTYPE svg PUBLIC "-//W3C//DTD SVG 1.0//EN" "http://www.w3.org/TR/2001/REC-SVG-20010904/DTD/svg10.dtd" [ <!ATTLIST svg xmlns:xlink CDATA #FIXED "http://www.w3.org/1999/xlink">]><!-- Generated by dot version 2.7.20051103.0540 (Thu Nov  3 05:48:38 UTC 2005)     For user: Bill Gates --><!-- Title: uml Pages: 1 --><svg width="234pt" height="60pt" viewBox = "0 0 234 60" xmlns="http://www.w3.org/2000/svg" xmlns:xlink="http://www.w3.org/1999/xlink"><g id="graph0" class="graph" style="font-family:Times-Roman;font-size:14.00;"><title>uml</title><polygon style="fill:white;stroke:white;" points="-1,61 -1,-1 235,-1 235,61 -1,61"/><!-- 30760775 --><g id="node1" class="node"><title>30760775</title><polygon style="fill:#ffffcc;stroke:#ffffcc;" points="5,55 5,5 229,5 229,55 5,55"/><a xlink:href="platform%3A%2Fresource%2Fsk%2FNewModel.uml%23_h4CeQtdoEeKVjp7WMrDZiQ" xlink:title="binary_reference_type"><clipPath id="mypathfile:/C:/Users/reet/Desktop/hyperModelCIMI/eclipse/configuration/org.eclipse.osgi/bundles/515/1/.cp/icons/full/obj16/Class.gif30760775"><polygon points="22,8 6,8 6,25 22,25 22,8 "/></clipPath><image xlink:href="file:/C:/Users/reet/Desktop/hyperModelCIMI/eclipse/configuration/org.eclipse.osgi/bundles/515/1/.cp/icons/full/obj16/Class.gif" width="16px" height="17px" preserveAspectRatio="xMidYMid meet" x="6" y="8" clip-path="url(#mypathfile:/C:/Users/reet/Desktop/hyperModelCIMI/eclipse/configuration/org.eclipse.osgi/bundles/515/1/.cp/icons/full/obj16/Class.gif30760775)"/><text text-anchor="middle" x="126" y="21" style="font-family:Arial;font-size:13.00;">binary_reference_type</text><polygon style="fill:none;stroke:#a30036;" points="5,28 5,5 229,5 229,28 5,28"/></a><a xlink:href="platform%3A%2Fresource%2Fsk%2FNewModel.uml%23_h4CeQ9doEeKVjp7WMrDZiQ" xlink:title="name"><text text-anchor="middle" x="68" y="39" style="font-family:Arial;font-size:11.00;">«attribute» name : string</text></a><a xlink:href="platform%3A%2Fresource%2Fsk%2FNewModel.uml%23_h4CeR9doEeKVjp7WMrDZiQ" xlink:title="physical_address"><text text-anchor="middle" x="117" y="51" style="font-family:Arial;font-size:11.00;">«attribute» physical_address : address_type</text></a><polygon style="fill:none;stroke:#a30036;" points="5,55 5,28 229,28 229,55 5,55"/></g></g></svg>