<?xml version="1.0" encoding="UTF-8" standalone="no"?><!DOCTYPE svg PUBLIC "-//W3C//DTD SVG 1.0//EN" "http://www.w3.org/TR/2001/REC-SVG-20010904/DTD/svg10.dtd" [ <!ATTLIST svg xmlns:xlink CDATA #FIXED "http://www.w3.org/1999/xlink">]><!-- Generated by dot version 2.7.20051103.0540 (Thu Nov  3 05:48:38 UTC 2005)     For user: Bill Gates --><!-- Title: uml Pages: 1 --><svg width="128pt" height="148pt" viewBox = "0 0 128 148" xmlns="http://www.w3.org/2000/svg" xmlns:xlink="http://www.w3.org/1999/xlink"><g id="graph0" class="graph" style="font-family:Times-Roman;font-size:14.00;"><title>uml</title><polygon style="fill:white;stroke:white;" points="-1,149 -1,-1 129,-1 129,149 -1,149"/><!-- 11971069 --><g id="node1" class="node"><title>11971069</title><a xlink:href="platform%3A%2Fresource%2Fsk%2FNewModel.uml%23_h34tJ9doEeKVjp7WMrDZiQ" xlink:title="entry_type"><polygon style="fill:#e0ffff;stroke:#a30036;stroke-dasharray:5,2;" points="97,116 31,116 31,142 97,142 97,116"/><text text-anchor="middle" x="64" y="133" style="font-family:Arial;font-size:11.00;">entry_type</text></a></g><!-- 25408035 --><g id="node2" class="node"><title>25408035</title><polygon style="fill:#ffffcc;stroke:#ffffcc;" points="5,43 5,5 123,5 123,43 5,43"/><a xlink:href="platform%3A%2Fresource%2Fsk%2FNewModel.uml%23_h34tPtdoEeKVjp7WMrDZiQ" xlink:title="trap_table_type"><clipPath id="mypathfile:/C:/Users/reet/Desktop/hyperModelCIMI/eclipse/configuration/org.eclipse.osgi/bundles/515/1/.cp/icons/full/obj16/Class.gif25408035"><polygon points="22,8 6,8 6,25 22,25 22,8 "/></clipPath><image xlink:href="file:/C:/Users/reet/Desktop/hyperModelCIMI/eclipse/configuration/org.eclipse.osgi/bundles/515/1/.cp/icons/full/obj16/Class.gif" width="16px" height="17px" preserveAspectRatio="xMidYMid meet" x="6" y="8" clip-path="url(#mypathfile:/C:/Users/reet/Desktop/hyperModelCIMI/eclipse/configuration/org.eclipse.osgi/bundles/515/1/.cp/icons/full/obj16/Class.gif25408035)"/><text text-anchor="middle" x="73" y="21" style="font-family:Arial;font-size:13.00;">trap_table_type</text><polygon style="fill:none;stroke:#a30036;" points="5,28 5,5 123,5 123,28 5,28"/></a><text text-anchor="middle" x="64" y="39" style="font-family:Arial;font-size:11.00;"> </text><polygon style="fill:none;stroke:#a30036;" points="5,43 5,28 123,28 123,43 5,43"/></g><!-- 25408035&#45;&gt;11971069 --><g id="edge2" class="edge"><title>25408035&#45;&gt;11971069</title><a xlink:href="platform%3A%2Fresource%2Fsk%2FNewModel.uml%23_h34tP9doEeKVjp7WMrDZiQ" xlink:title="entry\n1..52\n {unique}"><path style="fill:none;stroke:#a30036;" d="M64,55C64,71 64,90 64,105"/><polygon style="fill:#a30036;stroke:#a30036;" points="64,55 68,49 64,43 60,49 64,55"/><polygon style="fill:#a30036;stroke:#a30036;" points="64,115 69,105 64,112 64,105 64,112 60,105 64,115 64,115"/><text text-anchor="middle" x="84" y="70" style="font-family:Arial;font-size:10.00;">entry</text><text text-anchor="middle" x="84" y="82" style="font-family:Arial;font-size:10.00;">1..52</text><text text-anchor="middle" x="84" y="94" style="font-family:Arial;font-size:10.00;"> {unique}</text></a></g></g></svg>