<?xml version="1.0" encoding="UTF-8" standalone="no"?><!DOCTYPE svg PUBLIC "-//W3C//DTD SVG 1.0//EN" "http://www.w3.org/TR/2001/REC-SVG-20010904/DTD/svg10.dtd" [ <!ATTLIST svg xmlns:xlink CDATA #FIXED "http://www.w3.org/1999/xlink">]><!-- Generated by dot version 2.7.20051103.0540 (Thu Nov  3 05:48:38 UTC 2005)     For user: Bill Gates --><!-- Title: uml Pages: 1 --><svg width="228pt" height="112pt" viewBox = "0 0 228 112" xmlns="http://www.w3.org/2000/svg" xmlns:xlink="http://www.w3.org/1999/xlink"><g id="graph0" class="graph" style="font-family:Times-Roman;font-size:14.00;"><title>uml</title><polygon style="fill:white;stroke:white;" points="-1,113 -1,-1 229,-1 229,113 -1,113"/><!-- 9372006 --><g id="node1" class="node"><title>9372006</title><a xlink:href="pathmap%3A%2F%2FXMLmodeling_LIBRARIES%2FXSDDataTypes.library.uml%23_3RzJWUtXEdqhPYJq3sEkGA" xlink:title="string"><polygon style="fill:#e0ffff;stroke:#a30036;stroke-dasharray:5,2;" points="135,6 93,6 93,32 135,32 135,6"/><text text-anchor="middle" x="114" y="23" style="font-family:Arial;font-size:11.00;">string</text></a></g><!-- 2217909 --><g id="node2" class="node"><title>2217909</title><polygon style="fill:#ffffcc;stroke:#ffffcc;" points="5,107 5,69 223,69 223,107 5,107"/><a xlink:href="platform%3A%2Fresource%2Fsk%2FNewModel.uml%23_h3vjAddoEeKVjp7WMrDZiQ" xlink:title="memory_alignment_type"><clipPath id="mypathfile:/C:/Users/reet/Desktop/hyperModelCIMI/eclipse/configuration/org.eclipse.osgi/bundles/515/1/.cp/icons/full/obj16/DataType.gif2217909"><polygon points="22,72 6,72 6,89 22,89 22,72 "/></clipPath><image xlink:href="file:/C:/Users/reet/Desktop/hyperModelCIMI/eclipse/configuration/org.eclipse.osgi/bundles/515/1/.cp/icons/full/obj16/DataType.gif" width="16px" height="17px" preserveAspectRatio="xMidYMid meet" x="6" y="72" clip-path="url(#mypathfile:/C:/Users/reet/Desktop/hyperModelCIMI/eclipse/configuration/org.eclipse.osgi/bundles/515/1/.cp/icons/full/obj16/DataType.gif2217909)"/><text text-anchor="middle" x="122" y="85" style="font-family:Arial;font-size:13.00;">memory_alignment_type</text><polygon style="fill:none;stroke:#a30036;" points="5,92 5,69 223,69 223,92 5,92"/></a><a xlink:href="platform%3A%2Fresource%2Fsk%2FNewModel.uml%23_h3vjAtdoEeKVjp7WMrDZiQ" xlink:title="pattern"><text text-anchor="middle" x="114" y="103" style="font-family:Arial;font-size:11.00;">«facet» pattern : string = 4[kK]|2[mM]|1[gG]</text></a><polygon style="fill:none;stroke:#a30036;" points="5,107 5,92 223,92 223,107 5,107"/></g><!-- 9372006&#45;&gt;2217909 --><g id="edge2" class="edge"><title>9372006&#45;&gt;2217909</title><path style="fill:none;stroke:#000080;" d="M114,48C114,55 114,62 114,69"/><polygon style="fill:none;stroke:#000080;" points="109,48 114,33 119,48 109,48"/></g></g></svg>