<?xml version="1.0" encoding="UTF-8" standalone="no"?><!DOCTYPE svg PUBLIC "-//W3C//DTD SVG 1.0//EN" "http://www.w3.org/TR/2001/REC-SVG-20010904/DTD/svg10.dtd" [ <!ATTLIST svg xmlns:xlink CDATA #FIXED "http://www.w3.org/1999/xlink">]><!-- Generated by dot version 2.7.20051103.0540 (Thu Nov  3 05:48:38 UTC 2005)     For user: Bill Gates --><!-- Title: uml Pages: 1 --><svg width="158pt" height="136pt" viewBox = "0 0 158 136" xmlns="http://www.w3.org/2000/svg" xmlns:xlink="http://www.w3.org/1999/xlink"><g id="graph0" class="graph" style="font-family:Times-Roman;font-size:14.00;"><title>uml</title><polygon style="fill:white;stroke:white;" points="-1,137 -1,-1 159,-1 159,137 -1,137"/><!-- 24981620 --><g id="node1" class="node"><title>24981620</title><a xlink:href="platform%3A%2Fresource%2Fsk%2FNewModel.uml%23_h3vjNNdoEeKVjp7WMrDZiQ" xlink:title="memory_region_type"><polygon style="fill:#e0ffff;stroke:#a30036;stroke-dasharray:5,2;" points="138,104 20,104 20,130 138,130 138,104"/><text text-anchor="middle" x="79" y="121" style="font-family:Arial;font-size:11.00;">memory_region_type</text></a></g><!-- 24976396 --><g id="node2" class="node"><title>24976396</title><polygon style="fill:#ffffcc;stroke:#ffffcc;" points="5,43 5,5 153,5 153,43 5,43"/><a xlink:href="platform%3A%2Fresource%2Fsk%2FNewModel.uml%23_h3vjUddoEeKVjp7WMrDZiQ" xlink:title="memory_layout_type"><clipPath id="mypathfile:/C:/Users/reet/Desktop/hyperModelCIMI/eclipse/configuration/org.eclipse.osgi/bundles/515/1/.cp/icons/full/obj16/Class.gif24976396"><polygon points="22,8 6,8 6,25 22,25 22,8 "/></clipPath><image xlink:href="file:/C:/Users/reet/Desktop/hyperModelCIMI/eclipse/configuration/org.eclipse.osgi/bundles/515/1/.cp/icons/full/obj16/Class.gif" width="16px" height="17px" preserveAspectRatio="xMidYMid meet" x="6" y="8" clip-path="url(#mypathfile:/C:/Users/reet/Desktop/hyperModelCIMI/eclipse/configuration/org.eclipse.osgi/bundles/515/1/.cp/icons/full/obj16/Class.gif24976396)"/><text text-anchor="middle" x="88" y="21" style="font-family:Arial;font-size:13.00;">memory_layout_type</text><polygon style="fill:none;stroke:#a30036;" points="5,28 5,5 153,5 153,28 5,28"/></a><text text-anchor="middle" x="79" y="39" style="font-family:Arial;font-size:11.00;"> </text><polygon style="fill:none;stroke:#a30036;" points="5,43 5,28 153,28 153,43 5,43"/></g><!-- 24976396&#45;&gt;24981620 --><g id="edge2" class="edge"><title>24976396&#45;&gt;24981620</title><a xlink:href="platform%3A%2Fresource%2Fsk%2FNewModel.uml%23_h3vjUtdoEeKVjp7WMrDZiQ" xlink:title="memory_region\n1..*"><path style="fill:none;stroke:#a30036;" d="M79,55C79,68 79,82 79,93"/><polygon style="fill:#a30036;stroke:#a30036;" points="79,55 83,49 79,43 75,49 79,55"/><polygon style="fill:#a30036;stroke:#a30036;" points="79,103 84,93 79,100 79,93 79,100 75,93 79,103 79,103"/><text text-anchor="middle" x="114" y="70" style="font-family:Arial;font-size:10.00;">memory_region</text><text text-anchor="middle" x="114" y="82" style="font-family:Arial;font-size:10.00;">1..*</text></a></g></g></svg>