<?xml version="1.0" encoding="UTF-8" standalone="no"?><!DOCTYPE svg PUBLIC "-//W3C//DTD SVG 1.0//EN" "http://www.w3.org/TR/2001/REC-SVG-20010904/DTD/svg10.dtd" [ <!ATTLIST svg xmlns:xlink CDATA #FIXED "http://www.w3.org/1999/xlink">]><!-- Generated by dot version 2.7.20051103.0540 (Thu Nov  3 05:48:38 UTC 2005)     For user: Bill Gates --><!-- Title: uml Pages: 1 --><svg width="136pt" height="60pt" viewBox = "0 0 136 60" xmlns="http://www.w3.org/2000/svg" xmlns:xlink="http://www.w3.org/1999/xlink"><g id="graph0" class="graph" style="font-family:Times-Roman;font-size:14.00;"><title>uml</title><polygon style="fill:white;stroke:white;" points="-1,61 -1,-1 137,-1 137,61 -1,61"/><!-- 26492903 --><g id="node1" class="node"><title>26492903</title><polygon style="fill:#ffffcc;stroke:#ffffcc;" points="5,55 5,5 131,5 131,55 5,55"/><a xlink:href="platform%3A%2Fresource%2Fsk%2FNewModel.uml%23_h4Cd6tdoEeKVjp7WMrDZiQ" xlink:title="binary_type"><clipPath id="mypathfile:/C:/Users/reet/Desktop/hyperModelCIMI/eclipse/configuration/org.eclipse.osgi/bundles/515/1/.cp/icons/full/obj16/Class.gif26492903"><polygon points="22,8 6,8 6,25 22,25 22,8 "/></clipPath><image xlink:href="file:/C:/Users/reet/Desktop/hyperModelCIMI/eclipse/configuration/org.eclipse.osgi/bundles/515/1/.cp/icons/full/obj16/Class.gif" width="16px" height="17px" preserveAspectRatio="xMidYMid meet" x="6" y="8" clip-path="url(#mypathfile:/C:/Users/reet/Desktop/hyperModelCIMI/eclipse/configuration/org.eclipse.osgi/bundles/515/1/.cp/icons/full/obj16/Class.gif26492903)"/><text text-anchor="middle" x="76" y="21" style="font-family:Arial;font-size:13.00;">binary_type</text><polygon style="fill:none;stroke:#a30036;" points="5,28 5,5 131,5 131,28 5,28"/></a><a xlink:href="platform%3A%2Fresource%2Fsk%2FNewModel.uml%23_h4Cd69doEeKVjp7WMrDZiQ" xlink:title="name"><text text-anchor="middle" x="68" y="39" style="font-family:Arial;font-size:11.00;">«attribute» name : string</text></a><a xlink:href="platform%3A%2Fresource%2Fsk%2FNewModel.uml%23_h4Cd79doEeKVjp7WMrDZiQ" xlink:title="path"><text text-anchor="middle" x="65" y="51" style="font-family:Arial;font-size:11.00;">«attribute» path : string</text></a><polygon style="fill:none;stroke:#a30036;" points="5,55 5,28 131,28 131,55 5,55"/></g></g></svg>