<?xml version="1.0" encoding="UTF-8" standalone="no"?><!DOCTYPE svg PUBLIC "-//W3C//DTD SVG 1.0//EN" "http://www.w3.org/TR/2001/REC-SVG-20010904/DTD/svg10.dtd" [ <!ATTLIST svg xmlns:xlink CDATA #FIXED "http://www.w3.org/1999/xlink">]><!-- Generated by dot version 2.7.20051103.0540 (Thu Nov  3 05:48:38 UTC 2005)     For user: Bill Gates --><!-- Title: uml Pages: 1 --><svg width="120pt" height="136pt" viewBox = "0 0 120 136" xmlns="http://www.w3.org/2000/svg" xmlns:xlink="http://www.w3.org/1999/xlink"><g id="graph0" class="graph" style="font-family:Times-Roman;font-size:14.00;"><title>uml</title><polygon style="fill:white;stroke:white;" points="-1,137 -1,-1 121,-1 121,137 -1,137"/><!-- 7275888 --><g id="node1" class="node"><title>7275888</title><a xlink:href="platform%3A%2Fresource%2Fsk%2FNewModel.uml%23_h4Cd&#45;9doEeKVjp7WMrDZiQ" xlink:title="minor_frame_type"><polygon style="fill:#e0ffff;stroke:#a30036;stroke-dasharray:5,2;" points="109,104 5,104 5,130 109,130 109,104"/><text text-anchor="middle" x="57" y="121" style="font-family:Arial;font-size:11.00;">minor_frame_type</text></a></g><!-- 18813079 --><g id="node2" class="node"><title>18813079</title><polygon style="fill:#ffffcc;stroke:#ffffcc;" points="17,43 17,5 97,5 97,43 17,43"/><a xlink:href="platform%3A%2Fresource%2Fsk%2FNewModel.uml%23_h4CeBNdoEeKVjp7WMrDZiQ" xlink:title="cpu_type"><clipPath id="mypathfile:/C:/Users/reet/Desktop/hyperModelCIMI/eclipse/configuration/org.eclipse.osgi/bundles/515/1/.cp/icons/full/obj16/Class.gif18813079"><polygon points="34,8 18,8 18,25 34,25 34,8 "/></clipPath><image xlink:href="file:/C:/Users/reet/Desktop/hyperModelCIMI/eclipse/configuration/org.eclipse.osgi/bundles/515/1/.cp/icons/full/obj16/Class.gif" width="16px" height="17px" preserveAspectRatio="xMidYMid meet" x="18" y="8" clip-path="url(#mypathfile:/C:/Users/reet/Desktop/hyperModelCIMI/eclipse/configuration/org.eclipse.osgi/bundles/515/1/.cp/icons/full/obj16/Class.gif18813079)"/><text text-anchor="middle" x="66" y="21" style="font-family:Arial;font-size:13.00;">cpu_type</text><polygon style="fill:none;stroke:#a30036;" points="17,28 17,5 97,5 97,28 17,28"/></a><text text-anchor="middle" x="57" y="39" style="font-family:Arial;font-size:11.00;"> </text><polygon style="fill:none;stroke:#a30036;" points="17,43 17,28 97,28 97,43 17,43"/></g><!-- 18813079&#45;&gt;7275888 --><g id="edge2" class="edge"><title>18813079&#45;&gt;7275888</title><a xlink:href="platform%3A%2Fresource%2Fsk%2FNewModel.uml%23_h4CeBddoEeKVjp7WMrDZiQ" xlink:title="minor_frame\n1..*"><path style="fill:none;stroke:#a30036;" d="M57,55C57,68 57,82 57,93"/><polygon style="fill:#a30036;stroke:#a30036;" points="57,55 61,49 57,43 53,49 57,55"/><polygon style="fill:#a30036;stroke:#a30036;" points="57,103 62,93 57,100 57,93 57,100 53,93 57,103 57,103"/><text text-anchor="middle" x="86" y="70" style="font-family:Arial;font-size:10.00;">minor_frame</text><text text-anchor="middle" x="86" y="82" style="font-family:Arial;font-size:10.00;">1..*</text></a></g></g></svg>