<?xml version="1.0" encoding="UTF-8" standalone="no"?><!DOCTYPE svg PUBLIC "-//W3C//DTD SVG 1.0//EN" "http://www.w3.org/TR/2001/REC-SVG-20010904/DTD/svg10.dtd" [ <!ATTLIST svg xmlns:xlink CDATA #FIXED "http://www.w3.org/1999/xlink">]><!-- Generated by dot version 2.7.20051103.0540 (Thu Nov  3 05:48:38 UTC 2005)     For user: Bill Gates --><!-- Title: uml Pages: 1 --><svg width="499pt" height="148pt" viewBox = "0 0 499 148" xmlns="http://www.w3.org/2000/svg" xmlns:xlink="http://www.w3.org/1999/xlink"><g id="graph0" class="graph" style="font-family:Times-Roman;font-size:14.00;"><title>uml</title><polygon style="fill:white;stroke:white;" points="-1,149 -1,-1 500,-1 500,149 -1,149"/><!-- 8287372 --><g id="node1" class="node"><title>8287372</title><a xlink:href="platform%3A%2Fresource%2Fsk%2FNewModel.uml%23_h34tFNdoEeKVjp7WMrDZiQ" xlink:title="hardware_type"><polygon style="fill:#e0ffff;stroke:#a30036;stroke-dasharray:5,2;" points="93,116 5,116 5,142 93,142 93,116"/><text text-anchor="middle" x="49" y="133" style="font-family:Arial;font-size:11.00;">hardware_type</text></a></g><!-- 15433373 --><g id="node2" class="node"><title>15433373</title><a xlink:href="platform%3A%2Fresource%2Fsk%2FNewModel.uml%23_h34tgddoEeKVjp7WMrDZiQ" xlink:title="kernel_type"><polygon style="fill:#e0ffff;stroke:#a30036;stroke-dasharray:5,2;" points="183,116 111,116 111,142 183,142 183,116"/><text text-anchor="middle" x="147" y="133" style="font-family:Arial;font-size:11.00;">kernel_type</text></a></g><!-- 33541655 --><g id="node3" class="node"><title>33541655</title><a xlink:href="platform%3A%2Fresource%2Fsk%2FNewModel.uml%23_h4Cd89doEeKVjp7WMrDZiQ" xlink:title="binaries_type"><polygon style="fill:#e0ffff;stroke:#a30036;stroke-dasharray:5,2;" points="281,116 201,116 201,142 281,142 281,116"/><text text-anchor="middle" x="241" y="133" style="font-family:Arial;font-size:11.00;">binaries_type</text></a></g><!-- 7765515 --><g id="node4" class="node"><title>7765515</title><a xlink:href="platform%3A%2Fresource%2Fsk%2FNewModel.uml%23_h4CeK9doEeKVjp7WMrDZiQ" xlink:title="subjects_type"><polygon style="fill:#e0ffff;stroke:#a30036;stroke-dasharray:5,2;" points="381,116 299,116 299,142 381,142 381,116"/><text text-anchor="middle" x="340" y="133" style="font-family:Arial;font-size:11.00;">subjects_type</text></a></g><!-- 8527732 --><g id="node5" class="node"><title>8527732</title><a xlink:href="platform%3A%2Fresource%2Fsk%2FNewModel.uml%23_h4CeENdoEeKVjp7WMrDZiQ" xlink:title="scheduling_type"><polygon style="fill:#e0ffff;stroke:#a30036;stroke-dasharray:5,2;" points="493,116 399,116 399,142 493,142 493,116"/><text text-anchor="middle" x="446" y="133" style="font-family:Arial;font-size:11.00;">scheduling_type</text></a></g><!-- 22556821 --><g id="node6" class="node"><title>22556821</title><polygon style="fill:#ffffcc;stroke:#ffffcc;" points="123,55 123,5 359,5 359,55 123,55"/><a xlink:href="platform%3A%2Fresource%2Fsk%2FNewModel.uml%23_h4CeGtdoEeKVjp7WMrDZiQ" xlink:title="system_type"><clipPath id="mypathfile:/C:/Users/reet/Desktop/hyperModelCIMI/eclipse/configuration/org.eclipse.osgi/bundles/515/1/.cp/icons/full/obj16/Class.gif22556821"><polygon points="140,8 124,8 124,25 140,25 140,8 "/></clipPath><image xlink:href="file:/C:/Users/reet/Desktop/hyperModelCIMI/eclipse/configuration/org.eclipse.osgi/bundles/515/1/.cp/icons/full/obj16/Class.gif" width="16px" height="17px" preserveAspectRatio="xMidYMid meet" x="124" y="8" clip-path="url(#mypathfile:/C:/Users/reet/Desktop/hyperModelCIMI/eclipse/configuration/org.eclipse.osgi/bundles/515/1/.cp/icons/full/obj16/Class.gif22556821)"/><text text-anchor="middle" x="250" y="21" style="font-family:Arial;font-size:13.00;">system_type</text><polygon style="fill:none;stroke:#a30036;" points="123,28 123,5 359,5 359,28 123,28"/></a><a xlink:href="platform%3A%2Fresource%2Fsk%2FNewModel.uml%23_h4CelddoEeKVjp7WMrDZiQ" xlink:title="vmxon_address"><text text-anchor="middle" x="231" y="39" style="font-family:Arial;font-size:11.00;">«attribute» vmxon_address : address_type</text></a><a xlink:href="platform%3A%2Fresource%2Fsk%2FNewModel.uml%23_h4CemddoEeKVjp7WMrDZiQ" xlink:title="vmcs_start_address"><text text-anchor="middle" x="241" y="51" style="font-family:Arial;font-size:11.00;">«attribute» vmcs_start_address : address_type</text></a><polygon style="fill:none;stroke:#a30036;" points="123,55 123,28 359,28 359,55 123,55"/></g><!-- 22556821&#45;&gt;8287372 --><g id="edge2" class="edge"><title>22556821&#45;&gt;8287372</title><a xlink:href="platform%3A%2Fresource%2Fsk%2FNewModel.uml%23_h4CeG9doEeKVjp7WMrDZiQ" xlink:title="hardware\n1..1"><path style="fill:none;stroke:#a30036;" d="M164,60C154,64 144,69 135,73 115,84 93,98 77,109"/><polygon style="fill:#a30036;stroke:#a30036;" points="164,60 171,61 175,55 168,54 164,60"/><polygon style="fill:#a30036;stroke:#a30036;" points="68,115 79,113 70,113 76,109 70,113 74,106 68,115 68,115"/><text text-anchor="middle" x="162" y="82" style="font-family:Arial;font-size:10.00;">hardware</text><text text-anchor="middle" x="162" y="94" style="font-family:Arial;font-size:10.00;">1..1</text></a></g><!-- 22556821&#45;&gt;15433373 --><g id="edge4" class="edge"><title>22556821&#45;&gt;15433373</title><a xlink:href="platform%3A%2Fresource%2Fsk%2FNewModel.uml%23_h4CeINdoEeKVjp7WMrDZiQ" xlink:title="kernel\n1..1"><path style="fill:none;stroke:#a30036;" d="M209,64C195,79 179,95 167,108"/><polygon style="fill:#a30036;stroke:#a30036;" points="209,64 216,62 217,55 210,57 209,64"/><polygon style="fill:#a30036;stroke:#a30036;" points="160,115 170,111 162,113 167,108 162,113 164,105 160,115 160,115"/><text text-anchor="middle" x="214" y="82" style="font-family:Arial;font-size:10.00;">kernel</text><text text-anchor="middle" x="214" y="94" style="font-family:Arial;font-size:10.00;">1..1</text></a></g><!-- 22556821&#45;&gt;33541655 --><g id="edge6" class="edge"><title>22556821&#45;&gt;33541655</title><a xlink:href="platform%3A%2Fresource%2Fsk%2FNewModel.uml%23_h4CeJddoEeKVjp7WMrDZiQ" xlink:title="binaries\n1..1"><path style="fill:none;stroke:#a30036;" d="M241,67C241,80 241,94 241,105"/><polygon style="fill:#a30036;stroke:#a30036;" points="241,67 245,61 241,55 237,61 241,67"/><polygon style="fill:#a30036;stroke:#a30036;" points="241,115 246,105 241,112 241,105 241,112 237,105 241,115 241,115"/><text text-anchor="middle" x="259" y="82" style="font-family:Arial;font-size:10.00;">binaries</text><text text-anchor="middle" x="259" y="94" style="font-family:Arial;font-size:10.00;">1..1</text></a></g><!-- 22556821&#45;&gt;7765515 --><g id="edge8" class="edge"><title>22556821&#45;&gt;7765515</title><a xlink:href="platform%3A%2Fresource%2Fsk%2FNewModel.uml%23_h4CeKtdoEeKVjp7WMrDZiQ" xlink:title="subjects\n1..1"><path style="fill:none;stroke:#a30036;" d="M275,64C290,79 306,95 319,108"/><polygon style="fill:#a30036;stroke:#a30036;" points="274,63 273,56 266,55 267,62 274,63"/><polygon style="fill:#a30036;stroke:#a30036;" points="326,115 322,105 324,113 319,108 324,113 316,111 326,115 326,115"/><text text-anchor="middle" x="322" y="82" style="font-family:Arial;font-size:10.00;">subjects</text><text text-anchor="middle" x="322" y="94" style="font-family:Arial;font-size:10.00;">1..1</text></a></g><!-- 22556821&#45;&gt;8527732 --><g id="edge10" class="edge"><title>22556821&#45;&gt;8527732</title><a xlink:href="platform%3A%2Fresource%2Fsk%2FNewModel.uml%23_h4CekNdoEeKVjp7WMrDZiQ" xlink:title="scheduling\n1..1"><path style="fill:none;stroke:#a30036;" d="M315,60C325,64 336,69 345,73 368,85 394,99 414,110"/><polygon style="fill:#a30036;stroke:#a30036;" points="315,60 311,54 304,55 308,61 315,60"/><polygon style="fill:#a30036;stroke:#a30036;" points="423,115 416,106 420,114 414,110 420,114 412,114 423,115 423,115"/><text text-anchor="middle" x="409" y="82" style="font-family:Arial;font-size:10.00;">scheduling</text><text text-anchor="middle" x="409" y="94" style="font-family:Arial;font-size:10.00;">1..1</text></a></g></g></svg>