<?xml version="1.0" encoding="UTF-8" standalone="no"?><!DOCTYPE svg PUBLIC "-//W3C//DTD SVG 1.0//EN" "http://www.w3.org/TR/2001/REC-SVG-20010904/DTD/svg10.dtd" [ <!ATTLIST svg xmlns:xlink CDATA #FIXED "http://www.w3.org/1999/xlink">]><!-- Generated by dot version 2.7.20051103.0540 (Thu Nov  3 05:48:38 UTC 2005)     For user: Bill Gates --><!-- Title: uml Pages: 1 --><svg width="220pt" height="112pt" viewBox = "0 0 220 112" xmlns="http://www.w3.org/2000/svg" xmlns:xlink="http://www.w3.org/1999/xlink"><g id="graph0" class="graph" style="font-family:Times-Roman;font-size:14.00;"><title>uml</title><polygon style="fill:white;stroke:white;" points="-1,113 -1,-1 221,-1 221,113 -1,113"/><!-- 9372006 --><g id="node1" class="node"><title>9372006</title><a xlink:href="pathmap%3A%2F%2FXMLmodeling_LIBRARIES%2FXSDDataTypes.library.uml%23_3RzJWUtXEdqhPYJq3sEkGA" xlink:title="string"><polygon style="fill:#e0ffff;stroke:#a30036;stroke-dasharray:5,2;" points="131,6 89,6 89,32 131,32 131,6"/><text text-anchor="middle" x="110" y="23" style="font-family:Arial;font-size:11.00;">string</text></a></g><!-- 24830012 --><g id="node2" class="node"><title>24830012</title><polygon style="fill:#ffffcc;stroke:#ffffcc;" points="5,107 5,69 215,69 215,107 5,107"/><a xlink:href="platform%3A%2Fresource%2Fsk%2FNewModel.uml%23_h3vi_NdoEeKVjp7WMrDZiQ" xlink:title="memory_size_type"><clipPath id="mypathfile:/C:/Users/reet/Desktop/hyperModelCIMI/eclipse/configuration/org.eclipse.osgi/bundles/515/1/.cp/icons/full/obj16/DataType.gif24830012"><polygon points="22,72 6,72 6,89 22,89 22,72 "/></clipPath><image xlink:href="file:/C:/Users/reet/Desktop/hyperModelCIMI/eclipse/configuration/org.eclipse.osgi/bundles/515/1/.cp/icons/full/obj16/DataType.gif" width="16px" height="17px" preserveAspectRatio="xMidYMid meet" x="6" y="72" clip-path="url(#mypathfile:/C:/Users/reet/Desktop/hyperModelCIMI/eclipse/configuration/org.eclipse.osgi/bundles/515/1/.cp/icons/full/obj16/DataType.gif24830012)"/><text text-anchor="middle" x="119" y="85" style="font-family:Arial;font-size:13.00;">memory_size_type</text><polygon style="fill:none;stroke:#a30036;" points="5,92 5,69 215,69 215,92 5,92"/></a><a xlink:href="platform%3A%2Fresource%2Fsk%2FNewModel.uml%23_h3vi_ddoEeKVjp7WMrDZiQ" xlink:title="pattern"><text text-anchor="middle" x="110" y="103" style="font-family:Arial;font-size:11.00;">«facet» pattern : string = [0&#45;9]+[kKmMgG]</text></a><polygon style="fill:none;stroke:#a30036;" points="5,107 5,92 215,92 215,107 5,107"/></g><!-- 9372006&#45;&gt;24830012 --><g id="edge2" class="edge"><title>9372006&#45;&gt;24830012</title><path style="fill:none;stroke:#000080;" d="M110,48C110,55 110,62 110,69"/><polygon style="fill:none;stroke:#000080;" points="105,48 110,33 115,48 105,48"/></g></g></svg>