<?xml version="1.0" encoding="UTF-8" standalone="no"?>
<!-- Created with Inkscape (http://www.inkscape.org/) -->
<svg id="svg2" xmlns:rdf="http://www.w3.org/1999/02/22-rdf-syntax-ns#" xmlns="http://www.w3.org/2000/svg" xml:space="preserve" viewBox="0 0 230 90" version="1.1" xmlns:cc="http://creativecommons.org/ns#" xmlns:dc="http://purl.org/dc/elements/1.1/"><metadata id="metadata8"><rdf:RDF><cc:Work rdf:about=""><dc:format>image/svg+xml</dc:format><dc:type rdf:resource="http://purl.org/dc/dcmitype/StillImage"/><dc:title/></cc:Work></rdf:RDF></metadata><g id="g10" transform="matrix(1.25,0,0,-1.25,0,90)"><g id="g12" transform="scale(0.1,0.1)"><path id="path14" opacity="0.59999999999999998" fill="none" d="m0,0,1840,0,0,720h-1840v-720z"/><path id="path16" fill-rule="nonzero" fill="#0f65a6" d="m125.76,493.33,124.8,0,0,124.78-124.8,0,0-124.78z"/><path id="path18" fill-rule="nonzero" fill="#0f65a6" d="m125.76,267.56,124.8,0,0,124.78-124.8,0,0-124.78z"/><path id="path20" fill-rule="nonzero" fill="#0f65a6" d="m341.35,267.56,124.8,0,0,124.78-124.8,0,0-124.78z"/><path id="path22" fill-rule="nonzero" fill="#bdbcbc" d="M475.78,507.98,353.32,483.86,329.19,606.24,451.62,630.4,475.78,507.98"/><path id="path24" fill-rule="nonzero" fill="#231f20" d="m590.96,149.11,26,0,0-6.171-18.988,0,0-14.293,18.148,0,0-6.157-18.148,0,0-22.285-7.012,0,0,48.906"/><path id="path26" fill-rule="nonzero" fill="#231f20" d="m629.57,149.11,7.012,0,0-20.464,23.391,0,0,20.464,7.019,0,0-48.906-7.019,0,0,22.285-23.391,0,0-22.285-7.012,0,0,48.906"/><path id="path28" fill-rule="nonzero" fill="#231f20" d="m703.66,149.95c14.856,0,23.539-10.816,23.539-25.293,0-14.859-8.617-25.308-23.539-25.308-14.926,0-23.539,10.449-23.539,25.308,0,14.477,8.684,25.293,23.539,25.293m0-44.414c11.282,0,16.114,9.375,16.114,19.121,0,9.946-5.321,19.184-16.114,19.121-10.785,0.063-16.105-9.175-16.105-19.121,0-9.746,4.828-19.121,16.105-19.121"/><path id="path30" fill-rule="nonzero" fill="#231f20" d="m761.84,149.11,26,0,0-6.171-18.981,0,0-14.293,18.141,0,0-6.157-18.141,0,0-22.285-7.019,0,0,48.906"/><path id="path32" fill-rule="nonzero" fill="#231f20" d="m801.16,133.41c3.293,1.977,7.215,3.364,11.766,3.364,10.238,0,14.371-5.059,14.371-14.79v-14.785c0-4.043,0.144-5.957,0.277-6.992h-6.156v4.609h-0.152c-1.536-2.144-5.039-5.4643-11.063-5.4643-7.707,0-13.098,3.3553-13.098,11.148,0,8.969,9.809,11.777,16.602,11.777,2.586,0,4.418,0,6.996-0.156,0,6.176-2.242,9.321-8.816,9.321-3.711,0-7.711-1.387-10.371-3.626l-0.356,5.594zm19.543-16.187c-1.391,0-2.789,0.144-4.199,0.144-3.578,0-12.395-0.554-12.395-6.867,0-3.785,3.633-5.816,6.653-5.816,6.511,0,9.941,4.082,9.941,9.39v3.149"/><path id="path34" fill-rule="nonzero" fill="#231f20" d="m863.94,129.9c-2.507,1.05-5.039,1.543-7.129,1.543-7.367,0-11.5-6.583-11.5-13.364,0-6.386,3.438-13.386,11.911-13.386,2.242,0,5.046,0.71,7.082,2.023l0.488-5.883c-2.742-1.2655-5.891-1.4803-8.27-1.4803-10.781,0-18.211,8.4723-18.211,18.726,0,10.844,7.282,18.703,18.211,18.703,2.657,0,6.09-0.632,7.989-1.394l-0.571-5.488"/><path id="path36" fill-rule="nonzero" fill="#231f20" d="m875.18,152.74,6.582,0,0-21.93,0.152,0c2.379,3.797,6.52,5.958,11.488,5.958,9.239,0,13.379-5.747,13.379-15.352v-21.215h-6.59v18.481c0,8.359-1.828,12.421-7.57,12.754-7.5,0-10.859-6.016-10.859-14.708v-16.527h-6.582v52.539"/><path id="path38" fill-rule="nonzero" fill="#231f20" d="m920.82,152.74,6.586,0,0-21.93,0.118,0c2.402,3.797,6.542,5.958,11.503,5.958,9.239,0,13.379-5.747,13.379-15.352v-21.215h-6.582v18.481c0,8.359-1.836,12.421-7.578,12.754-7.48,0-10.84-6.016-10.84-14.708v-16.527h-6.586v52.539"/><path id="path40" fill-rule="nonzero" fill="#231f20" d="m982.27,136.77c10.859,0,18.164-7.852,18.164-18.696,0-10.254-7.442-18.726-18.164-18.726-10.782,0-18.223,8.4723-18.223,18.726,0,10.844,7.285,18.696,18.223,18.696m0-32.09c7.714,0,11.152,7.008,11.152,13.394,0,6.781-4.141,13.364-11.152,13.364-7.071,0-11.219-6.583-11.219-13.364,0-6.386,3.457-13.394,11.219-13.394"/><path id="path42" fill-rule="nonzero" fill="#231f20" d="m1034.8,129.9c-2.52,1.05-5.04,1.543-7.15,1.543-7.36,0-11.49-6.583-11.49-13.364,0-6.386,3.43-13.386,11.9-13.386,2.26,0,5.06,0.71,7.07,2.023l0.49-5.883c-2.73-1.2655-5.86-1.4803-8.27-1.4803-10.76,0-18.19,8.4723-18.19,18.726,0,10.844,7.28,18.703,18.19,18.703,2.68,0,6.12-0.632,8-1.394l-0.55-5.488"/><path id="path44" fill-rule="nonzero" fill="#231f20" d="m1046,152.74,6.58,0,0-21.93,0.13,0c2.39,3.797,6.51,5.958,11.51,5.958,9.24,0,13.38-5.747,13.38-15.352v-21.215h-6.62v18.481c0,8.359-1.78,12.421-7.54,12.754-7.5,0-10.86-6.016-10.86-14.708v-16.527h-6.58v52.539"/><path id="path46" fill-rule="nonzero" fill="#231f20" d="m1089,107.2c2.6-1.66,6.31-2.515,8.19-2.515,3.03,0,6.74,1.265,6.74,5.117,0,6.519-15.49,5.957-15.49,15.973,0,7.421,5.53,11,12.62,11,3.08,0,5.6-0.618,8.17-1.387l-0.54-5.766c-1.46,0.918-5.39,1.821-6.93,1.821-3.38,0-6.31-1.387-6.31-4.336,0-7.29,15.49-5.2,15.49-16.606,0-7.637-6.11-11.148-12.48-11.148-3.36,0-6.8,0.3711-9.81,1.9683l0.35,5.879"/><path id="path48" fill-rule="nonzero" fill="#231f20" d="m1144.4,129.9c-2.53,1.05-5.03,1.543-7.14,1.543-7.35,0-11.49-6.583-11.49-13.364,0-6.386,3.43-13.386,11.92-13.386,2.22,0,5.03,0.71,7.05,2.023l0.5-5.883c-2.74-1.2655-5.87-1.4803-8.28-1.4803-10.78,0-18.21,8.4723-18.21,18.726,0,10.844,7.3,18.703,18.21,18.703,2.68,0,6.1-0.632,8.01-1.394l-0.57-5.488"/><path id="path50" fill-rule="nonzero" fill="#231f20" d="m1155.6,152.74,6.58,0,0-21.93,0.13,0c2.37,3.797,6.53,5.958,11.49,5.958,9.24,0,13.38-5.747,13.38-15.352v-21.215h-6.57v18.481c0,8.359-1.83,12.421-7.57,12.754-7.52,0-10.86-6.016-10.86-14.708v-16.527h-6.58v52.539"/><path id="path52" fill-rule="nonzero" fill="#231f20" d="m1232.8,100.2-6.37,0,0,5.664-0.11,0c-1.99-4.058-6.76-6.5193-11.74-6.5193-9.24,0-13.36,5.7573-13.36,15.347v21.235h6.58v-18.496c0-8.34,1.82-12.383,7.56-12.754,7.48,0,10.86,6.035,10.86,14.722v16.528h6.58v-35.727"/><path id="path54" fill-rule="nonzero" fill="#231f20" d="m1247.7,100.2,6.6016,0,0,52.531-6.6016,0,0-52.531z"/><path id="path56" fill-rule="nonzero" fill="#231f20" d="m1296.5,101.67c-2.52-0.918-5.39-2.3361-11.29-2.3361-12.66,0-18.49,7.7261-18.49,19.348,0,10.601,6.68,18.086,16.76,18.086,11.91,0,15.75-8.684,15.75-20.176h-25.48c0-7.074,5.53-11.914,11.76-11.914,4.35,0,9.37,2.246,10.99,3.574v-6.582zm-4.25,19.82c0,5.473-3.25,9.953-8.91,9.953-6.45,0-9.11-5.324-9.59-9.953h18.5"/><path id="path58" fill-rule="nonzero" fill="#231f20" d="m1354.9,149.95c14.87,0,23.54-10.816,23.54-25.293,0-14.859-8.61-25.308-23.54-25.308-14.92,0-23.53,10.449-23.53,25.308,0,14.477,8.69,25.293,23.53,25.293m0-44.414c11.27,0,16.12,9.375,16.12,19.121,0,9.946-5.32,19.184-16.12,19.121-10.78,0.063-16.11-9.175-16.11-19.121,0-9.746,4.84-19.121,16.11-19.121"/><path id="path60" fill-rule="nonzero" fill="#231f20" d="m1387.9,107.2c2.58-1.66,6.29-2.515,8.18-2.515,3.01,0,6.72,1.265,6.72,5.117,0,6.519-15.5,5.957-15.5,15.973,0,7.421,5.56,11,12.63,11,3.09,0,5.61-0.618,8.19-1.387l-0.55-5.766c-1.49,0.918-5.39,1.821-6.95,1.821-3.34,0-6.29-1.387-6.29-4.336,0-7.29,15.47-5.2,15.47-16.606,0-7.637-6.08-11.148-12.47-11.148-3.37,0-6.77,0.3711-9.8,1.9683l0.37,5.879"/><path id="path62" fill-rule="nonzero" fill="#231f20" d="m1439.6,130.61-9.45,0,0-19.566c0-4.121,2.52-6.367,5.54-6.367,2.01,0,3.5,0.625,4.48,1.265v-5.601c-1.47-0.4338-3.52-0.9963-5.61-0.9963-6.8,0-11.01,3.2423-11.01,10.371v20.894h-8.03v5.317h8.03v8.258l6.6,2.113v-10.371h9.45v-5.317"/><path id="path64" fill-rule="nonzero" fill="#231f20" d="m1448,107.2c2.58-1.66,6.31-2.515,8.18-2.515,3.03,0,6.74,1.265,6.74,5.117,0,6.519-15.47,5.957-15.47,15.973,0,7.421,5.53,11,12.6,11,3.08,0,5.6-0.618,8.2-1.387l-0.57-5.766c-1.46,0.918-5.37,1.821-6.93,1.821-3.38,0-6.31-1.387-6.31-4.336,0-7.29,15.49-5.2,15.49-16.606,0-7.637-6.09-11.148-12.46-11.148-3.38,0-6.82,0.3711-9.8,1.9683l0.33,5.879"/><path id="path66" fill-rule="nonzero" fill="#231f20" d="m1503.5,129.9c-2.52,1.05-5.06,1.543-7.15,1.543-7.35,0-11.49-6.583-11.49-13.364,0-6.386,3.43-13.386,11.92-13.386,2.22,0,5.04,0.71,7.07,2.023l0.49-5.883c-2.74-1.2655-5.9-1.4803-8.28-1.4803-10.79,0-18.21,8.4723-18.21,18.726,0,10.844,7.31,18.703,18.21,18.703,2.66,0,6.09-0.632,8-1.394l-0.56-5.488"/><path id="path68" fill-rule="nonzero" fill="#231f20" d="m1514.7,152.74,6.58,0,0-21.93,0.14,0c2.38,3.797,6.52,5.958,11.48,5.958,9.26,0,13.38-5.747,13.38-15.352v-21.215h-6.58v18.481c0,8.359-1.82,12.421-7.56,12.754-7.5,0-10.86-6.016-10.86-14.708v-16.527h-6.58v52.539"/><path id="path70" fill-rule="nonzero" fill="#231f20" d="m1600.7,100.2-7.65,0-9.24,29.985-0.14,0-9.02-29.985-7.66,0-11.49,35.727,7.23,0,8.18-29.575,0.14,0,9.11,29.575,7.79,0,8.94-29.575,0.16,0,8.69,29.575,6.44,0-11.48-35.727"/><path id="path72" fill-rule="nonzero" fill="#231f20" d="m1648.9,101.67c-2.52-0.918-5.39-2.3361-11.27-2.3361-12.69,0-18.53,7.7261-18.53,19.348,0,10.601,6.66,18.086,16.77,18.086,11.91,0,15.75-8.684,15.75-20.176h-25.48c0-7.074,5.53-11.914,11.76-11.914,4.36,0,9.4,2.246,11,3.574v-6.582zm-4.28,19.82c0,5.473-3.2,9.953-8.89,9.953-6.44,0-9.11-5.324-9.59-9.953h18.48"/><path id="path74" fill-rule="nonzero" fill="#231f20" d="m1663.7,143.9,7.4,0,0,7.46-7.4,0,0-7.46zm0.4-43.692,6.59,0,0,35.727-6.59,0,0-35.727"/><path id="path76" fill-rule="nonzero" fill="#231f20" d="m1683,105.94,20.59,24.668-19.6,0,0,5.317,27.23,0,0-5.742-20.58-24.653,21.33,0,0-5.332-28.97,0,0,5.742"/><path id="path78" fill-rule="nonzero" fill="#231f20" d="m591.46,618.19,25.101,0,0-50.554,50.204,0,0,50.554,25.093,0,0-125.12-25.093,0,0,54.864-50.204,0,0-54.864-25.101,0,0,125.12"/><path id="path80" fill-rule="nonzero" fill="#231f20" d="m809.53,595.25c-7.89,3.418-16.679,5.371-25.461,5.371-8.578,0-19.695-3.777-19.695-17.344,0-21.711,54.848-12.558,54.848-54.511,0-27.43-21.719-37.825-46.973-37.825-13.617,0-19.695,1.782-32.07,4.817l2.336,22.605c8.597-4.676,18.445-7.703,28.304-7.703,9.5,0,22.231,4.816,22.231,16.094,0,23.855-54.828,13.972-54.828,55.398,0,27.973,21.679,38.196,43.719,38.196,10.738,0,20.773-1.473,29.933-4.493l-2.344-20.605"/><path id="path82" fill-rule="nonzero" fill="#231f20" d="m886.36,564.77,8.262,0c12.355,0,26.496,1.821,26.496,17.383,0,15.09-13.949,16.313-26.496,16.313h-8.262v-33.696zm-25.09,53.418,27.043,0c26.899,0,58.996,0.911,58.996-33.867,0-14.715-9.871-26.902-25.796-29.043v-0.359c6.804-0.508,10.742-7.383,13.23-12.879l20.117-48.977h-27.976l-15.051,39.082c-3.582,9.336-6.82,12.891-17.395,12.891h-8.078v-51.973h-25.09v125.12"/><path id="path84" fill-rule="nonzero" fill="#231f20" d="m591.2,432.81,7.555,0,0-21.992,25.129,0,0,21.992,7.539,0,0-52.57-7.539,0,0,23.969-25.129,0,0-23.969-7.555,0,0,52.57"/><path id="path86" fill-rule="nonzero" fill="#231f20" d="m675.27,385.97c12.125,0,17.312,10.078,17.312,20.562,0,10.664-5.711,20.637-17.312,20.547-11.586,0.09-17.321-9.883-17.321-20.547,0-10.484,5.199-20.562,17.321-20.562m0,47.73c15.96,0,25.32-11.582,25.32-27.168,0-15.972-9.281-27.207-25.32-27.207-16.051,0-25.309,11.235-25.309,27.207,0,15.586,9.34,27.168,25.309,27.168"/><path id="path88" fill-rule="nonzero" fill="#231f20" d="m755.05,424.16c-3.321,1.926-7.008,2.93-10.832,2.93-12.117,0-20.176-8.711-20.176-20.559,0-12.343,8.867-20.562,19.801-20.562,3.722,0,8.789,0.965,11.433,2.566l0.438-7.265c-3.985-1.68-8.863-1.961-11.965-1.961-16.641,0-27.699,10.703-27.699,27.461,0,16.179,11.754,26.929,27.793,26.929,4.039,0,8.054-0.554,11.804-2.273l-0.597-7.266"/><path id="path90" fill-rule="nonzero" fill="#231f20" d="m772.63,432.81,7.519,0,0-21.992,25.168,0,0,21.992,7.512,0,0-52.57-7.512,0,0,23.969-25.168,0,0-23.969-7.519,0,0,52.57"/><path id="path92" fill-rule="nonzero" fill="#231f20" d="m857.99,424.9c-3.84,1.512-5.957,2.188-9.886,2.188-4.18,0-9.153-1.543-9.153-7,0-10.078,22.571-7.785,22.571-25.078,0-11.223-8.649-15.703-19.192-15.703-3.699,0-7.316,1.101-10.789,2.222l0.781,6.992c2.528-1.043,7.098-2.546,10.918-2.546,4.289,0,10.321,2.375,10.321,8.515,0,11.809-22.598,8.555-22.598,24.922,0,9.324,7.351,14.285,16.855,14.285,3.461,0,7.622-0.586,11.204-1.89l-1.032-6.907"/><path id="path94" fill-rule="nonzero" fill="#231f20" d="m915.56,424.16c-3.332,1.926-7,2.93-10.832,2.93-12.136,0-20.21-8.711-20.21-20.559,0-12.343,8.914-20.562,19.843-20.562,3.75,0,8.801,0.965,11.422,2.566l0.469-7.265c-4.024-1.68-8.91-1.961-11.992-1.961-16.629,0-27.707,10.703-27.707,27.461,0,16.179,11.73,26.929,27.808,26.929,4.039,0,8.039-0.554,11.789-2.273l-0.59-7.266"/><path id="path96" fill-rule="nonzero" fill="#231f20" d="m933.14,432.81,7.539,0,0-21.992,25.128,0,0,21.992,7.555,0,0-52.57-7.555,0,0,23.969-25.128,0,0-23.969-7.539,0,0,52.57"/><path id="path98" fill-rule="nonzero" fill="#231f20" d="m1035.5,402.01c0-14.739-7.43-22.676-20.39-22.676-12.95,0-20.393,7.937-20.393,22.676v30.8h7.533v-29.832c0-10.121,3.13-17.003,12.86-17.003,9.69,0,12.87,6.882,12.87,17.003v29.832h7.52v-30.8"/><path id="path100" fill-rule="nonzero" fill="#231f20" d="m1056.4,432.81,7.52,0,0-45.937,21.99,0,0-6.633-29.51,0,0,52.57"/><path id="path102" fill-rule="nonzero" fill="#231f20" d="m1102,432.81,29.44,0,0-6.589-21.92,0,0-15.403,20,0,0-6.609-20,0,0-17.336,21.92,0,0-6.633-29.44,0,0,52.57"/><path id="path104" fill-rule="nonzero" fill="#231f20" d="m1179,432.81,27.91,0,0-6.589-20.37,0,0-15.403,19.51,0,0-6.609-19.51,0,0-23.969-7.54,0,0,52.57"/><path id="path106" fill-rule="nonzero" fill="#231f20" d="m1247.7,444.71,7.07,0,0-7.539-7.07,0,0,7.539zm-12.38,0,7.09,0,0-7.539-7.09,0,0,7.539zm30.16-42.695c0-14.739-7.46-22.703-20.41-22.703s-20.43,7.964-20.43,22.703v30.8h7.56v-29.832c0-10.121,3.12-17.011,12.87-17.011,9.7,0,12.87,6.89,12.87,17.011v29.832h7.54v-30.8"/><path id="path108" fill-rule="nonzero" fill="#231f20" d="m1293.6,410.2,6.43,0c7.11,0,11.37,3.196,11.37,8.243,0,4.714-3.64,7.761-10.55,7.761h-7.25v-16.004zm-7.51,22.617,12.85,0c10.39,0,20.39-1.66,20.39-14.257,0-6.407-4.71-10.91-10.82-11.946v-0.132c2.34-0.918,3.45-2.036,5.11-5.317l9.95-20.926h-8.6l-8.03,18.262c-2.36,5.125-4.82,5.125-8.84,5.125h-4.5v-23.387h-7.51v52.578"/><path id="path110" fill-rule="nonzero" fill="#231f20" d="m1378.9,426.2-16.35,0,0,6.613,40.21,0,0-6.613-16.34,0,0-45.984-7.52,0,0,45.984"/><path id="path112" fill-rule="nonzero" fill="#231f20" d="m1418.2,432.81,29.44,0,0-6.589-21.92,0,0-15.403,19.98,0,0-6.609-19.98,0,0-17.336,21.92,0,0-6.633-29.44,0,0,52.57"/><path id="path114" fill-rule="nonzero" fill="#231f20" d="m1503.5,424.16c-3.32,1.926-7.01,2.93-10.82,2.93-12.17,0-20.24-8.711-20.24-20.559,0-12.343,8.89-20.562,19.85-20.562,3.73,0,8.79,0.965,11.4,2.566l0.46-7.265c-3.97-1.68-8.9-1.961-11.96-1.961-16.66,0-27.7,10.703-27.7,27.461,0,16.179,11.73,26.929,27.8,26.929,4.06,0,8.02-0.554,11.79-2.273l-0.58-7.266"/><path id="path116" fill-rule="nonzero" fill="#231f20" d="m1521,432.81,7.57,0,0-21.992,25.13,0,0,21.992,7.52,0,0-52.57-7.52,0,0,23.969-25.13,0,0-23.969-7.57,0,0,52.57"/><path id="path118" fill-rule="nonzero" fill="#231f20" d="m1582.4,432.81,10.26,0,23.16-42.343,0.16,0,0,42.343,7.53,0,0-52.57-9.65,0-23.8,43.235-0.12,0,0-43.235-7.54,0,0,52.57"/><path id="path120" fill-rule="nonzero" fill="#231f20" d="m1644.4,380.24,7.5117,0,0,52.59-7.5117,0,0-52.59z"/><path id="path122" fill-rule="nonzero" fill="#231f20" d="m1673.2,432.81,7.54,0,0-23.124,22.46,23.124,10,0-24.68-24.832,26.66-27.738-11,0-23.44,25.766,0-25.766-7.54,0,0,52.57"/><path id="path124" fill-rule="nonzero" fill="#231f20" d="m598.85,297.1,6.402,0c7.141,0,11.351,3.152,11.351,8.179,0,4.77-3.621,7.766-10.543,7.766h-7.21v-15.945zm-7.547,22.566,12.871,0c10.398,0,20.418-1.641,20.418-14.23,0-6.395-4.739-10.895-10.86-11.961v-0.165c2.371-0.902,3.493-2.035,5.118-5.265l9.96-20.938h-8.597l-8.043,18.235c-2.336,5.125-4.817,5.125-8.817,5.125h-4.503v-23.36h-7.547v52.559"/><path id="path126" fill-rule="nonzero" fill="#231f20" d="m665.6,312.58-10.469-26.023,20.922,0-10.453,26.023zm-3.688,7.11,7.898,0,22.2-52.579-8.188,0-5.344,13.243-25.753,0-5.344-13.243-7.918,0,22.449,52.579"/><path id="path128" fill-rule="nonzero" fill="#231f20" d="m714.2,294.75,7.453,0c4.656,0,10.524,2.356,10.524,9.285,0,6.645-6.926,9.016-11.582,9.016h-6.395v-18.301zm-7.527,24.942,13.769,0c10.75,0,19.743-3.821,19.743-15.743,0-11.679-9.114-15.8-18.602-15.8h-7.383v-21.036h-7.527v52.579"/><path id="path130" fill-rule="nonzero" fill="#231f20" d="m763.56,294.75,7.468,0c4.665,0,10.543,2.356,10.543,9.285,0,6.645-6.937,9.016-11.582,9.016h-6.429v-18.301zm-7.508,24.942,13.765,0c10.774,0,19.735-3.821,19.735-15.743,0-11.679-9.133-15.8-18.602-15.8h-7.39v-21.036h-7.508v52.579"/><path id="path132" fill-rule="nonzero" fill="#231f20" d="m806.22,319.69,29.453,0,0-6.641-21.903,0,0-15.352,19.957,0,0-6.633-19.957,0,0-17.3,21.903,0,0-6.653-29.453,0,0,52.579"/><path id="path134" fill-rule="nonzero" fill="#231f20" d="m862.28,297.1,6.418,0c7.16,0,11.356,3.152,11.356,8.179,0,4.77-3.606,7.766-10.543,7.766h-7.231v-15.945zm-7.519,22.566,12.871,0c10.41,0,20.398-1.641,20.398-14.23,0-6.395-4.711-10.895-10.808-11.961v-0.165c2.328-0.902,3.425-2.035,5.121-5.265l9.918-20.938h-8.571l-8.082,18.235c-2.297,5.125-4.797,5.125-8.797,5.125h-4.531v-23.36h-7.519v52.559"/><path id="path136" fill-rule="nonzero" fill="#231f20" d="m932.6,311.78c-3.828,1.508-5.938,2.168-9.871,2.168-4.204,0-9.172-1.504-9.172-7.012,0-10.093,22.566-7.753,22.566-25.039,0-11.257-8.641-15.691-19.207-15.691-3.668,0-7.281,1.016-10.738,2.187l0.75,6.993c2.539-1.067,7.09-2.547,10.91-2.547,4.297,0,10.316,2.422,10.316,8.594,0,11.738-22.593,8.472-22.593,24.824,0,9.363,7.386,14.265,16.867,14.265,3.472,0,7.613-0.547,11.207-1.836l-1.035-6.906"/><path id="path138" fill-rule="nonzero" fill="#231f20" d="m947.3,319.69,8.3,0,12.579-45.02,0.144,0,11.223,45.02,10.683,0,11.366-45.02,0.16,0,12.58,45.02,7.98,0-16.2-52.579-9.714,0-11.433,45.938-0.149,0-11.531-45.938-10.102,0-15.886,52.579"/><path id="path140" fill-rule="nonzero" fill="#231f20" d="m1036.6,267.1,7.543,0,0,52.586-7.543,0,0-52.586z"/><path id="path142" fill-rule="nonzero" fill="#231f20" d="m1065,319.69,7.58,0,0-45.926,21.99,0,0-6.653-29.57,0,0,52.579"/></g></g></svg>
