<?xml version="1.0" encoding="UTF-8" standalone="no"?>
<!-- Created with Inkscape (http://www.inkscape.org/) -->

<svg
   xmlns:dc="http://purl.org/dc/elements/1.1/"
   xmlns:cc="http://creativecommons.org/ns#"
   xmlns:rdf="http://www.w3.org/1999/02/22-rdf-syntax-ns#"
   xmlns:svg="http://www.w3.org/2000/svg"
   xmlns="http://www.w3.org/2000/svg"
   xmlns:sodipodi="http://sodipodi.sourceforge.net/DTD/sodipodi-0.dtd"
   xmlns:inkscape="http://www.inkscape.org/namespaces/inkscape"
   id="svg2"
   version="1.1"
   inkscape:version="0.48.3.1 r9886"
   width="230"
   height="90"
   xml:space="preserve"
   sodipodi:docname="HSR_Logo_CMYK.svg"><metadata
     id="metadata8"><rdf:RDF><cc:Work
         rdf:about=""><dc:format>image/svg+xml</dc:format><dc:type
           rdf:resource="http://purl.org/dc/dcmitype/StillImage" /><dc:title /></cc:Work></rdf:RDF></metadata><defs
     id="defs6" /><sodipodi:namedview
     pagecolor="#ffffff"
     bordercolor="#666666"
     borderopacity="1"
     objecttolerance="10"
     gridtolerance="10"
     guidetolerance="10"
     inkscape:pageopacity="0"
     inkscape:pageshadow="2"
     inkscape:window-width="1600"
     inkscape:window-height="845"
     id="namedview4"
     showgrid="false"
     inkscape:zoom="4.4117314"
     inkscape:cx="64.054626"
     inkscape:cy="51.044396"
     inkscape:window-x="0"
     inkscape:window-y="25"
     inkscape:window-maximized="1"
     inkscape:current-layer="g12" /><g
     id="g10"
     inkscape:groupmode="layer"
     inkscape:label="ink_ext_XXXXXX"
     transform="matrix(1.25,0,0,-1.25,0,90)"><g
       id="g12"
       transform="scale(0.1,0.1)"><path
         d="m 0,0 1840,0 0,720 L 0,720 0,0 z"
         style="fill:none;fill-opacity:1;fill-rule:nonzero;stroke:none;opacity:0.59999999999999998"
         id="path14" /><path
         d="m 125.762,493.328 124.801,0 0,124.785 -124.801,0 0,-124.785 z"
         style="fill:#0f65a6;fill-opacity:1;fill-rule:nonzero;stroke:none"
         id="path16" /><path
         d="m 125.762,267.559 124.801,0 0,124.777 -124.801,0 0,-124.777 z"
         style="fill:#0f65a6;fill-opacity:1;fill-rule:nonzero;stroke:none"
         id="path18" /><path
         d="m 341.352,267.559 124.801,0 0,124.777 -124.801,0 0,-124.777 z"
         style="fill:#0f65a6;fill-opacity:1;fill-rule:nonzero;stroke:none"
         id="path20" /><path
         d="M 475.785,507.98 353.316,483.855 329.188,606.238 451.617,630.402 475.785,507.98"
         style="fill:#bdbcbc;fill-opacity:1;fill-rule:nonzero;stroke:none"
         id="path22" /><path
         d="m 590.957,149.109 26,0 0,-6.171 -18.988,0 0,-14.293 18.148,0 0,-6.157 -18.148,0 0,-22.285 -7.012,0 0,48.906"
         style="fill:#231f20;fill-opacity:1;fill-rule:nonzero;stroke:none"
         id="path24" /><path
         d="m 629.574,149.109 7.012,0 0,-20.464 23.391,0 0,20.464 7.019,0 0,-48.906 -7.019,0 0,22.285 -23.391,0 0,-22.285 -7.012,0 0,48.906"
         style="fill:#231f20;fill-opacity:1;fill-rule:nonzero;stroke:none"
         id="path26" /><path
         d="m 703.656,149.949 c 14.856,0 23.539,-10.816 23.539,-25.293 0,-14.859 -8.617,-25.3083 -23.539,-25.3083 -14.926,0 -23.539,10.4493 -23.539,25.3083 0,14.477 8.684,25.293 23.539,25.293 m 0,-44.414 c 11.282,0 16.114,9.375 16.114,19.121 0,9.946 -5.321,19.184 -16.114,19.121 -10.785,0.063 -16.105,-9.175 -16.105,-19.121 0,-9.746 4.828,-19.121 16.105,-19.121"
         style="fill:#231f20;fill-opacity:1;fill-rule:nonzero;stroke:none"
         id="path28" /><path
         d="m 761.836,149.109 26,0 0,-6.171 -18.981,0 0,-14.293 18.141,0 0,-6.157 -18.141,0 0,-22.285 -7.019,0 0,48.906"
         style="fill:#231f20;fill-opacity:1;fill-rule:nonzero;stroke:none"
         id="path30" /><path
         d="m 801.16,133.406 c 3.293,1.977 7.215,3.364 11.766,3.364 10.238,0 14.371,-5.059 14.371,-14.79 l 0,-14.785 c 0,-4.043 0.144,-5.957 0.277,-6.992 l -6.156,0 0,4.609 -0.152,0 c -1.536,-2.144 -5.039,-5.4643 -11.063,-5.4643 -7.707,0 -13.098,3.3553 -13.098,11.1483 0,8.969 9.809,11.777 16.602,11.777 2.586,0 4.418,0 6.996,-0.156 0,6.176 -2.242,9.321 -8.816,9.321 -3.711,0 -7.711,-1.387 -10.371,-3.626 l -0.356,5.594 z m 19.543,-16.187 c -1.391,0 -2.789,0.144 -4.199,0.144 -3.578,0 -12.395,-0.554 -12.395,-6.867 0,-3.785 3.633,-5.816 6.653,-5.816 6.511,0 9.941,4.082 9.941,9.39 l 0,3.149"
         style="fill:#231f20;fill-opacity:1;fill-rule:nonzero;stroke:none"
         id="path32" /><path
         d="m 863.945,129.895 c -2.507,1.05 -5.039,1.543 -7.129,1.543 -7.367,0 -11.5,-6.583 -11.5,-13.364 0,-6.386 3.438,-13.386 11.911,-13.386 2.242,0 5.046,0.71 7.082,2.023 l 0.488,-5.883 c -2.742,-1.2655 -5.891,-1.4803 -8.27,-1.4803 -10.781,0 -18.211,8.4723 -18.211,18.7263 0,10.844 7.282,18.703 18.211,18.703 2.657,0 6.09,-0.632 7.989,-1.394 l -0.571,-5.488"
         style="fill:#231f20;fill-opacity:1;fill-rule:nonzero;stroke:none"
         id="path34" /><path
         d="m 875.18,152.742 6.582,0 0,-21.93 0.152,0 c 2.379,3.797 6.52,5.958 11.488,5.958 9.239,0 13.379,-5.747 13.379,-15.352 l 0,-21.215 -6.59,0 0,18.481 c 0,8.359 -1.828,12.421 -7.57,12.754 -7.5,0 -10.859,-6.016 -10.859,-14.708 l 0,-16.527 -6.582,0 0,52.539"
         style="fill:#231f20;fill-opacity:1;fill-rule:nonzero;stroke:none"
         id="path36" /><path
         d="m 920.816,152.742 6.586,0 0,-21.93 0.118,0 c 2.402,3.797 6.542,5.958 11.503,5.958 9.239,0 13.379,-5.747 13.379,-15.352 l 0,-21.215 -6.582,0 0,18.481 c 0,8.359 -1.836,12.421 -7.578,12.754 -7.48,0 -10.84,-6.016 -10.84,-14.708 l 0,-16.527 -6.586,0 0,52.539"
         style="fill:#231f20;fill-opacity:1;fill-rule:nonzero;stroke:none"
         id="path38" /><path
         d="m 982.266,136.77 c 10.859,0 18.164,-7.852 18.164,-18.696 0,-10.254 -7.442,-18.7263 -18.164,-18.7263 -10.782,0 -18.223,8.4723 -18.223,18.7263 0,10.844 7.285,18.696 18.223,18.696 m 0,-32.09 c 7.714,0 11.152,7.008 11.152,13.394 0,6.781 -4.141,13.364 -11.152,13.364 -7.071,0 -11.219,-6.583 -11.219,-13.364 0,-6.386 3.457,-13.394 11.219,-13.394"
         style="fill:#231f20;fill-opacity:1;fill-rule:nonzero;stroke:none"
         id="path40" /><path
         d="m 1034.77,129.895 c -2.52,1.05 -5.04,1.543 -7.15,1.543 -7.36,0 -11.49,-6.583 -11.49,-13.364 0,-6.386 3.43,-13.386 11.9,-13.386 2.26,0 5.06,0.71 7.07,2.023 l 0.49,-5.883 c -2.73,-1.2655 -5.86,-1.4803 -8.27,-1.4803 -10.76,0 -18.19,8.4723 -18.19,18.7263 0,10.844 7.28,18.703 18.19,18.703 2.68,0 6.12,-0.632 8,-1.394 l -0.55,-5.488"
         style="fill:#231f20;fill-opacity:1;fill-rule:nonzero;stroke:none"
         id="path42" /><path
         d="m 1046,152.742 6.58,0 0,-21.93 0.13,0 c 2.39,3.797 6.51,5.958 11.51,5.958 9.24,0 13.38,-5.747 13.38,-15.352 l 0,-21.215 -6.62,0 0,18.481 c 0,8.359 -1.78,12.421 -7.54,12.754 -7.5,0 -10.86,-6.016 -10.86,-14.708 l 0,-16.527 -6.58,0 0,52.539"
         style="fill:#231f20;fill-opacity:1;fill-rule:nonzero;stroke:none"
         id="path44" /><path
         d="m 1088.96,107.195 c 2.6,-1.66 6.31,-2.515 8.19,-2.515 3.03,0 6.74,1.265 6.74,5.117 0,6.519 -15.49,5.957 -15.49,15.973 0,7.421 5.53,11 12.62,11 3.08,0 5.6,-0.618 8.17,-1.387 l -0.54,-5.766 c -1.46,0.918 -5.39,1.821 -6.93,1.821 -3.38,0 -6.31,-1.387 -6.31,-4.336 0,-7.29 15.49,-5.2 15.49,-16.606 0,-7.637 -6.11,-11.1483 -12.48,-11.1483 -3.36,0 -6.8,0.3711 -9.81,1.9683 l 0.35,5.879"
         style="fill:#231f20;fill-opacity:1;fill-rule:nonzero;stroke:none"
         id="path46" /><path
         d="m 1144.39,129.895 c -2.53,1.05 -5.03,1.543 -7.14,1.543 -7.35,0 -11.49,-6.583 -11.49,-13.364 0,-6.386 3.43,-13.386 11.92,-13.386 2.22,0 5.03,0.71 7.05,2.023 l 0.5,-5.883 c -2.74,-1.2655 -5.87,-1.4803 -8.28,-1.4803 -10.78,0 -18.21,8.4723 -18.21,18.7263 0,10.844 7.3,18.703 18.21,18.703 2.68,0 6.1,-0.632 8.01,-1.394 l -0.57,-5.488"
         style="fill:#231f20;fill-opacity:1;fill-rule:nonzero;stroke:none"
         id="path48" /><path
         d="m 1155.63,152.742 6.58,0 0,-21.93 0.13,0 c 2.37,3.797 6.53,5.958 11.49,5.958 9.24,0 13.38,-5.747 13.38,-15.352 l 0,-21.215 -6.57,0 0,18.481 c 0,8.359 -1.83,12.421 -7.57,12.754 -7.52,0 -10.86,-6.016 -10.86,-14.708 l 0,-16.527 -6.58,0 0,52.539"
         style="fill:#231f20;fill-opacity:1;fill-rule:nonzero;stroke:none"
         id="path50" /><path
         d="m 1232.83,100.203 -6.37,0 0,5.664 -0.11,0 c -1.99,-4.058 -6.76,-6.5193 -11.74,-6.5193 -9.24,0 -13.36,5.7573 -13.36,15.3473 l 0,21.235 6.58,0 0,-18.496 c 0,-8.34 1.82,-12.383 7.56,-12.754 7.48,0 10.86,6.035 10.86,14.722 l 0,16.528 6.58,0 0,-35.727"
         style="fill:#231f20;fill-opacity:1;fill-rule:nonzero;stroke:none"
         id="path52" /><path
         d="m 1247.7,100.203 6.6016,0 0,52.5312 -6.6016,0 0,-52.5312 z"
         style="fill:#231f20;fill-opacity:1;fill-rule:nonzero;stroke:none"
         id="path54" /><path
         d="m 1296.54,101.672 c -2.52,-0.918 -5.39,-2.3361 -11.29,-2.3361 -12.66,0 -18.49,7.7261 -18.49,19.3481 0,10.601 6.68,18.086 16.76,18.086 11.91,0 15.75,-8.684 15.75,-20.176 l -25.48,0 c 0,-7.074 5.53,-11.914 11.76,-11.914 4.35,0 9.37,2.246 10.99,3.574 l 0,-6.582 z m -4.25,19.82 c 0,5.473 -3.25,9.953 -8.91,9.953 -6.45,0 -9.11,-5.324 -9.59,-9.953 l 18.5,0"
         style="fill:#231f20;fill-opacity:1;fill-rule:nonzero;stroke:none"
         id="path56" /><path
         d="m 1354.86,149.949 c 14.87,0 23.54,-10.816 23.54,-25.293 0,-14.859 -8.61,-25.3083 -23.54,-25.3083 -14.92,0 -23.53,10.4493 -23.53,25.3083 0,14.477 8.69,25.293 23.53,25.293 m 0,-44.414 c 11.27,0 16.12,9.375 16.12,19.121 0,9.946 -5.32,19.184 -16.12,19.121 -10.78,0.063 -16.11,-9.175 -16.11,-19.121 0,-9.746 4.84,-19.121 16.11,-19.121"
         style="fill:#231f20;fill-opacity:1;fill-rule:nonzero;stroke:none"
         id="path58" /><path
         d="m 1387.91,107.195 c 2.58,-1.66 6.29,-2.515 8.18,-2.515 3.01,0 6.72,1.265 6.72,5.117 0,6.519 -15.5,5.957 -15.5,15.973 0,7.421 5.56,11 12.63,11 3.09,0 5.61,-0.618 8.19,-1.387 l -0.55,-5.766 c -1.49,0.918 -5.39,1.821 -6.95,1.821 -3.34,0 -6.29,-1.387 -6.29,-4.336 0,-7.29 15.47,-5.2 15.47,-16.606 0,-7.637 -6.08,-11.1483 -12.47,-11.1483 -3.37,0 -6.77,0.3711 -9.8,1.9683 l 0.37,5.879"
         style="fill:#231f20;fill-opacity:1;fill-rule:nonzero;stroke:none"
         id="path60" /><path
         d="m 1439.61,130.613 -9.45,0 0,-19.566 c 0,-4.121 2.52,-6.367 5.54,-6.367 2.01,0 3.5,0.625 4.48,1.265 l 0,-5.601 c -1.47,-0.4338 -3.52,-0.9963 -5.61,-0.9963 -6.8,0 -11.01,3.2423 -11.01,10.3713 l 0,20.894 -8.03,0 0,5.317 8.03,0 0,8.258 6.6,2.113 0,-10.371 9.45,0 0,-5.317"
         style="fill:#231f20;fill-opacity:1;fill-rule:nonzero;stroke:none"
         id="path62" /><path
         d="m 1448.03,107.195 c 2.58,-1.66 6.31,-2.515 8.18,-2.515 3.03,0 6.74,1.265 6.74,5.117 0,6.519 -15.47,5.957 -15.47,15.973 0,7.421 5.53,11 12.6,11 3.08,0 5.6,-0.618 8.2,-1.387 l -0.57,-5.766 c -1.46,0.918 -5.37,1.821 -6.93,1.821 -3.38,0 -6.31,-1.387 -6.31,-4.336 0,-7.29 15.49,-5.2 15.49,-16.606 0,-7.637 -6.09,-11.1483 -12.46,-11.1483 -3.38,0 -6.82,0.3711 -9.8,1.9683 l 0.33,5.879"
         style="fill:#231f20;fill-opacity:1;fill-rule:nonzero;stroke:none"
         id="path64" /><path
         d="m 1503.46,129.895 c -2.52,1.05 -5.06,1.543 -7.15,1.543 -7.35,0 -11.49,-6.583 -11.49,-13.364 0,-6.386 3.43,-13.386 11.92,-13.386 2.22,0 5.04,0.71 7.07,2.023 l 0.49,-5.883 c -2.74,-1.2655 -5.9,-1.4803 -8.28,-1.4803 -10.79,0 -18.21,8.4723 -18.21,18.7263 0,10.844 7.31,18.703 18.21,18.703 2.66,0 6.09,-0.632 8,-1.394 l -0.56,-5.488"
         style="fill:#231f20;fill-opacity:1;fill-rule:nonzero;stroke:none"
         id="path66" /><path
         d="m 1514.69,152.742 6.58,0 0,-21.93 0.14,0 c 2.38,3.797 6.52,5.958 11.48,5.958 9.26,0 13.38,-5.747 13.38,-15.352 l 0,-21.215 -6.58,0 0,18.481 c 0,8.359 -1.82,12.421 -7.56,12.754 -7.5,0 -10.86,-6.016 -10.86,-14.708 l 0,-16.527 -6.58,0 0,52.539"
         style="fill:#231f20;fill-opacity:1;fill-rule:nonzero;stroke:none"
         id="path68" /><path
         d="m 1600.74,100.203 -7.65,0 -9.24,29.985 -0.14,0 -9.02,-29.985 -7.66,0 -11.49,35.727 7.23,0 8.18,-29.575 0.14,0 9.11,29.575 7.79,0 8.94,-29.575 0.16,0 8.69,29.575 6.44,0 -11.48,-35.727"
         style="fill:#231f20;fill-opacity:1;fill-rule:nonzero;stroke:none"
         id="path70" /><path
         d="m 1648.89,101.672 c -2.52,-0.918 -5.39,-2.3361 -11.27,-2.3361 -12.69,0 -18.53,7.7261 -18.53,19.3481 0,10.601 6.66,18.086 16.77,18.086 11.91,0 15.75,-8.684 15.75,-20.176 l -25.48,0 c 0,-7.074 5.53,-11.914 11.76,-11.914 4.36,0 9.4,2.246 11,3.574 l 0,-6.582 z m -4.28,19.82 c 0,5.473 -3.2,9.953 -8.89,9.953 -6.44,0 -9.11,-5.324 -9.59,-9.953 l 18.48,0"
         style="fill:#231f20;fill-opacity:1;fill-rule:nonzero;stroke:none"
         id="path72" /><path
         d="m 1663.71,143.895 7.4,0 0,7.46 -7.4,0 0,-7.46 z m 0.4,-43.692 6.59,0 0,35.727 -6.59,0 0,-35.727"
         style="fill:#231f20;fill-opacity:1;fill-rule:nonzero;stroke:none"
         id="path74" /><path
         d="m 1682.97,105.945 20.59,24.668 -19.6,0 0,5.317 27.23,0 0,-5.742 -20.58,-24.653 21.33,0 0,-5.332 -28.97,0 0,5.742"
         style="fill:#231f20;fill-opacity:1;fill-rule:nonzero;stroke:none"
         id="path76" /><path
         d="m 591.465,618.191 25.101,0 0,-50.554 50.204,0 0,50.554 25.093,0 0,-125.125 -25.093,0 0,54.864 -50.204,0 0,-54.864 -25.101,0 0,125.125"
         style="fill:#231f20;fill-opacity:1;fill-rule:nonzero;stroke:none"
         id="path78" /><path
         d="m 809.527,595.254 c -7.89,3.418 -16.679,5.371 -25.461,5.371 -8.578,0 -19.695,-3.777 -19.695,-17.344 0,-21.711 54.848,-12.558 54.848,-54.511 0,-27.43 -21.719,-37.825 -46.973,-37.825 -13.617,0 -19.695,1.782 -32.07,4.817 l 2.336,22.605 c 8.597,-4.676 18.445,-7.703 28.304,-7.703 9.5,0 22.231,4.816 22.231,16.094 0,23.855 -54.828,13.972 -54.828,55.398 0,27.973 21.679,38.196 43.719,38.196 10.738,0 20.773,-1.473 29.933,-4.493 l -2.344,-20.605"
         style="fill:#231f20;fill-opacity:1;fill-rule:nonzero;stroke:none"
         id="path80" /><path
         d="m 886.363,564.773 8.262,0 c 12.355,0 26.496,1.821 26.496,17.383 0,15.09 -13.949,16.313 -26.496,16.313 l -8.262,0 0,-33.696 z m -25.09,53.418 27.043,0 c 26.899,0 58.996,0.911 58.996,-33.867 0,-14.715 -9.871,-26.902 -25.796,-29.043 l 0,-0.359 c 6.804,-0.508 10.742,-7.383 13.23,-12.879 l 20.117,-48.977 -27.976,0 -15.051,39.082 c -3.582,9.336 -6.82,12.891 -17.395,12.891 l -8.078,0 0,-51.973 -25.09,0 0,125.125"
         style="fill:#231f20;fill-opacity:1;fill-rule:nonzero;stroke:none"
         id="path82" /><path
         d="m 591.195,432.812 7.555,0 0,-21.992 25.129,0 0,21.992 7.539,0 0,-52.57 -7.539,0 0,23.969 -25.129,0 0,-23.969 -7.555,0 0,52.57"
         style="fill:#231f20;fill-opacity:1;fill-rule:nonzero;stroke:none"
         id="path84" /><path
         d="m 675.27,385.969 c 12.125,0 17.312,10.078 17.312,20.562 0,10.664 -5.711,20.637 -17.312,20.547 -11.586,0.09 -17.321,-9.883 -17.321,-20.547 0,-10.484 5.199,-20.562 17.321,-20.562 m 0,47.73 c 15.96,0 25.32,-11.582 25.32,-27.168 0,-15.972 -9.281,-27.207 -25.32,-27.207 -16.051,0 -25.309,11.235 -25.309,27.207 0,15.586 9.34,27.168 25.309,27.168"
         style="fill:#231f20;fill-opacity:1;fill-rule:nonzero;stroke:none"
         id="path86" /><path
         d="m 755.051,424.16 c -3.321,1.926 -7.008,2.93 -10.832,2.93 -12.117,0 -20.176,-8.711 -20.176,-20.559 0,-12.343 8.867,-20.562 19.801,-20.562 3.722,0 8.789,0.965 11.433,2.566 l 0.438,-7.265 c -3.985,-1.68 -8.863,-1.961 -11.965,-1.961 -16.641,0 -27.699,10.703 -27.699,27.461 0,16.179 11.754,26.929 27.793,26.929 4.039,0 8.054,-0.554 11.804,-2.273 l -0.597,-7.266"
         style="fill:#231f20;fill-opacity:1;fill-rule:nonzero;stroke:none"
         id="path88" /><path
         d="m 772.633,432.812 7.519,0 0,-21.992 25.168,0 0,21.992 7.512,0 0,-52.57 -7.512,0 0,23.969 -25.168,0 0,-23.969 -7.519,0 0,52.57"
         style="fill:#231f20;fill-opacity:1;fill-rule:nonzero;stroke:none"
         id="path90" /><path
         d="m 857.988,424.902 c -3.84,1.512 -5.957,2.188 -9.886,2.188 -4.18,0 -9.153,-1.543 -9.153,-7 0,-10.078 22.571,-7.785 22.571,-25.078 0,-11.223 -8.649,-15.703 -19.192,-15.703 -3.699,0 -7.316,1.101 -10.789,2.222 l 0.781,6.992 c 2.528,-1.043 7.098,-2.546 10.918,-2.546 4.289,0 10.321,2.375 10.321,8.515 0,11.809 -22.598,8.555 -22.598,24.922 0,9.324 7.351,14.285 16.855,14.285 3.461,0 7.622,-0.586 11.204,-1.89 l -1.032,-6.907"
         style="fill:#231f20;fill-opacity:1;fill-rule:nonzero;stroke:none"
         id="path92" /><path
         d="m 915.562,424.16 c -3.332,1.926 -7,2.93 -10.832,2.93 -12.136,0 -20.21,-8.711 -20.21,-20.559 0,-12.343 8.914,-20.562 19.843,-20.562 3.75,0 8.801,0.965 11.422,2.566 l 0.469,-7.265 c -4.024,-1.68 -8.91,-1.961 -11.992,-1.961 -16.629,0 -27.707,10.703 -27.707,27.461 0,16.179 11.73,26.929 27.808,26.929 4.039,0 8.039,-0.554 11.789,-2.273 l -0.59,-7.266"
         style="fill:#231f20;fill-opacity:1;fill-rule:nonzero;stroke:none"
         id="path94" /><path
         d="m 933.145,432.812 7.539,0 0,-21.992 25.128,0 0,21.992 7.555,0 0,-52.57 -7.555,0 0,23.969 -25.128,0 0,-23.969 -7.539,0 0,52.57"
         style="fill:#231f20;fill-opacity:1;fill-rule:nonzero;stroke:none"
         id="path96" /><path
         d="m 1035.51,402.012 c 0,-14.739 -7.43,-22.676 -20.39,-22.676 -12.95,0 -20.393,7.937 -20.393,22.676 l 0,30.8 7.533,0 0,-29.832 c 0,-10.121 3.13,-17.003 12.86,-17.003 9.69,0 12.87,6.882 12.87,17.003 l 0,29.832 7.52,0 0,-30.8"
         style="fill:#231f20;fill-opacity:1;fill-rule:nonzero;stroke:none"
         id="path98" /><path
         d="m 1056.43,432.812 7.52,0 0,-45.937 21.99,0 0,-6.633 -29.51,0 0,52.57"
         style="fill:#231f20;fill-opacity:1;fill-rule:nonzero;stroke:none"
         id="path100" /><path
         d="m 1102.01,432.812 29.44,0 0,-6.589 -21.92,0 0,-15.403 20,0 0,-6.609 -20,0 0,-17.336 21.92,0 0,-6.633 -29.44,0 0,52.57"
         style="fill:#231f20;fill-opacity:1;fill-rule:nonzero;stroke:none"
         id="path102" /><path
         d="m 1179,432.812 27.91,0 0,-6.589 -20.37,0 0,-15.403 19.51,0 0,-6.609 -19.51,0 0,-23.969 -7.54,0 0,52.57"
         style="fill:#231f20;fill-opacity:1;fill-rule:nonzero;stroke:none"
         id="path104" /><path
         d="m 1247.73,444.707 7.07,0 0,-7.539 -7.07,0 0,7.539 z m -12.38,0 7.09,0 0,-7.539 -7.09,0 0,7.539 z m 30.16,-42.695 c 0,-14.739 -7.46,-22.703 -20.41,-22.703 -12.95,0 -20.43,7.964 -20.43,22.703 l 0,30.8 7.56,0 0,-29.832 c 0,-10.121 3.12,-17.011 12.87,-17.011 9.7,0 12.87,6.89 12.87,17.011 l 0,29.832 7.54,0 0,-30.8"
         style="fill:#231f20;fill-opacity:1;fill-rule:nonzero;stroke:none"
         id="path106" /><path
         d="m 1293.55,410.195 6.43,0 c 7.11,0 11.37,3.196 11.37,8.243 0,4.714 -3.64,7.761 -10.55,7.761 l -7.25,0 0,-16.004 z m -7.51,22.617 12.85,0 c 10.39,0 20.39,-1.66 20.39,-14.257 0,-6.407 -4.71,-10.91 -10.82,-11.946 l 0,-0.132 c 2.34,-0.918 3.45,-2.036 5.11,-5.317 l 9.95,-20.926 -8.6,0 -8.03,18.262 c -2.36,5.125 -4.82,5.125 -8.84,5.125 l -4.5,0 0,-23.387 -7.51,0 0,52.578"
         style="fill:#231f20;fill-opacity:1;fill-rule:nonzero;stroke:none"
         id="path108" /><path
         d="m 1378.91,426.199 -16.35,0 0,6.613 40.21,0 0,-6.613 -16.34,0 0,-45.984 -7.52,0 0,45.984"
         style="fill:#231f20;fill-opacity:1;fill-rule:nonzero;stroke:none"
         id="path110" /><path
         d="m 1418.16,432.812 29.44,0 0,-6.589 -21.92,0 0,-15.403 19.98,0 0,-6.609 -19.98,0 0,-17.336 21.92,0 0,-6.633 -29.44,0 0,52.57"
         style="fill:#231f20;fill-opacity:1;fill-rule:nonzero;stroke:none"
         id="path112" /><path
         d="m 1503.46,424.16 c -3.32,1.926 -7.01,2.93 -10.82,2.93 -12.17,0 -20.24,-8.711 -20.24,-20.559 0,-12.343 8.89,-20.562 19.85,-20.562 3.73,0 8.79,0.965 11.4,2.566 l 0.46,-7.265 c -3.97,-1.68 -8.9,-1.961 -11.96,-1.961 -16.66,0 -27.7,10.703 -27.7,27.461 0,16.179 11.73,26.929 27.8,26.929 4.06,0 8.02,-0.554 11.79,-2.273 l -0.58,-7.266"
         style="fill:#231f20;fill-opacity:1;fill-rule:nonzero;stroke:none"
         id="path114" /><path
         d="m 1521,432.812 7.57,0 0,-21.992 25.13,0 0,21.992 7.52,0 0,-52.57 -7.52,0 0,23.969 -25.13,0 0,-23.969 -7.57,0 0,52.57"
         style="fill:#231f20;fill-opacity:1;fill-rule:nonzero;stroke:none"
         id="path116" /><path
         d="m 1582.44,432.812 10.26,0 23.16,-42.343 0.16,0 0,42.343 7.53,0 0,-52.57 -9.65,0 -23.8,43.235 -0.12,0 0,-43.235 -7.54,0 0,52.57"
         style="fill:#231f20;fill-opacity:1;fill-rule:nonzero;stroke:none"
         id="path118" /><path
         d="m 1644.38,380.242 7.5117,0 0,52.5898 -7.5117,0 0,-52.5898 z"
         style="fill:#231f20;fill-opacity:1;fill-rule:nonzero;stroke:none"
         id="path120" /><path
         d="m 1673.18,432.812 7.54,0 0,-23.124 22.46,23.124 10,0 -24.68,-24.832 26.66,-27.738 -11,0 -23.44,25.766 0,-25.766 -7.54,0 0,52.57"
         style="fill:#231f20;fill-opacity:1;fill-rule:nonzero;stroke:none"
         id="path122" /><path
         d="m 598.852,297.102 6.402,0 c 7.141,0 11.351,3.152 11.351,8.179 0,4.77 -3.621,7.766 -10.543,7.766 l -7.21,0 0,-15.945 z m -7.547,22.566 12.871,0 c 10.398,0 20.418,-1.641 20.418,-14.23 0,-6.395 -4.739,-10.895 -10.86,-11.961 l 0,-0.165 c 2.371,-0.902 3.493,-2.035 5.118,-5.265 l 9.96,-20.938 -8.597,0 -8.043,18.235 c -2.336,5.125 -4.817,5.125 -8.817,5.125 l -4.503,0 0,-23.36 -7.547,0 0,52.559"
         style="fill:#231f20;fill-opacity:1;fill-rule:nonzero;stroke:none"
         id="path124" /><path
         d="m 665.602,312.578 -10.469,-26.023 20.922,0 -10.453,26.023 z m -3.688,7.11 7.898,0 22.2,-52.579 -8.188,0 -5.344,13.243 -25.753,0 -5.344,-13.243 -7.918,0 22.449,52.579"
         style="fill:#231f20;fill-opacity:1;fill-rule:nonzero;stroke:none"
         id="path126" /><path
         d="m 714.203,294.746 7.453,0 c 4.656,0 10.524,2.356 10.524,9.285 0,6.645 -6.926,9.016 -11.582,9.016 l -6.395,0 0,-18.301 z m -7.527,24.942 13.769,0 c 10.75,0 19.743,-3.821 19.743,-15.743 0,-11.679 -9.114,-15.8 -18.602,-15.8 l -7.383,0 0,-21.036 -7.527,0 0,52.579"
         style="fill:#231f20;fill-opacity:1;fill-rule:nonzero;stroke:none"
         id="path128" /><path
         d="m 763.555,294.746 7.468,0 c 4.665,0 10.543,2.356 10.543,9.285 0,6.645 -6.937,9.016 -11.582,9.016 l -6.429,0 0,-18.301 z m -7.508,24.942 13.765,0 c 10.774,0 19.735,-3.821 19.735,-15.743 0,-11.679 -9.133,-15.8 -18.602,-15.8 l -7.39,0 0,-21.036 -7.508,0 0,52.579"
         style="fill:#231f20;fill-opacity:1;fill-rule:nonzero;stroke:none"
         id="path130" /><path
         d="m 806.223,319.688 29.453,0 0,-6.641 -21.903,0 0,-15.352 19.957,0 0,-6.633 -19.957,0 0,-17.3 21.903,0 0,-6.653 -29.453,0 0,52.579"
         style="fill:#231f20;fill-opacity:1;fill-rule:nonzero;stroke:none"
         id="path132" /><path
         d="m 862.281,297.102 6.418,0 c 7.16,0 11.356,3.152 11.356,8.179 0,4.77 -3.606,7.766 -10.543,7.766 l -7.231,0 0,-15.945 z m -7.519,22.566 12.871,0 c 10.41,0 20.398,-1.641 20.398,-14.23 0,-6.395 -4.711,-10.895 -10.808,-11.961 l 0,-0.165 c 2.328,-0.902 3.425,-2.035 5.121,-5.265 l 9.918,-20.938 -8.571,0 -8.082,18.235 c -2.297,5.125 -4.797,5.125 -8.797,5.125 l -4.531,0 0,-23.36 -7.519,0 0,52.559"
         style="fill:#231f20;fill-opacity:1;fill-rule:nonzero;stroke:none"
         id="path134" /><path
         d="m 932.598,311.785 c -3.828,1.508 -5.938,2.168 -9.871,2.168 -4.204,0 -9.172,-1.504 -9.172,-7.012 0,-10.093 22.566,-7.753 22.566,-25.039 0,-11.257 -8.641,-15.691 -19.207,-15.691 -3.668,0 -7.281,1.016 -10.738,2.187 l 0.75,6.993 c 2.539,-1.067 7.09,-2.547 10.91,-2.547 4.297,0 10.316,2.422 10.316,8.594 0,11.738 -22.593,8.472 -22.593,24.824 0,9.363 7.386,14.265 16.867,14.265 3.472,0 7.613,-0.547 11.207,-1.836 l -1.035,-6.906"
         style="fill:#231f20;fill-opacity:1;fill-rule:nonzero;stroke:none"
         id="path136" /><path
         d="m 947.305,319.688 8.3,0 12.579,-45.02 0.144,0 11.223,45.02 10.683,0 11.366,-45.02 0.16,0 12.58,45.02 7.98,0 -16.2,-52.579 -9.714,0 -11.433,45.938 -0.149,0 -11.531,-45.938 -10.102,0 -15.886,52.579"
         style="fill:#231f20;fill-opacity:1;fill-rule:nonzero;stroke:none"
         id="path138" /><path
         d="m 1036.65,267.102 7.543,0 0,52.5859 -7.543,0 0,-52.5859 z"
         style="fill:#231f20;fill-opacity:1;fill-rule:nonzero;stroke:none"
         id="path140" /><path
         d="m 1065,319.688 7.58,0 0,-45.926 21.99,0 0,-6.653 -29.57,0 0,52.579"
         style="fill:#231f20;fill-opacity:1;fill-rule:nonzero;stroke:none"
         id="path142" /></g></g></svg>