<?xml version="1.0" encoding="UTF-8" standalone="no"?>
<!-- Created with Inkscape (http://www.inkscape.org/) -->

<svg
   xmlns:dc="http://purl.org/dc/elements/1.1/"
   xmlns:cc="http://creativecommons.org/ns#"
   xmlns:rdf="http://www.w3.org/1999/02/22-rdf-syntax-ns#"
   xmlns:svg="http://www.w3.org/2000/svg"
   xmlns="http://www.w3.org/2000/svg"
   xmlns:sodipodi="http://sodipodi.sourceforge.net/DTD/sodipodi-0.dtd"
   xmlns:inkscape="http://www.inkscape.org/namespaces/inkscape"
   id="svg2"
   version="1.1"
   inkscape:version="0.48.3.1 r9886"
   width="532.12501"
   height="217.68749"
   xml:space="preserve"
   sodipodi:docname="muen.svg"><metadata
     id="metadata8"><rdf:RDF><cc:Work
         rdf:about=""><dc:format>image/svg+xml</dc:format><dc:type
           rdf:resource="http://purl.org/dc/dcmitype/StillImage" /><dc:title /></cc:Work></rdf:RDF></metadata><defs
     id="defs6" /><sodipodi:namedview
     pagecolor="#ffffff"
     bordercolor="#666666"
     borderopacity="1"
     objecttolerance="10"
     gridtolerance="10"
     guidetolerance="10"
     inkscape:pageopacity="0"
     inkscape:pageshadow="2"
     inkscape:window-width="1600"
     inkscape:window-height="845"
     id="namedview4"
     showgrid="false"
     inkscape:zoom="0.67653277"
     inkscape:cx="-8.1296873"
     inkscape:cy="42.597157"
     inkscape:window-x="0"
     inkscape:window-y="25"
     inkscape:window-maximized="1"
     inkscape:current-layer="g12" /><g
     id="g10"
     inkscape:groupmode="layer"
     inkscape:label="muen"
     transform="matrix(1.25,0,0,-1.25,0,217.68749)"><g
       id="g12"><path
         d="m 48.152,-0.002 0,1.359 c -1.949,2.539 -3.527,5.16 -4.734,7.859 -1.199,2.707 -1.797,5.563 -1.797,8.563 l 0.688,8.766 -1.579,8.328 1.579,0 2.921,-1.578 0,0.687 0.891,0 9.688,-6.531 2.015,-15.75 L 56.48,2.92 C 54.98,3.377 53.59,3.341 52.309,2.81 51.035,2.287 49.953,1.802 49.059,1.357 l 0,-1.359 -0.907,0 z m 27.672,1.359 c -4.054,4.5 -6.679,9.484 -7.875,14.953 -1.199,5.477 -2.324,10.914 -3.375,16.313 l 3.828,0 17.094,-13.5 0.688,-13.266 -10.36,-4.5 z m 88.438,6.75 -15.766,13.266 c 0,3 -1.242,5.507 -3.719,7.531 -2.468,2.031 -4.152,4.473 -5.047,7.328 l 4.5,0 c 3.895,-1.961 7.832,-3.312 11.813,-4.062 3.977,-0.75 7.691,-2.625 11.141,-5.625 l 0.671,-2.016 1.579,0 c 1.05,-2.106 2.285,-3.906 3.703,-5.406 1.425,-1.5 2.14,-3.45 2.14,-5.844 l -2.25,0 0,-3.828 -1.343,-0.672 -6.75,1.578 0,-2.25 -0.672,0 z m -50.641,0.672 c -3,1.945 -5.742,4.531 -8.219,7.75 -2.468,3.226 -4.902,6.344 -7.297,9.344 l -0.906,3.828 4.5,0 18.672,-8.328 2.25,-6.516 -2.922,-2.25 -1.578,-1.578 -2.922,0.672 -1.578,-2.922 z m -94.266,33.516 -11.25,4.5 0,1.359 -8.109,1.578 5.172,0 0,2.25 -0.672,0 c 8.406,3.445 17.18,5.547 26.328,6.297 9.156,0.75 18.457,1.875 27.906,3.375 l 0,1.344 0,-0.672 3.594,0 16.422,3.828 0.688,2.922 0,-2.25 2.25,0 0,5.859 -2.938,18 -6.062,0 -5.188,-1.578 -6.516,-23.859 -0.906,1.578 -1.344,0 0,0.672 1.344,0 0,2.25 -2.25,0 0,5.859 -1.344,0 -3.828,16.422 -5.172,2.922 0,0.906 2.922,0.672 0,1.578 c -1.5,0.895 -2.476,2.094 -2.922,3.594 -0.449,1.5 -0.671,3.222 -0.671,5.172 l 1.343,0 3.828,-2.25 0,-1.344 c 2.551,-0.606 4.688,-1.774 6.407,-3.5 1.726,-1.719 4.015,-2.055 6.859,-1 l 11.938,2.25 0,2.922 -5.86,11.25 13.281,0 3.141,-6.078 0.688,0 0,-1.563 -0.688,-3.609 3.609,0 4.5,2.25 0.672,2.922 -2.922,10.359 0.672,0 c 1.946,-0.906 4.196,-1.512 6.75,-1.812 2.551,-0.293 4.274,-1.415 5.172,-3.36 l 0,-5.187 15.531,0 0,3.828 -2.031,10.359 5.172,0.672 0,1.578 10.359,0 2.922,-2.25 0,-2.25 c -1.5,-6.906 -3.226,-13.851 -5.172,-20.828 -1.949,-6.969 -3.902,-13.902 -5.859,-20.797 l -1.562,0 0,-1.578 0,1.578 2.25,8.094 -1.579,0 -5.171,-15.531 9,0 8.765,1.578 29.938,0 2.922,0.672 21.593,-1.563 0,-2.937 2.25,0 0,-2.25 0.672,0 -2.25,-0.672 -1.562,-4.5 0.89,0 0,-0.672 -6.75,0 0,-0.906 1.36,-0.672 -4.282,0 c -4.054,1.5 -8.445,2.25 -13.171,2.25 -4.719,0 -9.258,0.222 -13.61,0.672 l -3.828,-0.672 -16.187,0.672 C 116.848,62.548 97.457,60.334 78.637,56.357 59.812,52.388 41.027,47.701 22.277,42.295 l -2.25,0.687 -0.672,-0.687 z m 77.172,26.781 0.672,1.359 0,-1.359 2.25,0 0.906,15.531 -1.578,0 -1.578,8.094 -5.172,0.906 -4.281,-0.906 -4.5,-25.875 2.25,0 11.031,2.25 z m 19.344,2.25 1.578,2.922 1.36,0 1.562,9.687 -0.672,0 0,2.25 0.672,10.344 -2.25,0 -12.594,-2.25 c -0.449,-4.5 -1.199,-8.742 -2.25,-12.719 -1.054,-3.969 -1.804,-8.133 -2.25,-12.484 l 1.578,0 13.266,2.25 z m -66.812,51.297 0,2.937 -1.579,0.672 0,2.25 -2.25,0 0,-1.578 0,2.25 1.579,12.594 c 0.445,4.5 -0.454,8.625 -2.704,12.375 -2.25,3.75 -3.078,7.8 -2.484,12.156 l 1.359,3.156 3.141,0 6.531,-2.25 0,0.672 4.5,0 6.75,-2.922 0.672,-16.437 -1.344,-5.172 11.016,-2.25 c 4.051,0.445 8.024,1.304 11.922,2.578 3.906,1.281 7.883,2.672 11.937,4.172 l 0,2.25 c 3.446,0.906 7.008,1.359 10.688,1.359 3.676,0 7.535,0.297 11.578,0.891 l 2.25,-4.5 -1.562,-0.672 0,-1.578 2.25,-1.578 0,-1.344 -1.579,-2.25 0.891,-1.578 c -6,-2.399 -12.34,-3.969 -19.016,-4.719 -6.667,-0.75 -13.226,-1.652 -19.671,-2.703 l -14.86,4.5 0,1.578 -7.422,3.594 c 0,-3 -0.75,-5.477 -2.25,-7.422 -1.5,-1.949 -2.699,-4.199 -3.593,-6.75 l -5.407,-1.344 -1.343,-2.937 z M 342.461,4.279 c -0.606,3.445 -1.809,6.519 -3.609,9.219 -1.805,2.695 -2.704,6.148 -2.704,10.359 l 2.25,0 8.11,-4.5 c 4.344,9.145 7.566,18.891 9.672,29.234 2.101,10.352 3.828,20.93 5.172,31.735 l -3.594,9.453 -1.797,0.906 -9.453,7.875 -0.906,2.25 -3.141,1.125 -7.438,-5.187 0,-2.688 3.375,0 4.735,0.891 0,-1.797 c -3.75,-7.356 -7.543,-14.746 -11.375,-22.172 -3.824,-7.418 -8.656,-14.5 -14.5,-21.25 l -2.703,-0.906 -1.344,-4.5 -0.906,0 0,2.469 c 3.75,7.05 7.648,14.023 11.703,20.921 4.051,6.907 6.301,14.258 6.75,22.063 l -1.36,0 -6.75,-5.844 c 4.5,5.094 8.661,10.488 12.485,16.188 3.832,5.707 6.5,11.707 8,18 l -1.578,0 c -3.606,-1.043 -7.469,-2.278 -11.594,-3.703 -4.125,-1.43 -8.137,-3.043 -12.031,-4.844 l -6.297,3.375 -1.797,6.078 1.797,0 0,1.578 c 7.344,1.195 14.613,2.957 21.812,5.281 7.207,2.321 14.258,4.688 21.157,7.094 l 0.671,2.469 -0.671,2.484 1.359,0 1.125,6.969 -1.813,0 c -3.148,-2.399 -6.746,-3.594 -10.796,-3.594 -4.055,0 -8.028,-0.305 -11.922,-0.906 l -1.797,4.5 c 2.844,0.601 5.504,1.281 7.984,2.031 2.477,0.75 5.067,1.723 7.766,2.922 0.445,1.195 1.492,1.945 3.14,2.25 1.657,0.301 3.305,0.453 4.954,0.453 l 3.156,-0.906 0.89,12.156 -4.046,0 -16.204,-6.078 -8.312,8.547 6.062,1.578 4.735,-0.672 27.672,6.969 7.203,-4.5 0,-4.281 c -2.699,-3.899 -4.313,-8.586 -4.844,-14.063 -0.523,-5.469 -1.008,-10.758 -1.453,-15.859 l 3.141,0 c 0.601,1.051 1.578,1.726 2.921,2.031 1.352,0.301 2.477,0.453 3.375,0.453 l 0,1.797 4.954,0.672 15.531,-6.75 0,-1.578 -7.422,-3.828 0,-0.891 c -6,-0.449 -12.078,-0.937 -18.234,-1.469 -6.149,-0.523 -12.297,-1.683 -18.454,-3.484 -0.449,-3.899 -1.914,-7.274 -4.39,-10.125 -2.469,-2.856 -4.453,-6.008 -5.953,-9.453 3.75,0.601 6.972,0.113 9.672,-1.469 2.695,-1.574 5.398,-2.508 8.109,-2.797 l 2.687,0.438 3.157,-2.25 0,-1.797 1.578,0 7.422,8.781 1.343,0 3.375,10.125 5.86,0 0.906,-1.578 4.047,-1.797 0,-3.375 -3.375,-6.297 c -2.856,-2.105 -6.047,-3.461 -9.578,-4.062 -3.524,-0.594 -6.856,-1.793 -10,-3.594 l 0,-2.469 c 2.25,-7.355 5.359,-14.336 9.328,-20.937 3.977,-6.594 8.742,-12.746 14.297,-18.453 4.945,-5.25 10.269,-9.602 15.969,-13.047 5.707,-3.45 11.035,-7.422 15.984,-11.922 l 0,-4.047 -1.797,0 c -6.906,2.094 -13.664,5.016 -20.266,8.766 -6.593,3.75 -12.964,8.398 -19.109,13.953 l -12.828,18.234 -1.578,0 C 368.477,56.927 366.824,50.627 365.18,44.326 363.531,38.021 361.586,31.72 359.336,25.42 l -1.578,0 c -1.199,-3.293 -2.852,-6.555 -4.953,-9.782 -2.106,-3.23 -3.981,-6.492 -5.625,-9.781 l -4.719,-1.578 z m -70.203,4.266 -1.578,0.906 -5.625,8.094 -4.047,1.812 0,2.922 6.515,2.25 c 1.051,4.644 1.579,9.703 1.579,15.172 0,5.476 0,10.769 0,15.875 l -4.954,33.531 -1.343,0 -5.86,-3.375 -2.468,-4.5 -3.375,-0.906 -4.719,5.406 -1.813,8.328 c 4.957,4.5 9.235,9.633 12.828,15.406 3.602,5.77 7.204,11.508 10.797,17.219 l 0,2.688 -1.343,0 -11.704,-6.969 -2.468,-2.703 -5.625,4.5 -1.797,12.156 5.844,8.547 c 1.05,4.5 2.703,8.773 4.953,12.828 2.25,4.051 3.597,8.625 4.047,13.719 l 1.578,0 0,2.703 2.468,0 9,-11.25 -13.718,-28.344 2.25,0 11.468,4.266 2.485,13.734 2.25,0.891 7.422,-3.594 0.906,-5.859 -3.156,-11.922 -4.282,-5.391 -0.89,-6.078 10.797,-8.328 c 1.644,-3.449 3.519,-6.902 5.625,-10.359 2.101,-3.45 3.156,-7.196 3.156,-11.235 l -0.688,-1.578 -4.046,0 -5.625,2.469 c -1.2,1.051 -1.914,2.551 -2.141,4.5 -0.219,1.945 -0.555,3.898 -1,5.859 l -4.281,0 -7.422,-4.281 -0.672,-4.5 4.719,-0.906 0,-2.469 -0.672,-4.047 1.578,-18.234 c -1.656,-6.149 -2.637,-12.559 -2.938,-19.235 -0.293,-6.679 -0.437,-13.39 -0.437,-20.14 l 2.469,-5.844 -0.672,-6.297 0.672,-5.859 -4.047,-1.578 z m 47.469,22.281 0,0.672 c 5.406,7.351 9.984,15.039 13.734,23.062 3.75,8.031 6.445,16.617 8.094,25.766 l -0.672,2.703 1.578,3.375 8.094,1.797 4.718,-1.797 0,-2.469 c -3.148,-8.711 -7.308,-16.89 -12.484,-24.547 -5.18,-7.648 -9.937,-15.515 -14.281,-23.609 -1.656,-0.606 -3.047,-1.586 -4.172,-2.938 -1.125,-1.343 -2.664,-2.015 -4.609,-2.015 z m -79.204,5.844 0,1.578 -3.375,0 -2.25,2.703 -1.343,10.344 1.343,15.312 1.579,0 c 3.144,-2.25 5.281,-5.25 6.406,-9 1.125,-3.75 1.914,-7.355 2.375,-10.812 l 1.797,0 0.89,-4.266 -1.562,-3.375 -1.813,0 0,-1.578 -4.047,-0.906 z m 51.532,24.078 -2.703,0.687 0,1.797 -1.344,0 -3.375,14.844 0.672,0 0.906,2.25 2.469,0.906 1.578,-3.156 5.844,-3.828 c 0.906,-1.649 1.804,-3.336 2.703,-5.063 0.894,-1.719 1.047,-3.703 0.453,-5.953 l -1.797,0 0,-1.797 -5.406,-0.687 z m 41.406,29.937 1.562,3.375 -1.562,0 -2.703,-4.281 1.797,0 0.906,0.906 z m -52.203,15.516 0,3.375 -4.047,8.547 -3.375,0.906 -14.406,-20.469 3.375,0 18.453,7.641 z"
         style="fill:#ffffff;fill-opacity:0.40000001;fill-rule:nonzero;stroke:none"
         id="path14" /></g></g></svg>