<?xml version="1.0" encoding="UTF-8" standalone="no"?>
<!-- Created with Inkscape (http://www.inkscape.org/) -->
<svg id="svg2990" xmlns:rdf="http://www.w3.org/1999/02/22-rdf-syntax-ns#" xmlns="http://www.w3.org/2000/svg" viewBox="0 0 100 99.788" version="1.1" xmlns:cc="http://creativecommons.org/ns#" xmlns:dc="http://purl.org/dc/elements/1.1/">
 <defs id="defs2992">
  <filter id="filter3788" color-interpolation-filters="sRGB">
   <feGaussianBlur id="feGaussianBlur3790" stdDeviation="9.21875"/>
  </filter>
 </defs>
 <metadata id="metadata2995">
  <rdf:RDF>
   <cc:Work rdf:about="">
    <dc:format>image/svg+xml</dc:format>
    <dc:type rdf:resource="http://purl.org/dc/dcmitype/StillImage"/>
    <dc:title/>
   </cc:Work>
  </rdf:RDF>
 </metadata>
 <g id="layer1" transform="translate(-154.8125,-366.35583)">
  <g id="g3090" transform="matrix(0.24187453,0,0,0.24187453,156.72482,317.02098)">
   <path id="path3775" filter="url(#filter3788)" fill="#000" d="M181.19,226.09c-88.435,8.16-158.8,78.51-166.97,166.94h94.812c0.22437-1.1308,0.48431-2.2606,0.75-3.375s0.53714-2.2135,0.84375-3.3125c0.61323-2.198,1.3228-4.3724,2.0938-6.5,0.38549-1.0638,0.79755-2.116,1.2188-3.1562,0.4212-1.0403,0.85153-2.0686,1.3125-3.0938,0.92194-2.0503,1.9026-4.065,2.9688-6.0312,2.1323-3.9326,4.5502-7.6944,7.2188-11.25s5.5992-6.907,8.75-10.031c3.1508-3.1242,6.5149-6.0178,10.094-8.6562,3.5788-2.6384,7.3597-5.0267,11.312-7.125,1.9764-1.0491,4.0027-2.0336,6.0625-2.9375s4.1761-1.7169,6.3125-2.4688c2.1364-0.75187,4.2938-1.4382,6.5-2.0312,2.2062-0.59303,4.4495-1.1039,6.7188-1.5312v-95.438zm34.406,0,0,95.562c4.1767,0.81485,8.2368,1.9151,12.188,3.2812l47.71-82.68c-18.55-8.5305-38.663-14.196-59.906-16.156zm89.719,33.344-47.75,82.719c3.1776,2.7552,6.1694,5.7089,8.9375,8.875l82.688-47.719c-12.059-16.972-26.903-31.816-43.875-43.875zm61.094,73.688-82.562,47.656c0.82181,2.3484,1.5588,4.725,2.1875,7.1562,0.6287,2.4313,1.1351,4.9318,1.5625,7.4375,0.42736,2.5057,0.75096,5.0222,0.96875,7.5938,0.21779,2.5715,0.34375,5.1836,0.34375,7.8125,0,3.402-0.19808,6.7576-0.5625,10.062-0.36442,3.3049-0.88437,6.5616-1.5938,9.75-0.70938,3.1884-1.5901,6.3226-2.625,9.375s-2.2216,6.0093-3.5625,8.9062-2.8412,5.7155-4.4688,8.4375c-1.6275,2.722-3.3866,5.3473-5.2812,7.875-1.8947,2.5277-3.9201,4.9674-6.0625,7.2812-2.1424,2.3139-4.4106,4.5131-6.7812,6.5938l47.344,81.969c47.186-33.529,78.094-88.488,78.094-150.78,0-27.56-6.1937-53.625-17-77.125zm-167.6,31.66c-25.113,0-45.469,20.356-45.469,45.469s20.356,45.469,45.469,45.469,45.469-20.356,45.469-45.469-20.356-45.469-45.469-45.469zm-184.59,62.66c1.9605,21.244,7.6254,41.387,16.156,59.938l81.781-47.219c-1.408-4.1202-2.5356-8.3557-3.3438-12.719h-94.594zm115.06,42.594-81.688,47.156c30.404,42.788,78.435,72.128,133.59,77.219v-94.375c-2.5763-0.48522-5.0996-1.0833-7.5938-1.7812-2.4942-0.69792-4.9728-1.5056-7.375-2.4062-2.4022-0.9007-4.7308-1.8752-7.0312-2.9688-2.3005-1.0936-4.5611-2.286-6.75-3.5625s-4.3075-2.6443-6.375-4.0938-4.0949-2.9812-6.0312-4.5938c-1.9364-1.6125-3.7984-3.3281-5.5938-5.0938s-3.5116-3.5911-5.1562-5.5zm99,26.438c-4.1072,1.4474-8.3338,2.5881-12.688,3.4375v94.5c21.25-1.96,41.36-7.63,59.91-16.16l-47.219-81.781z"/>
   <flowRoot id="flowRoot3869" style="letter-spacing:0px;text-anchor:middle;word-spacing:0px;text-align:center;" font-weight="normal" xml:space="preserve" font-size="20px" line-height="125%" font-stretch="normal" font-variant="normal" font-style="normal" font-family="Arial" fill="#1a1a1a"><flowRegion id="flowRegion3871"><rect id="rect3873" height="108.49" width="110.89" y="141.75" x="-189.06" fill="#1a1a1a"/></flowRegion><flowPara id="flowPara3875"/></flowRoot>
  </g>
  <g id="g3826" transform="translate(4,-2)">
   <path id="path3068" fill="#000" d="m216.94,374.23c-4.4867-2.0633-9.3516-3.4335-14.49-3.9078v23.114c1.0102,0.19709,1.9923,0.46322,2.9478,0.79365l11.542-20z"/>
   <path id="path3066" fill="#000" d="m234.77,389c-2.9168-4.1051-6.5071-7.6954-10.612-10.612l-11.55,20.008c0.76858,0.66642,1.4922,1.3808,2.1618,2.1466l20-11.542z"/>
   <path id="path3064" d="m224.15,451.33c11.413-8.1099,18.889-21.403,18.889-36.47,0-6.6662-1.4981-12.971-4.1119-18.655l-19.97,11.527c0.19877,0.56802,0.37703,1.1428,0.5291,1.7309,0.15207,0.58807,0.27456,1.1929,0.37793,1.7989,0.10337,0.60606,0.18164,1.2148,0.23431,1.8367,0.0527,0.62199,0.0831,1.2538,0.0831,1.8896,0,0.82287-0.0479,1.6345-0.13606,2.4339-0.0881,0.79938-0.2139,1.5871-0.38548,2.3583-0.17158,0.77119-0.38461,1.5293-0.63492,2.2676-0.25032,0.73828-0.53734,1.4535-0.86168,2.1542-0.32434,0.70069-0.68722,1.3824-1.0809,2.0408-0.39366,0.65838-0.81912,1.2934-1.2774,1.9048-0.45827,0.61138-0.94818,1.2015-1.4664,1.7612-0.51819,0.55966-1.0668,1.0916-1.6402,1.5949l11.451,19.826z" stroke="#000" stroke-width="0.24187453" fill="#800000"/>
   <path id="path3062" fill="#000" d="m202.45,459.41c5.1382-0.47425,10.003-1.8445,14.49-3.9078l-11.421-19.781c-0.99341,0.35009-2.0157,0.62599-3.0688,0.83144v22.857z"/>
   <path id="path3060" d="m161.82,440.73c7.354,10.349,18.971,17.446,32.313,18.677v-22.827c-0.62315-0.11736-1.2335-0.26203-1.8367-0.43083-0.60328-0.16881-1.2028-0.36416-1.7838-0.58202-0.58104-0.21785-1.1443-0.45356-1.7007-0.71806-0.55643-0.2645-1.1032-0.55293-1.6327-0.86168-0.52944-0.30874-1.0419-0.63958-1.542-0.99017-0.50008-0.35059-0.99045-0.72108-1.4588-1.1111-0.46836-0.39004-0.91873-0.80498-1.353-1.232-0.43426-0.42707-0.84937-0.8686-1.2472-1.3303l-19.758,11.406z" stroke="#000" stroke-width="0.24187453" fill="#F00"/>
   <path id="path3058" fill="#000" d="m153.75,419.02c0.4742,5.1385,1.8444,10.01,3.9078,14.497l19.781-11.421c-0.34056-0.99657-0.61329-2.021-0.80877-3.0763h-22.88z"/>
   <path id="path3056" d="m194.13,370.32c-21.389,1.9739-38.408,18.989-40.385,40.378h22.933c0.10854-0.54704,0.23716-1.0859,0.38548-1.6175,0.14833-0.53164,0.31995-1.0576,0.50643-1.5722,0.18648-0.51461,0.38925-1.0158,0.61224-1.5117,0.223-0.49592,0.46019-0.98321,0.71807-1.4588,0.51575-0.95119,1.1006-1.8611,1.746-2.7211,0.64546-0.86001,1.3543-1.6706,2.1164-2.4263,0.76209-0.75567,1.5758-1.4556,2.4414-2.0937,0.86563-0.63817,1.7801-1.2158,2.7362-1.7234,0.47805-0.25376,0.96816-0.49187,1.4664-0.7105,0.49821-0.21863,1.0101-0.41527,1.5268-0.59713,0.51673-0.18186,1.0386-0.34787,1.5722-0.49131,0.53363-0.14344,1.0762-0.26699,1.6251-0.37037v-23.084z" stroke="#000" stroke-width="0.24187453" fill="#FFF"/>
   <path id="path3884" fill="none" d="m194.13,370.32c-21.389,1.9739-38.408,18.989-40.385,40.378h22.933c0.10854-0.54704,0.23716-1.0859,0.38548-1.6175,0.14833-0.53164,0.31995-1.0576,0.50643-1.5722,0.18648-0.51461,0.38925-1.0158,0.61224-1.5117,0.223-0.49592,0.46019-0.98321,0.71807-1.4588,0.51575-0.95119,1.1006-1.8611,1.746-2.7211,0.64546-0.86001,1.3543-1.6706,2.1164-2.4263,0.76209-0.75567,1.5758-1.4556,2.4414-2.0937,0.86563-0.63817,1.7801-1.2158,2.7362-1.7234,0.47805-0.25376,0.96816-0.49187,1.4664-0.7105,0.49821-0.21863,1.0101-0.41527,1.5268-0.59713,0.51673-0.18186,1.0386-0.34787,1.5722-0.49131,0.53363-0.14344,1.0762-0.26699,1.6251-0.37037v-23.084z"/>
   <path id="path3081" d="m236.13,402.2c0,25.113-20.358,45.471-45.471,45.471s-45.471-20.358-45.471-45.471,20.358-45.471,45.471-45.471,45.471,20.358,45.471,45.471z" transform="matrix(0.24187453,0,0,0.24187453,152.27787,317.58124)" fill="#000"/>
  </g>
 </g>
</svg>
