<?xml version="1.0" encoding="UTF-8" standalone="no"?>
<!-- Created with Inkscape (http://www.inkscape.org/) -->

<svg
   xmlns:dc="http://purl.org/dc/elements/1.1/"
   xmlns:cc="http://creativecommons.org/ns#"
   xmlns:rdf="http://www.w3.org/1999/02/22-rdf-syntax-ns#"
   xmlns:svg="http://www.w3.org/2000/svg"
   xmlns="http://www.w3.org/2000/svg"
   xmlns:sodipodi="http://sodipodi.sourceforge.net/DTD/sodipodi-0.dtd"
   xmlns:inkscape="http://www.inkscape.org/namespaces/inkscape"
   width="413.4375"
   height="412.5625"
   id="svg2990"
   version="1.1"
   inkscape:version="0.48.3.1 r9886"
   sodipodi:docname="muen.svg">
  <defs
     id="defs2992">
    <filter
       inkscape:collect="always"
       id="filter3788"
       color-interpolation-filters="sRGB">
      <feGaussianBlur
         inkscape:collect="always"
         stdDeviation="9.21875"
         id="feGaussianBlur3790" />
    </filter>
  </defs>
  <sodipodi:namedview
     id="base"
     pagecolor="#ffffff"
     bordercolor="#666666"
     borderopacity="1.0"
     inkscape:pageopacity="0.0"
     inkscape:pageshadow="2"
     inkscape:zoom="1.5900621"
     inkscape:cx="90.056641"
     inkscape:cy="206.28125"
     inkscape:document-units="px"
     inkscape:current-layer="g3826"
     showgrid="false"
     fit-margin-top="0"
     fit-margin-left="0"
     fit-margin-right="0"
     fit-margin-bottom="0"
     inkscape:window-width="1600"
     inkscape:window-height="845"
     inkscape:window-x="0"
     inkscape:window-y="25"
     inkscape:window-maximized="1" />
  <metadata
     id="metadata2995">
    <rdf:RDF>
      <cc:Work
         rdf:about="">
        <dc:format>image/svg+xml</dc:format>
        <dc:type
           rdf:resource="http://purl.org/dc/dcmitype/StillImage" />
        <dc:title />
      </cc:Work>
    </rdf:RDF>
  </metadata>
  <g
     inkscape:label="Layer 1"
     inkscape:groupmode="layer"
     id="layer1"
     transform="translate(1.90625,-209.96875)">
    <g
       id="g3090"
       transform="translate(6,6)"
       style="fill:#1a1a1a">
      <path
         style="fill:#000000;fill-opacity:1;stroke:none;filter:url(#filter3788)"
         d="M 181.1875,226.09375 C 92.755477,234.25459 22.394063,304.60342 14.21875,393.03125 l 94.8125,0 c 0.22437,-1.13084 0.48431,-2.26059 0.75,-3.375 0.26569,-1.11441 0.53714,-2.21348 0.84375,-3.3125 0.61323,-2.19803 1.32278,-4.37242 2.09375,-6.5 0.38549,-1.06379 0.79755,-2.11599 1.21875,-3.15625 0.4212,-1.04026 0.85153,-2.06859 1.3125,-3.09375 0.92194,-2.05033 1.9026,-4.06496 2.96875,-6.03125 2.1323,-3.93257 4.55018,-7.69441 7.21875,-11.25 2.66857,-3.55559 5.59925,-6.90703 8.75,-10.03125 3.15075,-3.12422 6.51491,-6.0178 10.09375,-8.65625 3.57884,-2.63845 7.35966,-5.02671 11.3125,-7.125 1.97642,-1.04914 4.00272,-2.0336 6.0625,-2.9375 2.05978,-0.9039 4.17612,-1.71688 6.3125,-2.46875 2.13638,-0.75187 4.29379,-1.43822 6.5,-2.03125 2.20621,-0.59303 4.44946,-1.10386 6.71875,-1.53125 l 0,-95.4375 z m 34.40625,0 0,95.5625 c 4.17673,0.81485 8.23682,1.91513 12.1875,3.28125 L 275.5,242.25 c -18.54974,-8.53051 -38.66281,-14.1955 -59.90625,-16.15625 z m 89.71875,33.34375 -47.75,82.71875 c 3.17759,2.75523 6.16942,5.70889 8.9375,8.875 l 82.6875,-47.71875 c -12.05932,-16.9721 -26.9029,-31.81568 -43.875,-43.875 z m 61.09375,73.6875 -82.5625,47.65625 c 0.82181,2.34841 1.5588,4.72496 2.1875,7.15625 0.6287,2.43129 1.13514,4.93183 1.5625,7.4375 0.42736,2.50567 0.75096,5.02221 0.96875,7.59375 0.21779,2.57154 0.34375,5.18358 0.34375,7.8125 0,3.40204 -0.19808,6.75757 -0.5625,10.0625 -0.36442,3.30493 -0.88437,6.56163 -1.59375,9.75 -0.70938,3.18837 -1.59011,6.32264 -2.625,9.375 -1.03489,3.05236 -2.22156,6.00934 -3.5625,8.90625 -1.34094,2.89691 -2.84121,5.71549 -4.46875,8.4375 -1.62754,2.72201 -3.38657,5.34733 -5.28125,7.875 -1.89468,2.52767 -3.92013,4.96738 -6.0625,7.28125 -2.14237,2.31387 -4.41065,4.51311 -6.78125,6.59375 l 47.34375,81.96875 c 47.18601,-33.52922 78.09375,-88.48795 78.09375,-150.78125 0,-27.5605 -6.1937,-53.62507 -17,-77.125 z M 198.8125,364.78125 c -25.1131,0 -45.46875,20.35565 -45.46875,45.46875 0,25.1131 20.35565,45.46875 45.46875,45.46875 25.1131,0 45.46875,-20.35565 45.46875,-45.46875 0,-25.1131 -20.35565,-45.46875 -45.46875,-45.46875 z M 14.21875,427.4375 c 1.96052,21.24446 7.625363,41.38695 16.15625,59.9375 l 81.78125,-47.21875 c -1.40797,-4.1202 -2.53557,-8.35566 -3.34375,-12.71875 l -94.59375,0 z m 115.0625,42.59375 -81.6875,47.15625 c 30.404242,42.7882 78.43494,72.12848 133.59375,77.21875 l 0,-94.375 c -2.57634,-0.48522 -5.09956,-1.08333 -7.59375,-1.78125 -2.49419,-0.69792 -4.97277,-1.50555 -7.375,-2.40625 -2.40223,-0.9007 -4.73078,-1.8752 -7.03125,-2.96875 -2.30047,-1.09355 -4.5611,-2.28603 -6.75,-3.5625 -2.1889,-1.27647 -4.30747,-2.64428 -6.375,-4.09375 -2.06753,-1.44947 -4.09489,-2.98121 -6.03125,-4.59375 -1.93636,-1.61254 -3.79836,-3.32807 -5.59375,-5.09375 -1.79539,-1.76568 -3.51164,-3.5911 -5.15625,-5.5 z m 99,26.4375 c -4.10716,1.4474 -8.33375,2.58811 -12.6875,3.4375 l 0,94.5 C 236.83719,592.4455 256.95026,586.78051 275.5,578.25 l -47.21875,-81.78125 z"
         id="path3775"
         inkscape:connector-curvature="0" />
      <flowRoot
         xml:space="preserve"
         id="flowRoot3869"
         style="font-size:20px;font-style:normal;font-variant:normal;font-weight:normal;font-stretch:normal;text-align:center;line-height:125%;letter-spacing:0px;word-spacing:0px;text-anchor:middle;fill:#1a1a1a;fill-opacity:1;stroke:none;font-family:Arial;-inkscape-font-specification:Arial"><flowRegion
           id="flowRegion3871"><rect
             id="rect3873"
             width="110.88615"
             height="108.49292"
             x="-189.06487"
             y="141.75375"
             style="fill:#1a1a1a" /></flowRegion><flowPara
           id="flowPara3875" /></flowRoot>    </g>
    <g
       id="g3826"
       transform="translate(4,-2)">
      <path
         inkscape:connector-curvature="0"
         style="fill:#000000;fill-opacity:1;stroke:none"
         d="m 267.5,236.25 c -18.54974,-8.53051 -38.66281,-14.1955 -59.90625,-16.15625 l 0,95.5625 c 4.17673,0.81485 8.23682,1.91513 12.1875,3.28125 L 267.5,236.25 z"
         id="path3068" />
      <path
         inkscape:connector-curvature="0"
         style="fill:#000000;fill-opacity:1;stroke:none"
         d="m 341.1875,297.3125 c -12.05932,-16.9721 -26.9029,-31.81568 -43.875,-43.875 l -47.75,82.71875 c 3.17759,2.75523 6.16942,5.70889 8.9375,8.875 l 82.6875,-47.71875 z"
         id="path3066" />
      <path
         inkscape:connector-curvature="0"
         style="fill:#800000;fill-opacity:1;stroke:#000000;stroke-opacity:1"
         d="m 297.3125,555.03125 c 47.18601,-33.52922 78.09375,-88.48795 78.09375,-150.78125 0,-27.5605 -6.1937,-53.62507 -17,-77.125 l -82.5625,47.65625 c 0.82181,2.34841 1.5588,4.72496 2.1875,7.15625 0.6287,2.43129 1.13514,4.93183 1.5625,7.4375 0.42736,2.50567 0.75096,5.02221 0.96875,7.59375 0.21779,2.57154 0.34375,5.18358 0.34375,7.8125 0,3.40204 -0.19808,6.75757 -0.5625,10.0625 -0.36442,3.30493 -0.88437,6.56163 -1.59375,9.75 -0.70938,3.18837 -1.59011,6.32264 -2.625,9.375 -1.03489,3.05236 -2.22156,6.00934 -3.5625,8.90625 -1.34094,2.89691 -2.84121,5.71549 -4.46875,8.4375 -1.62754,2.72201 -3.38657,5.34733 -5.28125,7.875 -1.89468,2.52767 -3.92013,4.96738 -6.0625,7.28125 -2.14237,2.31387 -4.41065,4.51311 -6.78125,6.59375 l 47.34375,81.96875 z"
         id="path3064" />
      <path
         inkscape:connector-curvature="0"
         style="fill:#000000;fill-opacity:1;stroke:none"
         d="M 207.59375,588.40625 C 228.83719,586.4455 248.95026,580.78051 267.5,572.25 l -47.21875,-81.78125 c -4.10716,1.4474 -8.33375,2.58811 -12.6875,3.4375 l 0,94.5 z"
         id="path3062" />
      <path
         inkscape:connector-curvature="0"
         style="fill:#ff0000;fill-opacity:1;stroke:#000000;stroke-opacity:1"
         d="m 39.59375,511.1875 c 30.404242,42.7882 78.43494,72.12848 133.59375,77.21875 l 0,-94.375 c -2.57634,-0.48522 -5.09956,-1.08333 -7.59375,-1.78125 -2.49419,-0.69792 -4.97277,-1.50555 -7.375,-2.40625 -2.40223,-0.9007 -4.73078,-1.8752 -7.03125,-2.96875 -2.30047,-1.09355 -4.5611,-2.28603 -6.75,-3.5625 -2.1889,-1.27647 -4.30747,-2.64428 -6.375,-4.09375 -2.06753,-1.44947 -4.09489,-2.98121 -6.03125,-4.59375 -1.93636,-1.61254 -3.79836,-3.32807 -5.59375,-5.09375 -1.79539,-1.76568 -3.51164,-3.5911 -5.15625,-5.5 l -81.6875,47.15625 z"
         id="path3060" />
      <path
         inkscape:connector-curvature="0"
         style="fill:#000000;fill-opacity:1;stroke:none"
         d="m 6.21875,421.4375 c 1.9605196,21.24446 7.625363,41.38695 16.15625,59.9375 l 81.78125,-47.21875 c -1.40797,-4.1202 -2.53557,-8.35566 -3.34375,-12.71875 l -94.59375,0 z"
         id="path3058" />
      <path
         inkscape:connector-curvature="0"
         style="fill:#ffffff;fill-opacity:1;stroke:#000000;stroke-opacity:1.0"
         d="M 173.1875,220.09375 C 84.755477,228.25459 14.394063,298.60342 6.21875,387.03125 l 94.8125,0 c 0.44874,-2.26168 0.98052,-4.48947 1.59375,-6.6875 0.61323,-2.19803 1.32278,-4.37242 2.09375,-6.5 0.77097,-2.12758 1.60931,-4.19967 2.53125,-6.25 0.92194,-2.05033 1.9026,-4.06496 2.96875,-6.03125 2.1323,-3.93257 4.55018,-7.69441 7.21875,-11.25 2.66857,-3.55559 5.59925,-6.90703 8.75,-10.03125 3.15075,-3.12422 6.51491,-6.0178 10.09375,-8.65625 3.57884,-2.63845 7.35966,-5.02671 11.3125,-7.125 1.97642,-1.04914 4.00272,-2.0336 6.0625,-2.9375 2.05978,-0.9039 4.17612,-1.71688 6.3125,-2.46875 2.13638,-0.75187 4.29379,-1.43822 6.5,-2.03125 2.20621,-0.59303 4.44946,-1.10386 6.71875,-1.53125 l 0,-95.4375 z"
         id="path3056" />
      <path
         id="path3884"
         d="M 173.1875,220.09375 C 84.755477,228.25459 14.394063,298.60342 6.21875,387.03125 l 94.8125,0 c 0.44874,-2.26168 0.98052,-4.48947 1.59375,-6.6875 0.61323,-2.19803 1.32278,-4.37242 2.09375,-6.5 0.77097,-2.12758 1.60931,-4.19967 2.53125,-6.25 0.92194,-2.05033 1.9026,-4.06496 2.96875,-6.03125 2.1323,-3.93257 4.55018,-7.69441 7.21875,-11.25 2.66857,-3.55559 5.59925,-6.90703 8.75,-10.03125 3.15075,-3.12422 6.51491,-6.0178 10.09375,-8.65625 3.57884,-2.63845 7.35966,-5.02671 11.3125,-7.125 1.97642,-1.04914 4.00272,-2.0336 6.0625,-2.9375 2.05978,-0.9039 4.17612,-1.71688 6.3125,-2.46875 2.13638,-0.75187 4.29379,-1.43822 6.5,-2.03125 2.20621,-0.59303 4.44946,-1.10386 6.71875,-1.53125 l 0,-95.4375 z"
         style="fill:none;stroke:none"
         inkscape:connector-curvature="0" />
      <path
         transform="translate(0.15214539,2.0476074)"
         d="m 236.13165,402.20239 c 0,25.11311 -20.35819,45.4713 -45.4713,45.4713 -25.1131,0 -45.47129,-20.35819 -45.47129,-45.4713 0,-25.1131 20.35819,-45.4713 45.47129,-45.4713 25.11311,0 45.4713,20.3582 45.4713,45.4713 z"
         sodipodi:ry="45.471298"
         sodipodi:rx="45.471298"
         sodipodi:cy="402.20239"
         sodipodi:cx="190.66035"
         id="path3081"
         style="fill:#000000;fill-opacity:1;stroke:none"
         sodipodi:type="arc" />
    </g>
  </g>
</svg>
