<?xml version="1.0" encoding="UTF-8" standalone="no"?>
<!-- Created with Inkscape (http://www.inkscape.org/) -->

<svg
   xmlns:dc="http://purl.org/dc/elements/1.1/"
   xmlns:cc="http://creativecommons.org/ns#"
   xmlns:rdf="http://www.w3.org/1999/02/22-rdf-syntax-ns#"
   xmlns:svg="http://www.w3.org/2000/svg"
   xmlns="http://www.w3.org/2000/svg"
   xmlns:sodipodi="http://sodipodi.sourceforge.net/DTD/sodipodi-0.dtd"
   xmlns:inkscape="http://www.inkscape.org/namespaces/inkscape"
   width="100"
   height="99.788361"
   id="svg2990"
   version="1.1"
   inkscape:version="0.48.3.1 r9886"
   sodipodi:docname="muen.svg">
  <defs
     id="defs2992">
    <filter
       inkscape:collect="always"
       id="filter3788"
       color-interpolation-filters="sRGB">
      <feGaussianBlur
         inkscape:collect="always"
         stdDeviation="9.21875"
         id="feGaussianBlur3790" />
    </filter>
  </defs>
  <sodipodi:namedview
     id="base"
     pagecolor="#ffffff"
     bordercolor="#666666"
     borderopacity="1.0"
     inkscape:pageopacity="0.0"
     inkscape:pageshadow="2"
     inkscape:zoom="0.93238258"
     inkscape:cx="-121.26047"
     inkscape:cy="41.09843"
     inkscape:document-units="px"
     inkscape:current-layer="g3826"
     showgrid="false"
     fit-margin-top="0"
     fit-margin-left="0"
     fit-margin-right="0"
     fit-margin-bottom="0"
     inkscape:window-width="1366"
     inkscape:window-height="723"
     inkscape:window-x="0"
     inkscape:window-y="24"
     inkscape:window-maximized="1" />
  <metadata
     id="metadata2995">
    <rdf:RDF>
      <cc:Work
         rdf:about="">
        <dc:format>image/svg+xml</dc:format>
        <dc:type
           rdf:resource="http://purl.org/dc/dcmitype/StillImage" />
        <dc:title />
      </cc:Work>
    </rdf:RDF>
  </metadata>
  <g
     inkscape:label="Layer 1"
     inkscape:groupmode="layer"
     id="layer1"
     transform="translate(-154.8125,-366.35583)">
    <g
       id="g3090"
       transform="matrix(0.24187453,0,0,0.24187453,156.72482,317.02098)"
       style="fill:#1a1a1a">
      <path
         style="fill:#000000;fill-opacity:1;stroke:none;filter:url(#filter3788)"
         d="M 181.1875,226.09375 C 92.755477,234.25459 22.394063,304.60342 14.21875,393.03125 l 94.8125,0 c 0.22437,-1.13084 0.48431,-2.26059 0.75,-3.375 0.26569,-1.11441 0.53714,-2.21348 0.84375,-3.3125 0.61323,-2.19803 1.32278,-4.37242 2.09375,-6.5 0.38549,-1.06379 0.79755,-2.11599 1.21875,-3.15625 0.4212,-1.04026 0.85153,-2.06859 1.3125,-3.09375 0.92194,-2.05033 1.9026,-4.06496 2.96875,-6.03125 2.1323,-3.93257 4.55018,-7.69441 7.21875,-11.25 2.66857,-3.55559 5.59925,-6.90703 8.75,-10.03125 3.15075,-3.12422 6.51491,-6.0178 10.09375,-8.65625 3.57884,-2.63845 7.35966,-5.02671 11.3125,-7.125 1.97642,-1.04914 4.00272,-2.0336 6.0625,-2.9375 2.05978,-0.9039 4.17612,-1.71688 6.3125,-2.46875 2.13638,-0.75187 4.29379,-1.43822 6.5,-2.03125 2.20621,-0.59303 4.44946,-1.10386 6.71875,-1.53125 l 0,-95.4375 z m 34.40625,0 0,95.5625 c 4.17673,0.81485 8.23682,1.91513 12.1875,3.28125 L 275.5,242.25 c -18.54974,-8.53051 -38.66281,-14.1955 -59.90625,-16.15625 z m 89.71875,33.34375 -47.75,82.71875 c 3.17759,2.75523 6.16942,5.70889 8.9375,8.875 l 82.6875,-47.71875 c -12.05932,-16.9721 -26.9029,-31.81568 -43.875,-43.875 z m 61.09375,73.6875 -82.5625,47.65625 c 0.82181,2.34841 1.5588,4.72496 2.1875,7.15625 0.6287,2.43129 1.13514,4.93183 1.5625,7.4375 0.42736,2.50567 0.75096,5.02221 0.96875,7.59375 0.21779,2.57154 0.34375,5.18358 0.34375,7.8125 0,3.40204 -0.19808,6.75757 -0.5625,10.0625 -0.36442,3.30493 -0.88437,6.56163 -1.59375,9.75 -0.70938,3.18837 -1.59011,6.32264 -2.625,9.375 -1.03489,3.05236 -2.22156,6.00934 -3.5625,8.90625 -1.34094,2.89691 -2.84121,5.71549 -4.46875,8.4375 -1.62754,2.72201 -3.38657,5.34733 -5.28125,7.875 -1.89468,2.52767 -3.92013,4.96738 -6.0625,7.28125 -2.14237,2.31387 -4.41065,4.51311 -6.78125,6.59375 l 47.34375,81.96875 c 47.18601,-33.52922 78.09375,-88.48795 78.09375,-150.78125 0,-27.5605 -6.1937,-53.62507 -17,-77.125 z M 198.8125,364.78125 c -25.1131,0 -45.46875,20.35565 -45.46875,45.46875 0,25.1131 20.35565,45.46875 45.46875,45.46875 25.1131,0 45.46875,-20.35565 45.46875,-45.46875 0,-25.1131 -20.35565,-45.46875 -45.46875,-45.46875 z M 14.21875,427.4375 c 1.96052,21.24446 7.625363,41.38695 16.15625,59.9375 l 81.78125,-47.21875 c -1.40797,-4.1202 -2.53557,-8.35566 -3.34375,-12.71875 l -94.59375,0 z m 115.0625,42.59375 -81.6875,47.15625 c 30.404242,42.7882 78.43494,72.12848 133.59375,77.21875 l 0,-94.375 c -2.57634,-0.48522 -5.09956,-1.08333 -7.59375,-1.78125 -2.49419,-0.69792 -4.97277,-1.50555 -7.375,-2.40625 -2.40223,-0.9007 -4.73078,-1.8752 -7.03125,-2.96875 -2.30047,-1.09355 -4.5611,-2.28603 -6.75,-3.5625 -2.1889,-1.27647 -4.30747,-2.64428 -6.375,-4.09375 -2.06753,-1.44947 -4.09489,-2.98121 -6.03125,-4.59375 -1.93636,-1.61254 -3.79836,-3.32807 -5.59375,-5.09375 -1.79539,-1.76568 -3.51164,-3.5911 -5.15625,-5.5 z m 99,26.4375 c -4.10716,1.4474 -8.33375,2.58811 -12.6875,3.4375 l 0,94.5 C 236.83719,592.4455 256.95026,586.78051 275.5,578.25 l -47.21875,-81.78125 z"
         id="path3775"
         inkscape:connector-curvature="0" />
      <flowRoot
         xml:space="preserve"
         id="flowRoot3869"
         style="font-size:20px;font-style:normal;font-variant:normal;font-weight:normal;font-stretch:normal;text-align:center;line-height:125%;letter-spacing:0px;word-spacing:0px;text-anchor:middle;fill:#1a1a1a;fill-opacity:1;stroke:none;font-family:Arial;-inkscape-font-specification:Arial"><flowRegion
           id="flowRegion3871"><rect
             id="rect3873"
             width="110.88615"
             height="108.49292"
             x="-189.06487"
             y="141.75375"
             style="fill:#1a1a1a" /></flowRegion><flowPara
           id="flowPara3875" /></flowRoot>    </g>
    <g
       id="g3826"
       transform="translate(4,-2)">
      <path
         inkscape:connector-curvature="0"
         style="fill:#000000;fill-opacity:1;stroke:none"
         d="m 216.94251,374.22884 c -4.48671,-2.06332 -9.35155,-3.43353 -14.4898,-3.90779 l 0,23.11414 c 1.01025,0.19709 1.99228,0.46322 2.94785,0.79365 l 11.54195,-20 z"
         id="path3068" />
      <path
         inkscape:connector-curvature="0"
         style="fill:#000000;fill-opacity:1;stroke:none"
         d="m 234.76564,388.9983 c -2.91685,-4.10512 -6.50713,-7.6954 -10.61225,-10.61225 l -11.54951,20.00756 c 0.76858,0.66642 1.49223,1.38084 2.16176,2.14664 l 20,-11.54195 z"
         id="path3066" />
      <path
         inkscape:connector-curvature="0"
         style="fill:#800000;fill-opacity:1;stroke:#000000;stroke-width:0.24187453;stroke-opacity:1"
         d="m 224.15339,451.3339 c 11.4131,-8.10986 18.88889,-21.40298 18.88889,-36.47014 0,-6.66619 -1.4981,-12.97054 -4.11187,-18.65458 l -19.96976,11.52684 c 0.19877,0.56802 0.37703,1.14284 0.5291,1.73091 0.15207,0.58807 0.27456,1.19289 0.37793,1.79894 0.10337,0.60606 0.18164,1.21475 0.23431,1.83674 0.0527,0.62199 0.0831,1.25377 0.0831,1.88964 0,0.82287 -0.0479,1.63449 -0.13606,2.43386 -0.0881,0.79938 -0.2139,1.5871 -0.38548,2.35828 -0.17158,0.77119 -0.38461,1.52929 -0.63492,2.26758 -0.25032,0.73828 -0.53734,1.4535 -0.86168,2.15419 -0.32434,0.70069 -0.68722,1.38243 -1.08088,2.04082 -0.39366,0.65838 -0.81912,1.29338 -1.2774,1.90476 -0.45827,0.61138 -0.94818,1.20148 -1.46636,1.76115 -0.51819,0.55966 -1.06683,1.0916 -1.64022,1.59486 l 11.45125,19.82615 z"
         id="path3064" />
      <path
         inkscape:connector-curvature="0"
         style="fill:#000000;fill-opacity:1;stroke:none"
         d="m 202.45271,459.40646 c 5.13825,-0.47425 10.00309,-1.84447 14.4898,-3.90778 l -11.42102,-19.7808 c -0.99341,0.35009 -2.01572,0.62599 -3.06878,0.83144 l 0,22.85714 z"
         id="path3062" />
      <path
         inkscape:connector-curvature="0"
         style="fill:#ff0000;fill-opacity:1;stroke:#000000;stroke-width:0.24187453;stroke-opacity:1"
         d="m 161.81779,440.72921 c 7.35401,10.34938 18.97142,17.44605 32.31293,18.67725 l 0,-22.82691 c -0.62315,-0.11736 -1.23346,-0.26203 -1.83674,-0.43083 -0.60328,-0.16881 -1.20278,-0.36416 -1.78382,-0.58202 -0.58104,-0.21785 -1.14426,-0.45356 -1.70068,-0.71806 -0.55643,-0.2645 -1.10322,-0.55293 -1.63266,-0.86168 -0.52944,-0.30874 -1.04186,-0.63958 -1.54195,-0.99017 -0.50008,-0.35059 -0.99045,-0.72108 -1.4588,-1.11111 -0.46836,-0.39004 -0.91873,-0.80498 -1.35299,-1.23205 -0.43426,-0.42707 -0.84937,-0.8686 -1.24716,-1.33031 l -19.75813,11.40589 z"
         id="path3060" />
      <path
         inkscape:connector-curvature="0"
         style="fill:#000000;fill-opacity:1;stroke:none"
         d="m 153.74523,419.02098 c 0.4742,5.13849 1.84438,10.01044 3.90778,14.49735 l 19.78081,-11.42101 c -0.34056,-0.99657 -0.61329,-2.02102 -0.80877,-3.07634 l -22.87982,0 z"
         id="path3058" />
      <path
         inkscape:connector-curvature="0"
         style="fill:#ffffff;fill-opacity:1;stroke:#000000;stroke-width:0.24187453;stroke-opacity:1"
         d="m 194.13072,370.32105 c -21.38946,1.9739 -38.40809,18.98949 -40.38549,40.37793 l 22.93273,0 c 0.10854,-0.54704 0.23716,-1.08589 0.38548,-1.61754 0.14833,-0.53164 0.31995,-1.05757 0.50643,-1.57218 0.18648,-0.51461 0.38925,-1.01579 0.61224,-1.51172 0.223,-0.49592 0.46019,-0.98321 0.71807,-1.4588 0.51575,-0.95119 1.10057,-1.86108 1.74603,-2.72109 0.64546,-0.86001 1.35432,-1.67064 2.1164,-2.4263 0.76209,-0.75567 1.57579,-1.45556 2.44142,-2.09373 0.86563,-0.63817 1.78012,-1.21583 2.73621,-1.72336 0.47805,-0.25376 0.96816,-0.49187 1.46636,-0.7105 0.49821,-0.21863 1.0101,-0.41527 1.52684,-0.59713 0.51673,-0.18186 1.03856,-0.34787 1.57218,-0.49131 0.53363,-0.14344 1.07621,-0.26699 1.6251,-0.37037 l 0,-23.0839 z"
         id="path3056" />
      <path
         id="path3884"
         d="m 194.13072,370.32105 c -21.38946,1.9739 -38.40809,18.98949 -40.38549,40.37793 l 22.93273,0 c 0.10854,-0.54704 0.23716,-1.08589 0.38548,-1.61754 0.14833,-0.53164 0.31995,-1.05757 0.50643,-1.57218 0.18648,-0.51461 0.38925,-1.01579 0.61224,-1.51172 0.223,-0.49592 0.46019,-0.98321 0.71807,-1.4588 0.51575,-0.95119 1.10057,-1.86108 1.74603,-2.72109 0.64546,-0.86001 1.35432,-1.67064 2.1164,-2.4263 0.76209,-0.75567 1.57579,-1.45556 2.44142,-2.09373 0.86563,-0.63817 1.78012,-1.21583 2.73621,-1.72336 0.47805,-0.25376 0.96816,-0.49187 1.46636,-0.7105 0.49821,-0.21863 1.0101,-0.41527 1.52684,-0.59713 0.51673,-0.18186 1.03856,-0.34787 1.57218,-0.49131 0.53363,-0.14344 1.07621,-0.26699 1.6251,-0.37037 l 0,-23.0839 z"
         style="fill:none;stroke:none"
         inkscape:connector-curvature="0" />
      <path
         transform="matrix(0.24187453,0,0,0.24187453,152.27787,317.58124)"
         d="m 236.13165,402.20239 c 0,25.11311 -20.35819,45.4713 -45.4713,45.4713 -25.1131,0 -45.47129,-20.35819 -45.47129,-45.4713 0,-25.1131 20.35819,-45.4713 45.47129,-45.4713 25.11311,0 45.4713,20.3582 45.4713,45.4713 z"
         sodipodi:ry="45.471298"
         sodipodi:rx="45.471298"
         sodipodi:cy="402.20239"
         sodipodi:cx="190.66035"
         id="path3081"
         style="fill:#000000;fill-opacity:1;stroke:none"
         sodipodi:type="arc" />
    </g>
  </g>
</svg>
